<ttFont>
    <TTGlyph name=".notdef" xMin="251" yMin="-555" xMax="1107" yMax="2146">
      <contour>
        <pt x="1107" y="-555" on="1"/>
        <pt x="251" y="-555" on="1"/>
        <pt x="251" y="2146" on="1"/>
        <pt x="1107" y="2146" on="1"/>
      </contour>
      <contour>
        <pt x="454" y="1965" on="1"/>
        <pt x="454" y="1876" on="1"/>
        <pt x="629" y="1876" on="1"/>
        <pt x="629" y="1776" on="1"/>
        <pt x="451" y="1776" on="1"/>
        <pt x="451" y="1687" on="1"/>
        <pt x="899" y="1687" on="1"/>
        <pt x="899" y="1776" on="1"/>
        <pt x="721" y="1776" on="1"/>
        <pt x="721" y="1876" on="1"/>
        <pt x="899" y="1876" on="1"/>
        <pt x="899" y="1965" on="1"/>
      </contour>
      <contour>
        <pt x="451" y="1617" on="1"/>
        <pt x="451" y="1336" on="1"/>
        <pt x="899" y="1336" on="1"/>
        <pt x="899" y="1428" on="1"/>
        <pt x="721" y="1428" on="1"/>
        <pt x="721" y="1617" on="1"/>
      </contour>
      <contour>
        <pt x="629" y="1428" on="1"/>
        <pt x="540" y="1428" on="1"/>
        <pt x="540" y="1525" on="1"/>
        <pt x="629" y="1525" on="1"/>
      </contour>
      <contour>
        <pt x="451" y="1263" on="1"/>
        <pt x="451" y="1174" on="1"/>
        <pt x="629" y="1174" on="1"/>
        <pt x="629" y="1074" on="1"/>
        <pt x="451" y="1074" on="1"/>
        <pt x="451" y="985" on="1"/>
        <pt x="721" y="985" on="1"/>
        <pt x="721" y="1174" on="1"/>
        <pt x="899" y="1174" on="1"/>
        <pt x="899" y="1263" on="1"/>
      </contour>
      <contour>
        <pt x="810" y="1101" on="1"/>
        <pt x="810" y="922" on="1"/>
        <pt x="451" y="922" on="1"/>
        <pt x="451" y="831" on="1"/>
        <pt x="899" y="831" on="1"/>
        <pt x="899" y="1101" on="1"/>
      </contour>
      <contour>
        <pt x="629" y="771" on="1"/>
        <pt x="629" y="620" on="1"/>
        <pt x="721" y="620" on="1"/>
        <pt x="721" y="682" on="1"/>
        <pt x="810" y="682" on="1"/>
        <pt x="810" y="555" on="1"/>
        <pt x="540" y="555" on="1"/>
        <pt x="540" y="771" on="1"/>
        <pt x="451" y="771" on="1"/>
        <pt x="451" y="466" on="1"/>
        <pt x="899" y="466" on="1"/>
        <pt x="899" y="771" on="1"/>
      </contour>
      <contour>
        <pt x="451" y="304" on="1"/>
        <pt x="451" y="-1" on="1"/>
        <pt x="899" y="-1" on="1"/>
        <pt x="899" y="304" on="1"/>
      </contour>
      <contour>
        <pt x="810" y="88" on="1"/>
        <pt x="540" y="88" on="1"/>
        <pt x="540" y="215" on="1"/>
        <pt x="810" y="215" on="1"/>
      </contour>
      <contour>
        <pt x="451" y="-63" on="1"/>
        <pt x="451" y="-153" on="1"/>
        <pt x="640" y="-153" on="1"/>
        <pt x="451" y="-279" on="1"/>
        <pt x="451" y="-369" on="1"/>
        <pt x="899" y="-369" on="1"/>
        <pt x="899" y="-279" on="1"/>
        <pt x="624" y="-279" on="1"/>
        <pt x="813" y="-153" on="1"/>
        <pt x="899" y="-153" on="1"/>
        <pt x="899" y="-63" on="1"/>
      </contour>
    </TTGlyph>
    <TTGlyph name=".ttfautohint" xMin="0" yMin="0" xMax="0" yMax="0">
      <contour>
        <pt x="0" y="0" on="1"/>
      </contour>
    </TTGlyph>
    <TTGlyph name="A" xMin="-8" yMin="0" xMax="1411" yMax="1456">
      <contour>
        <pt x="935" y="241" on="1"/>
        <pt x="467" y="241" on="1"/>
        <pt x="393" y="0" on="1"/>
        <pt x="-8" y="0" on="1"/>
        <pt x="523" y="1456" on="1"/>
        <pt x="877" y="1456" on="1"/>
        <pt x="1411" y="0" on="1"/>
        <pt x="1009" y="0" on="1"/>
      </contour>
      <contour>
        <pt x="842" y="543" on="1"/>
        <pt x="701" y="1003" on="1"/>
        <pt x="560" y="543" on="1"/>
      </contour>
    </TTGlyph>
    <TTGlyph name="A.smcp" xMin="-17" yMin="0" xMax="1235" yMax="1165">
      <contour>
        <pt x="809" y="183" on="1"/>
        <pt x="405" y="183" on="1"/>
        <pt x="343" y="0" on="1"/>
        <pt x="-17" y="0" on="1"/>
        <pt x="430" y="1165" on="1"/>
        <pt x="777" y="1165" on="1"/>
        <pt x="1235" y="0" on="1"/>
        <pt x="874" y="0" on="1"/>
      </contour>
      <contour>
        <pt x="719" y="434" on="1"/>
        <pt x="612" y="732" on="1"/>
        <pt x="602" y="782" on="1"/>
        <pt x="592" y="735" on="1"/>
        <pt x="490" y="434" on="1"/>
      </contour>
    </TTGlyph>
    <TTGlyph name="AE" xMin="22" yMin="0" xMax="1845" yMax="1456">
      <contour>
        <pt x="1845" y="295" on="1"/>
        <pt x="1845" y="0" on="1"/>
        <pt x="949" y="0" on="1"/>
        <pt x="935" y="324" on="1"/>
        <pt x="579" y="324" on="1"/>
        <pt x="435" y="0" on="1"/>
        <pt x="22" y="0" on="1"/>
        <pt x="734" y="1456" on="1"/>
        <pt x="1785" y="1456" on="1"/>
        <pt x="1785" y="1161" on="1"/>
        <pt x="1258" y="1161" on="1"/>
        <pt x="1270" y="887" on="1"/>
        <pt x="1704" y="887" on="1"/>
        <pt x="1704" y="592" on="1"/>
        <pt x="1282" y="592" on="1"/>
        <pt x="1295" y="295" on="1"/>
      </contour>
      <contour>
        <pt x="923" y="619" on="1"/>
        <pt x="905" y="1055" on="1"/>
        <pt x="711" y="619" on="1"/>
      </contour>
    </TTGlyph>
    <TTGlyph name="AE.smcp" xMin="-80" yMin="0" xMax="1577" yMax="1165">
      <contour>
        <pt x="1577" y="288" on="1"/>
        <pt x="1577" y="0" on="1"/>
        <pt x="693" y="0" on="1"/>
        <pt x="686" y="169" on="1"/>
        <pt x="380" y="169" on="1"/>
        <pt x="311" y="0" on="1"/>
        <pt x="-80" y="0" on="1"/>
        <pt x="449" y="1165" on="1"/>
        <pt x="1531" y="1165" on="1"/>
        <pt x="1531" y="877" on="1"/>
        <pt x="1015" y="877" on="1"/>
        <pt x="1020" y="748" on="1"/>
        <pt x="1471" y="748" on="1"/>
        <pt x="1471" y="459" on="1"/>
        <pt x="1031" y="459" on="1"/>
        <pt x="1038" y="288" on="1"/>
      </contour>
      <contour>
        <pt x="676" y="452" on="1"/>
        <pt x="660" y="850" on="1"/>
        <pt x="497" y="452" on="1"/>
      </contour>
    </TTGlyph>
    <TTGlyph name="Aacute" xMin="-8" yMin="0" xMax="1411" yMax="1846">
      <component glyphName=".ttfautohint" x="0" y="0" flags="0x0"/>
      <component glyphName="A" x="0" y="0" flags="0x0"/>
      <component glyphName="acutecomb" x="1217" y="310" flags="0x4"/>
    </TTGlyph>
    <TTGlyph name="Aacute.smcp" xMin="-17" yMin="0" xMax="1235" yMax="1566">
      <component glyphName=".ttfautohint" x="0" y="0" flags="0x0"/>
      <component glyphName="A.smcp" x="0" y="0" flags="0x0"/>
      <component glyphName="acutecomb" x="1125" y="30" flags="0x4"/>
    </TTGlyph>
    <TTGlyph name="Acircumflex" xMin="-8" yMin="0" xMax="1411" yMax="1845">
      <component glyphName=".ttfautohint" x="0" y="0" flags="0x0"/>
      <component glyphName="A" x="0" y="0" flags="0x0"/>
      <component glyphName="circumflex" x="180" y="310" flags="0x4"/>
    </TTGlyph>
    <TTGlyph name="Acircumflex.smcp" xMin="-17" yMin="0" xMax="1235" yMax="1565">
      <component glyphName=".ttfautohint" x="0" y="0" flags="0x0"/>
      <component glyphName="A.smcp" x="0" y="0" flags="0x0"/>
      <component glyphName="circumflex" x="88" y="30" flags="0x4"/>
    </TTGlyph>
    <TTGlyph name="Adieresis" xMin="-8" yMin="0" xMax="1411" yMax="1815">
      <component glyphName=".ttfautohint" x="0" y="0" flags="0x0"/>
      <component glyphName="A" x="0" y="0" flags="0x0"/>
      <component glyphName="dieresis" x="181" y="310" flags="0x4"/>
    </TTGlyph>
    <TTGlyph name="Adieresis.smcp" xMin="-17" yMin="0" xMax="1235" yMax="1535">
      <component glyphName=".ttfautohint" x="0" y="0" flags="0x0"/>
      <component glyphName="A.smcp" x="0" y="0" flags="0x0"/>
      <component glyphName="dieresis" x="89" y="30" flags="0x4"/>
    </TTGlyph>
    <TTGlyph name="Agrave" xMin="-8" yMin="0" xMax="1411" yMax="1846">
      <component glyphName=".ttfautohint" x="0" y="0" flags="0x0"/>
      <component glyphName="A" x="0" y="0" flags="0x0"/>
      <component glyphName="gravecomb" x="1253" y="310" flags="0x4"/>
    </TTGlyph>
    <TTGlyph name="Agrave.smcp" xMin="-17" yMin="0" xMax="1235" yMax="1566">
      <component glyphName=".ttfautohint" x="0" y="0" flags="0x0"/>
      <component glyphName="A.smcp" x="0" y="0" flags="0x0"/>
      <component glyphName="gravecomb" x="1161" y="30" flags="0x4"/>
    </TTGlyph>
    <TTGlyph name="Aring" xMin="-8" yMin="0" xMax="1411" yMax="1929">
      <component glyphName=".ttfautohint" x="0" y="0" flags="0x0"/>
      <component glyphName="A" x="0" y="0" flags="0x0"/>
      <component glyphName="ring" x="361" y="469" flags="0x4"/>
    </TTGlyph>
    <TTGlyph name="Aring.smcp" xMin="-17" yMin="0" xMax="1235" yMax="1649">
      <component glyphName=".ttfautohint" x="0" y="0" flags="0x0"/>
      <component glyphName="A.smcp" x="0" y="0" flags="0x0"/>
      <component glyphName="ring" x="269" y="189" flags="0x4"/>
    </TTGlyph>
    <TTGlyph name="Atilde" xMin="-8" yMin="0" xMax="1411" yMax="1854">
      <component glyphName=".ttfautohint" x="0" y="0" flags="0x0"/>
      <component glyphName="A" x="0" y="0" flags="0x0"/>
      <component glyphName="tilde" x="200" y="303" flags="0x4"/>
    </TTGlyph>
    <TTGlyph name="Atilde.smcp" xMin="-17" yMin="0" xMax="1235" yMax="1574">
      <component glyphName=".ttfautohint" x="0" y="0" flags="0x0"/>
      <component glyphName="A.smcp" x="0" y="0" flags="0x0"/>
      <component glyphName="tilde" x="108" y="23" flags="0x4"/>
    </TTGlyph>
    <TTGlyph name="B" xMin="102" yMin="0" xMax="1250" yMax="1456">
      <contour>
        <pt x="1140" y="706" on="0"/>
        <pt x="1250" y="539" on="0"/>
        <pt x="1250" y="434" on="1"/>
        <pt x="1250" y="0" on="0"/>
        <pt x="693" y="0" on="1"/>
        <pt x="102" y="0" on="1"/>
        <pt x="102" y="1456" on="1"/>
        <pt x="631" y="1456" on="1"/>
        <pt x="912" y="1456" on="0"/>
        <pt x="1220" y="1251" on="0"/>
        <pt x="1220" y="1050" on="1"/>
        <pt x="1220" y="943" on="0"/>
        <pt x="1127" y="777" on="0"/>
        <pt x="1022" y="737" on="1"/>
      </contour>
      <contour>
        <pt x="475" y="1154" on="1"/>
        <pt x="475" y="851" on="1"/>
        <pt x="628" y="851" on="1"/>
        <pt x="749" y="851" on="0"/>
        <pt x="847" y="919" on="0"/>
        <pt x="847" y="995" on="1"/>
        <pt x="847" y="1080" on="0"/>
        <pt x="745" y="1154" on="0"/>
        <pt x="631" y="1154" on="1"/>
      </contour>
      <contour>
        <pt x="789" y="301" on="0"/>
        <pt x="878" y="380" on="0"/>
        <pt x="878" y="441" on="1"/>
        <pt x="878" y="601" on="0"/>
        <pt x="708" y="601" on="1"/>
        <pt x="475" y="601" on="1"/>
        <pt x="475" y="301" on="1"/>
        <pt x="693" y="301" on="1"/>
      </contour>
    </TTGlyph>
    <TTGlyph name="B.smcp" xMin="73" yMin="0" xMax="1095" yMax="1165">
      <contour>
        <pt x="1003" y="554" on="0"/>
        <pt x="1095" y="413" on="0"/>
        <pt x="1095" y="334" on="1"/>
        <pt x="1095" y="215" on="0"/>
        <pt x="988" y="68" on="0"/>
        <pt x="769" y="0" on="0"/>
        <pt x="599" y="0" on="1"/>
        <pt x="73" y="0" on="1"/>
        <pt x="73" y="1165" on="1"/>
        <pt x="549" y="1165" on="1"/>
        <pt x="802" y="1165" on="0"/>
        <pt x="1072" y="1002" on="0"/>
        <pt x="1072" y="841" on="1"/>
        <pt x="1072" y="753" on="0"/>
        <pt x="995" y="613" on="0"/>
        <pt x="904" y="580" on="1"/>
      </contour>
      <contour>
        <pt x="433" y="875" on="1"/>
        <pt x="433" y="685" on="1"/>
        <pt x="572" y="685" on="1"/>
        <pt x="649" y="685" on="0"/>
        <pt x="712" y="728" on="0"/>
        <pt x="712" y="776" on="1"/>
        <pt x="712" y="830" on="0"/>
        <pt x="654" y="875" on="0"/>
        <pt x="588" y="875" on="1"/>
      </contour>
      <contour>
        <pt x="649" y="289" on="0"/>
        <pt x="711" y="315" on="0"/>
        <pt x="737" y="352" on="0"/>
        <pt x="737" y="369" on="1"/>
        <pt x="737" y="411" on="0"/>
        <pt x="680" y="453" on="0"/>
        <pt x="614" y="453" on="1"/>
        <pt x="433" y="453" on="1"/>
        <pt x="433" y="289" on="1"/>
        <pt x="599" y="289" on="1"/>
      </contour>
    </TTGlyph>
    <TTGlyph name="C" xMin="62" yMin="-20" xMax="1298" yMax="1477">
      <contour>
        <pt x="1290" y="346" on="0"/>
        <pt x="1136" y="109" on="0"/>
        <pt x="864" y="-20" on="0"/>
        <pt x="686" y="-20" on="1"/>
        <pt x="490" y="-20" on="0"/>
        <pt x="209" y="152" on="0"/>
        <pt x="62" y="475" on="0"/>
        <pt x="62" y="697" on="1"/>
        <pt x="62" y="758" on="1"/>
        <pt x="62" y="978" on="0"/>
        <pt x="215" y="1303" on="0"/>
        <pt x="494" y="1477" on="0"/>
        <pt x="678" y="1477" on="1"/>
        <pt x="866" y="1477" on="0"/>
        <pt x="1136" y="1341" on="0"/>
        <pt x="1285" y="1100" on="0"/>
        <pt x="1298" y="943" on="1"/>
        <pt x="926" y="943" on="1"/>
        <pt x="925" y="1061" on="0"/>
        <pt x="811" y="1170" on="0"/>
        <pt x="678" y="1170" on="1"/>
        <pt x="595" y="1170" on="0"/>
        <pt x="493" y="1093" on="0"/>
        <pt x="442" y="914" on="0"/>
        <pt x="442" y="760" on="1"/>
        <pt x="442" y="697" on="1"/>
        <pt x="442" y="537" on="0"/>
        <pt x="489" y="361" on="0"/>
        <pt x="593" y="288" on="0"/>
        <pt x="686" y="288" on="1"/>
        <pt x="801" y="288" on="0"/>
        <pt x="923" y="390" on="0"/>
        <pt x="924" y="502" on="1"/>
        <pt x="1295" y="502" on="1"/>
      </contour>
    </TTGlyph>
    <TTGlyph name="C.smcp" xMin="41" yMin="-16" xMax="1129" yMax="1182">
      <contour>
        <pt x="1123" y="284" on="0"/>
        <pt x="985" y="89" on="0"/>
        <pt x="744" y="-16" on="0"/>
        <pt x="589" y="-16" on="1"/>
        <pt x="414" y="-16" on="0"/>
        <pt x="168" y="123" on="0"/>
        <pt x="41" y="387" on="0"/>
        <pt x="41" y="572" on="1"/>
        <pt x="41" y="592" on="1"/>
        <pt x="41" y="774" on="0"/>
        <pt x="174" y="1041" on="0"/>
        <pt x="416" y="1182" on="0"/>
        <pt x="576" y="1182" on="1"/>
        <pt x="744" y="1182" on="0"/>
        <pt x="985" y="1068" on="0"/>
        <pt x="1117" y="867" on="0"/>
        <pt x="1129" y="738" on="1"/>
        <pt x="770" y="738" on="1"/>
        <pt x="773" y="777" on="0"/>
        <pt x="735" y="847" on="0"/>
        <pt x="646" y="892" on="0"/>
        <pt x="576" y="892" on="1"/>
        <pt x="487" y="892" on="0"/>
        <pt x="401" y="753" on="0"/>
        <pt x="401" y="593" on="1"/>
        <pt x="401" y="572" on="1"/>
        <pt x="401" y="454" on="0"/>
        <pt x="437" y="326" on="0"/>
        <pt x="518" y="273" on="0"/>
        <pt x="589" y="273" on="1"/>
        <pt x="675" y="273" on="0"/>
        <pt x="773" y="340" on="0"/>
        <pt x="768" y="415" on="1"/>
        <pt x="1126" y="415" on="1"/>
      </contour>
    </TTGlyph>
    <TTGlyph name="C.ss06" xMin="58" yMin="-21" xMax="1319" yMax="1477">
      <contour>
        <pt x="1295" y="241" on="0"/>
        <pt x="979" y="-21" on="0"/>
        <pt x="700" y="-21" on="1"/>
        <pt x="504" y="-21" on="0"/>
        <pt x="215" y="154" on="0"/>
        <pt x="58" y="483" on="0"/>
        <pt x="58" y="709" on="1"/>
        <pt x="58" y="746" on="1"/>
        <pt x="58" y="969" on="0"/>
        <pt x="225" y="1300" on="0"/>
        <pt x="519" y="1477" on="0"/>
        <pt x="704" y="1477" on="1"/>
        <pt x="988" y="1477" on="0"/>
        <pt x="1296" y="1198" on="0"/>
        <pt x="1319" y="943" on="1"/>
        <pt x="947" y="943" on="1"/>
        <pt x="937" y="1026" on="0"/>
        <pt x="891" y="1125" on="0"/>
        <pt x="792" y="1175" on="0"/>
        <pt x="704" y="1175" on="1"/>
        <pt x="623" y="1175" on="0"/>
        <pt x="500" y="1078" on="0"/>
        <pt x="432" y="886" on="0"/>
        <pt x="432" y="748" on="1"/>
        <pt x="432" y="709" on="1"/>
        <pt x="432" y="496" on="0"/>
        <pt x="563" y="280" on="0"/>
        <pt x="700" y="280" on="1"/>
        <pt x="812" y="280" on="0"/>
        <pt x="932" y="394" on="0"/>
        <pt x="944" y="502" on="1"/>
        <pt x="1316" y="502" on="1"/>
      </contour>
    </TTGlyph>
    <TTGlyph name="Ccedilla" xMin="62" yMin="-480" xMax="1298" yMax="1477">
      <component glyphName=".ttfautohint" x="62" y="0" flags="0x0"/>
      <component glyphName="C" x="0" y="0" flags="0x0"/>
      <component glyphName="cedilla" x="442" y="3" flags="0x4"/>
    </TTGlyph>
    <TTGlyph name="Ccedilla.smcp" xMin="41" yMin="-475" xMax="1129" yMax="1182">
      <component glyphName=".ttfautohint" x="41" y="0" flags="0x0"/>
      <component glyphName="C.smcp" x="0" y="0" flags="0x0"/>
      <component glyphName="cedilla" x="348" y="8" flags="0x4"/>
    </TTGlyph>
    <TTGlyph name="D" xMin="102" yMin="0" xMax="1259" yMax="1456">
      <contour>
        <pt x="775" y="1456" on="0"/>
        <pt x="1084" y="1276" on="0"/>
        <pt x="1259" y="956" on="0"/>
        <pt x="1259" y="755" on="1"/>
        <pt x="1259" y="700" on="1"/>
        <pt x="1259" y="499" on="0"/>
        <pt x="1085" y="180" on="0"/>
        <pt x="779" y="0" on="0"/>
        <pt x="588" y="0" on="1"/>
        <pt x="102" y="0" on="1"/>
        <pt x="102" y="1456" on="1"/>
        <pt x="579" y="1456" on="1"/>
      </contour>
      <contour>
        <pt x="877" y="757" on="1"/>
        <pt x="877" y="953" on="0"/>
        <pt x="725" y="1154" on="0"/>
        <pt x="579" y="1154" on="1"/>
        <pt x="475" y="1154" on="1"/>
        <pt x="475" y="301" on="1"/>
        <pt x="588" y="301" on="1"/>
        <pt x="727" y="301" on="0"/>
        <pt x="877" y="501" on="0"/>
        <pt x="877" y="700" on="1"/>
      </contour>
    </TTGlyph>
    <TTGlyph name="D.smcp" xMin="73" yMin="0" xMax="1091" yMax="1165">
      <contour>
        <pt x="667" y="1165" on="0"/>
        <pt x="938" y="1017" on="0"/>
        <pt x="1091" y="758" on="0"/>
        <pt x="1091" y="599" on="1"/>
        <pt x="1091" y="565" on="1"/>
        <pt x="1091" y="407" on="0"/>
        <pt x="938" y="148" on="0"/>
        <pt x="674" y="0" on="0"/>
        <pt x="513" y="0" on="1"/>
        <pt x="73" y="0" on="1"/>
        <pt x="73" y="1165" on="1"/>
        <pt x="498" y="1165" on="1"/>
      </contour>
      <contour>
        <pt x="729" y="601" on="1"/>
        <pt x="729" y="699" on="0"/>
        <pt x="690" y="817" on="0"/>
        <pt x="590" y="875" on="0"/>
        <pt x="498" y="875" on="1"/>
        <pt x="433" y="875" on="1"/>
        <pt x="433" y="289" on="1"/>
        <pt x="513" y="289" on="1"/>
        <pt x="598" y="289" on="0"/>
        <pt x="691" y="343" on="0"/>
        <pt x="729" y="461" on="0"/>
        <pt x="729" y="565" on="1"/>
      </contour>
    </TTGlyph>
    <TTGlyph name="D.ss06" xMin="98" yMin="0" xMax="1306" yMax="1456">
      <contour>
        <pt x="788" y="1456" on="0"/>
        <pt x="1125" y="1267" on="0"/>
        <pt x="1306" y="944" on="0"/>
        <pt x="1306" y="749" on="1"/>
        <pt x="1306" y="706" on="1"/>
        <pt x="1306" y="511" on="0"/>
        <pt x="1126" y="189" on="0"/>
        <pt x="792" y="0" on="0"/>
        <pt x="571" y="0" on="1"/>
        <pt x="98" y="0" on="1"/>
        <pt x="98" y="1456" on="1"/>
        <pt x="563" y="1456" on="1"/>
      </contour>
      <contour>
        <pt x="933" y="751" on="1"/>
        <pt x="933" y="926" on="0"/>
        <pt x="749" y="1154" on="0"/>
        <pt x="535" y="1154" on="1"/>
        <pt x="471" y="1154" on="1"/>
        <pt x="471" y="301" on="1"/>
        <pt x="543" y="301" on="1"/>
        <pt x="750" y="301" on="0"/>
        <pt x="933" y="528" on="0"/>
        <pt x="933" y="706" on="1"/>
      </contour>
    </TTGlyph>
    <TTGlyph name="E" xMin="102" yMin="0" xMax="1120" yMax="1456">
      <contour>
        <pt x="475" y="1154" on="1"/>
        <pt x="475" y="891" on="1"/>
        <pt x="1016" y="891" on="1"/>
        <pt x="1016" y="601" on="1"/>
        <pt x="475" y="601" on="1"/>
        <pt x="475" y="301" on="1"/>
        <pt x="1116" y="301" on="1"/>
        <pt x="1116" y="0" on="1"/>
        <pt x="102" y="0" on="1"/>
        <pt x="102" y="1456" on="1"/>
        <pt x="1120" y="1456" on="1"/>
        <pt x="1120" y="1154" on="1"/>
      </contour>
    </TTGlyph>
    <TTGlyph name="E.smcp" xMin="73" yMin="0" xMax="972" yMax="1165">
      <contour>
        <pt x="433" y="875" on="1"/>
        <pt x="433" y="747" on="1"/>
        <pt x="880" y="747" on="1"/>
        <pt x="880" y="457" on="1"/>
        <pt x="433" y="457" on="1"/>
        <pt x="433" y="289" on="1"/>
        <pt x="965" y="289" on="1"/>
        <pt x="965" y="0" on="1"/>
        <pt x="73" y="0" on="1"/>
        <pt x="73" y="1165" on="1"/>
        <pt x="972" y="1165" on="1"/>
        <pt x="972" y="875" on="1"/>
      </contour>
    </TTGlyph>
    <TTGlyph name="Eacute" xMin="102" yMin="0" xMax="1120" yMax="1842">
      <component glyphName=".ttfautohint" x="102" y="0" flags="0x0"/>
      <component glyphName="E" x="0" y="0" flags="0x0"/>
      <component glyphName="acutecomb" x="1163" y="306" flags="0x4"/>
    </TTGlyph>
    <TTGlyph name="Eacute.smcp" xMin="73" yMin="0" xMax="972" yMax="1566">
      <component glyphName=".ttfautohint" x="73" y="0" flags="0x0"/>
      <component glyphName="E.smcp" x="0" y="0" flags="0x0"/>
      <component glyphName="acutecomb" x="1081" y="30" flags="0x4"/>
    </TTGlyph>
    <TTGlyph name="Ecircumflex" xMin="102" yMin="0" xMax="1120" yMax="1841">
      <component glyphName=".ttfautohint" x="102" y="0" flags="0x0"/>
      <component glyphName="E" x="0" y="0" flags="0x0"/>
      <component glyphName="circumflex" x="126" y="306" flags="0x4"/>
    </TTGlyph>
    <TTGlyph name="Ecircumflex.smcp" xMin="73" yMin="0" xMax="1009" yMax="1565">
      <component glyphName=".ttfautohint" x="73" y="0" flags="0x0"/>
      <component glyphName="E.smcp" x="0" y="0" flags="0x0"/>
      <component glyphName="circumflex" x="44" y="30" flags="0x4"/>
    </TTGlyph>
    <TTGlyph name="Edieresis" xMin="102" yMin="0" xMax="1120" yMax="1811">
      <component glyphName=".ttfautohint" x="102" y="0" flags="0x0"/>
      <component glyphName="E" x="0" y="0" flags="0x0"/>
      <component glyphName="dieresis" x="127" y="306" flags="0x4"/>
    </TTGlyph>
    <TTGlyph name="Edieresis.smcp" xMin="73" yMin="0" xMax="987" yMax="1535">
      <component glyphName=".ttfautohint" x="73" y="0" flags="0x0"/>
      <component glyphName="E.smcp" x="0" y="0" flags="0x0"/>
      <component glyphName="dieresis" x="45" y="30" flags="0x4"/>
    </TTGlyph>
    <TTGlyph name="Egrave" xMin="102" yMin="0" xMax="1120" yMax="1842">
      <component glyphName=".ttfautohint" x="102" y="0" flags="0x0"/>
      <component glyphName="E" x="0" y="0" flags="0x0"/>
      <component glyphName="gravecomb" x="1199" y="306" flags="0x4"/>
    </TTGlyph>
    <TTGlyph name="Egrave.smcp" xMin="73" yMin="0" xMax="972" yMax="1566">
      <component glyphName=".ttfautohint" x="73" y="0" flags="0x0"/>
      <component glyphName="E.smcp" x="0" y="0" flags="0x0"/>
      <component glyphName="gravecomb" x="1117" y="30" flags="0x4"/>
    </TTGlyph>
    <TTGlyph name="Eth" xMin="-35" yMin="0" xMax="1259" yMax="1456">
      <component glyphName=".ttfautohint" x="0" y="0" flags="0x0"/>
      <component glyphName="D" x="0" y="0" flags="0x0"/>
      <component glyphName="crossbar" x="-172" y="-26" flags="0x4"/>
    </TTGlyph>
    <TTGlyph name="Eth.smcp" xMin="-139" yMin="0" xMax="1091" yMax="1165">
      <component glyphName=".ttfautohint" x="0" y="0" flags="0x0"/>
      <component glyphName="D.smcp" x="0" y="0" flags="0x0"/>
      <component glyphName="crossbar" x="-276" y="-178" flags="0x4"/>
    </TTGlyph>
    <TTGlyph name="Euro" xMin="84" yMin="-19" xMax="1121" yMax="1475">
      <contour>
        <pt x="1002" y="282" on="0"/>
        <pt x="1075" y="310" on="1"/>
        <pt x="1121" y="11" on="1"/>
        <pt x="992" y="-19" on="0"/>
        <pt x="855" y="-19" on="1"/>
        <pt x="681" y="-19" on="0"/>
        <pt x="411" y="99" on="0"/>
        <pt x="253" y="332" on="0"/>
        <pt x="247" y="499" on="1"/>
        <pt x="84" y="499" on="1"/>
        <pt x="84" y="668" on="1"/>
        <pt x="247" y="668" on="1"/>
        <pt x="247" y="787" on="1"/>
        <pt x="84" y="787" on="1"/>
        <pt x="84" y="954" on="1"/>
        <pt x="250" y="954" on="1"/>
        <pt x="266" y="1121" on="0"/>
        <pt x="434" y="1355" on="0"/>
        <pt x="712" y="1475" on="0"/>
        <pt x="891" y="1475" on="1"/>
        <pt x="1000" y="1475" on="0"/>
        <pt x="1121" y="1444" on="1"/>
        <pt x="1075" y="1144" on="1"/>
        <pt x="1041" y="1157" on="0"/>
        <pt x="955" y="1174" on="0"/>
        <pt x="917" y="1174" on="1"/>
        <pt x="786" y="1174" on="0"/>
        <pt x="642" y="1072" on="0"/>
        <pt x="626" y="954" on="1"/>
        <pt x="923" y="954" on="1"/>
        <pt x="923" y="787" on="1"/>
        <pt x="621" y="787" on="1"/>
        <pt x="621" y="668" on="1"/>
        <pt x="923" y="668" on="1"/>
        <pt x="923" y="499" on="1"/>
        <pt x="622" y="499" on="1"/>
        <pt x="626" y="409" on="0"/>
        <pt x="697" y="314" on="0"/>
        <pt x="815" y="282" on="0"/>
        <pt x="906" y="282" on="1"/>
      </contour>
    </TTGlyph>
    <TTGlyph name="Euro.smcp" xMin="73" yMin="-16" xMax="974" yMax="1186">
      <contour>
        <pt x="795" y="274" on="0"/>
        <pt x="861" y="283" on="0"/>
        <pt x="911" y="292" on="1"/>
        <pt x="953" y="299" on="1"/>
        <pt x="972" y="15" on="1"/>
        <pt x="910" y="-1" on="0"/>
        <pt x="813" y="-16" on="0"/>
        <pt x="754" y="-16" on="1"/>
        <pt x="613" y="-16" on="0"/>
        <pt x="393" y="74" on="0"/>
        <pt x="252" y="238" on="0"/>
        <pt x="227" y="348" on="1"/>
        <pt x="73" y="348" on="1"/>
        <pt x="73" y="548" on="1"/>
        <pt x="214" y="548" on="1"/>
        <pt x="214" y="603" on="1"/>
        <pt x="73" y="603" on="1"/>
        <pt x="73" y="804" on="1"/>
        <pt x="228" y="804" on="1"/>
        <pt x="254" y="922" on="0"/>
        <pt x="393" y="1094" on="0"/>
        <pt x="612" y="1186" on="0"/>
        <pt x="752" y="1186" on="1"/>
        <pt x="816" y="1186" on="0"/>
        <pt x="915" y="1170" on="0"/>
        <pt x="974" y="1151" on="1"/>
        <pt x="953" y="867" on="1"/>
        <pt x="890" y="883" on="0"/>
        <pt x="807" y="896" on="0"/>
        <pt x="752" y="896" on="1"/>
        <pt x="635" y="896" on="0"/>
        <pt x="596" y="804" on="1"/>
        <pt x="906" y="804" on="1"/>
        <pt x="906" y="603" on="1"/>
        <pt x="574" y="603" on="1"/>
        <pt x="574" y="548" on="1"/>
        <pt x="906" y="548" on="1"/>
        <pt x="906" y="348" on="1"/>
        <pt x="598" y="348" on="1"/>
        <pt x="618" y="311" on="0"/>
        <pt x="694" y="274" on="0"/>
        <pt x="754" y="274" on="1"/>
      </contour>
    </TTGlyph>
    <TTGlyph name="F" xMin="102" yMin="0" xMax="1088" yMax="1456">
      <contour>
        <pt x="475" y="1154" on="1"/>
        <pt x="475" y="864" on="1"/>
        <pt x="1037" y="864" on="1"/>
        <pt x="1037" y="563" on="1"/>
        <pt x="475" y="563" on="1"/>
        <pt x="475" y="0" on="1"/>
        <pt x="102" y="0" on="1"/>
        <pt x="102" y="1456" on="1"/>
        <pt x="1088" y="1456" on="1"/>
        <pt x="1088" y="1154" on="1"/>
      </contour>
    </TTGlyph>
    <TTGlyph name="F.smcp" xMin="73" yMin="0" xMax="940" yMax="1165">
      <contour>
        <pt x="433" y="875" on="1"/>
        <pt x="433" y="714" on="1"/>
        <pt x="907" y="714" on="1"/>
        <pt x="907" y="424" on="1"/>
        <pt x="433" y="424" on="1"/>
        <pt x="433" y="0" on="1"/>
        <pt x="73" y="0" on="1"/>
        <pt x="73" y="1165" on="1"/>
        <pt x="940" y="1165" on="1"/>
        <pt x="940" y="875" on="1"/>
      </contour>
    </TTGlyph>
    <TTGlyph name="G" xMin="77" yMin="-20" xMax="1311" yMax="1477">
      <contour>
        <pt x="1267" y="129" on="0"/>
        <pt x="1105" y="40" on="0"/>
        <pt x="868" y="-20" on="0"/>
        <pt x="722" y="-20" on="1"/>
        <pt x="525" y="-20" on="0"/>
        <pt x="235" y="145" on="0"/>
        <pt x="77" y="465" on="0"/>
        <pt x="77" y="690" on="1"/>
        <pt x="77" y="765" on="1"/>
        <pt x="77" y="988" on="0"/>
        <pt x="238" y="1310" on="0"/>
        <pt x="522" y="1477" on="0"/>
        <pt x="703" y="1477" on="1"/>
        <pt x="998" y="1477" on="0"/>
        <pt x="1287" y="1207" on="0"/>
        <pt x="1309" y="967" on="1"/>
        <pt x="952" y="967" on="1"/>
        <pt x="937" y="1076" on="0"/>
        <pt x="830" y="1176" on="0"/>
        <pt x="717" y="1176" on="1"/>
        <pt x="597" y="1176" on="0"/>
        <pt x="456" y="972" on="0"/>
        <pt x="456" y="767" on="1"/>
        <pt x="456" y="690" on="1"/>
        <pt x="456" y="480" on="0"/>
        <pt x="595" y="281" on="0"/>
        <pt x="751" y="281" on="1"/>
        <pt x="818" y="281" on="0"/>
        <pt x="913" y="310" on="0"/>
        <pt x="937" y="330" on="1"/>
        <pt x="937" y="528" on="1"/>
        <pt x="706" y="528" on="1"/>
        <pt x="706" y="792" on="1"/>
        <pt x="1311" y="792" on="1"/>
        <pt x="1311" y="176" on="1"/>
      </contour>
    </TTGlyph>
    <TTGlyph name="G.smcp" xMin="57" yMin="-16" xMax="1142" yMax="1182">
      <contour>
        <pt x="1102" y="97" on="0"/>
        <pt x="954" y="29" on="0"/>
        <pt x="743" y="-16" on="0"/>
        <pt x="619" y="-16" on="1"/>
        <pt x="446" y="-16" on="0"/>
        <pt x="193" y="116" on="0"/>
        <pt x="57" y="374" on="0"/>
        <pt x="57" y="557" on="1"/>
        <pt x="57" y="607" on="1"/>
        <pt x="57" y="787" on="0"/>
        <pt x="202" y="1047" on="0"/>
        <pt x="451" y="1182" on="0"/>
        <pt x="604" y="1182" on="1"/>
        <pt x="869" y="1182" on="0"/>
        <pt x="1123" y="956" on="0"/>
        <pt x="1141" y="752" on="1"/>
        <pt x="799" y="752" on="1"/>
        <pt x="791" y="806" on="0"/>
        <pt x="752" y="867" on="0"/>
        <pt x="680" y="892" on="0"/>
        <pt x="619" y="892" on="1"/>
        <pt x="531" y="892" on="0"/>
        <pt x="416" y="756" on="0"/>
        <pt x="416" y="609" on="1"/>
        <pt x="416" y="557" on="1"/>
        <pt x="416" y="455" on="0"/>
        <pt x="462" y="331" on="0"/>
        <pt x="564" y="273" on="0"/>
        <pt x="651" y="273" on="1"/>
        <pt x="693" y="273" on="0"/>
        <pt x="764" y="284" on="0"/>
        <pt x="781" y="292" on="1"/>
        <pt x="781" y="409" on="1"/>
        <pt x="592" y="409" on="1"/>
        <pt x="592" y="656" on="1"/>
        <pt x="1142" y="656" on="1"/>
        <pt x="1142" y="134" on="1"/>
      </contour>
    </TTGlyph>
    <TTGlyph name="G.ss06" xMin="58" yMin="-21" xMax="1319" yMax="1477">
      <contour>
        <pt x="1278" y="128" on="0"/>
        <pt x="1126" y="39" on="0"/>
        <pt x="906" y="-21" on="0"/>
        <pt x="772" y="-21" on="1"/>
        <pt x="565" y="-21" on="0"/>
        <pt x="240" y="162" on="0"/>
        <pt x="58" y="485" on="0"/>
        <pt x="58" y="687" on="1"/>
        <pt x="58" y="754" on="1"/>
        <pt x="58" y="965" on="0"/>
        <pt x="225" y="1294" on="0"/>
        <pt x="524" y="1477" on="0"/>
        <pt x="715" y="1477" on="1"/>
        <pt x="902" y="1477" on="0"/>
        <pt x="1163" y="1350" on="0"/>
        <pt x="1305" y="1121" on="0"/>
        <pt x="1318" y="967" on="1"/>
        <pt x="959" y="967" on="1"/>
        <pt x="948" y="1070" on="0"/>
        <pt x="826" y="1175" on="0"/>
        <pt x="729" y="1175" on="1"/>
        <pt x="639" y="1175" on="0"/>
        <pt x="504" y="1071" on="0"/>
        <pt x="432" y="882" on="0"/>
        <pt x="432" y="756" on="1"/>
        <pt x="432" y="687" on="1"/>
        <pt x="432" y="570" on="0"/>
        <pt x="511" y="386" on="0"/>
        <pt x="665" y="280" on="0"/>
        <pt x="772" y="280" on="1"/>
        <pt x="837" y="280" on="0"/>
        <pt x="926" y="297" on="0"/>
        <pt x="945" y="313" on="1"/>
        <pt x="945" y="505" on="1"/>
        <pt x="743" y="505" on="1"/>
        <pt x="743" y="771" on="1"/>
        <pt x="1319" y="771" on="1"/>
        <pt x="1319" y="175" on="1"/>
      </contour>
    </TTGlyph>
    <TTGlyph name="H" xMin="102" yMin="0" xMax="1333" yMax="1456">
      <contour>
        <pt x="1333" y="1456" on="1"/>
        <pt x="1333" y="0" on="1"/>
        <pt x="961" y="0" on="1"/>
        <pt x="961" y="590" on="1"/>
        <pt x="475" y="590" on="1"/>
        <pt x="475" y="0" on="1"/>
        <pt x="102" y="0" on="1"/>
        <pt x="102" y="1456" on="1"/>
        <pt x="475" y="1456" on="1"/>
        <pt x="475" y="891" on="1"/>
        <pt x="961" y="891" on="1"/>
        <pt x="961" y="1456" on="1"/>
      </contour>
    </TTGlyph>
    <TTGlyph name="H.smcp" xMin="73" yMin="0" xMax="1156" yMax="1165">
      <contour>
        <pt x="1156" y="1165" on="1"/>
        <pt x="1156" y="0" on="1"/>
        <pt x="798" y="0" on="1"/>
        <pt x="798" y="424" on="1"/>
        <pt x="433" y="424" on="1"/>
        <pt x="433" y="0" on="1"/>
        <pt x="73" y="0" on="1"/>
        <pt x="73" y="1165" on="1"/>
        <pt x="433" y="1165" on="1"/>
        <pt x="433" y="714" on="1"/>
        <pt x="798" y="714" on="1"/>
        <pt x="798" y="1165" on="1"/>
      </contour>
    </TTGlyph>
    <TTGlyph name="I" xMin="128" yMin="0" xMax="499" yMax="1456">
      <contour>
        <pt x="128" y="0" on="1"/>
        <pt x="128" y="1456" on="1"/>
        <pt x="499" y="1456" on="1"/>
        <pt x="499" y="0" on="1"/>
      </contour>
    </TTGlyph>
    <TTGlyph name="I.smcp" xMin="98" yMin="0" xMax="457" yMax="1165">
      <contour>
        <pt x="98" y="0" on="1"/>
        <pt x="98" y="1165" on="1"/>
        <pt x="457" y="1165" on="1"/>
        <pt x="457" y="0" on="1"/>
      </contour>
    </TTGlyph>
    <TTGlyph name="Iacute" xMin="128" yMin="0" xMax="705" yMax="1842">
      <component glyphName=".ttfautohint" x="128" y="0" flags="0x0"/>
      <component glyphName="I" x="0" y="0" flags="0x0"/>
      <component glyphName="acutecomb" x="828" y="306" flags="0x4"/>
    </TTGlyph>
    <TTGlyph name="Iacute.smcp" xMin="98" yMin="0" xMax="671" yMax="1566">
      <component glyphName=".ttfautohint" x="98" y="0" flags="0x0"/>
      <component glyphName="I.smcp" x="0" y="0" flags="0x0"/>
      <component glyphName="acutecomb" x="794" y="30" flags="0x4"/>
    </TTGlyph>
    <TTGlyph name="Icircumflex" xMin="-123" yMin="0" xMax="756" yMax="1841">
      <component glyphName=".ttfautohint" x="0" y="0" flags="0x0"/>
      <component glyphName="I" x="0" y="0" flags="0x0"/>
      <component glyphName="circumflex" x="-209" y="306" flags="0x4"/>
    </TTGlyph>
    <TTGlyph name="Icircumflex.smcp" xMin="-157" yMin="0" xMax="722" yMax="1565">
      <component glyphName=".ttfautohint" x="0" y="0" flags="0x0"/>
      <component glyphName="I.smcp" x="0" y="0" flags="0x0"/>
      <component glyphName="circumflex" x="-243" y="30" flags="0x4"/>
    </TTGlyph>
    <TTGlyph name="Idieresis" xMin="-112" yMin="0" xMax="734" yMax="1811">
      <component glyphName=".ttfautohint" x="0" y="0" flags="0x0"/>
      <component glyphName="I" x="0" y="0" flags="0x0"/>
      <component glyphName="dieresis" x="-208" y="306" flags="0x4"/>
    </TTGlyph>
    <TTGlyph name="Idieresis.smcp" xMin="-146" yMin="0" xMax="700" yMax="1535">
      <component glyphName=".ttfautohint" x="0" y="0" flags="0x0"/>
      <component glyphName="I.smcp" x="0" y="0" flags="0x0"/>
      <component glyphName="dieresis" x="-242" y="30" flags="0x4"/>
    </TTGlyph>
    <TTGlyph name="Igrave" xMin="-53" yMin="0" xMax="521" yMax="1842">
      <component glyphName=".ttfautohint" x="0" y="0" flags="0x0"/>
      <component glyphName="I" x="0" y="0" flags="0x0"/>
      <component glyphName="gravecomb" x="864" y="306" flags="0x4"/>
    </TTGlyph>
    <TTGlyph name="Igrave.smcp" xMin="-87" yMin="0" xMax="487" yMax="1566">
      <component glyphName=".ttfautohint" x="0" y="0" flags="0x0"/>
      <component glyphName="I.smcp" x="0" y="0" flags="0x0"/>
      <component glyphName="gravecomb" x="830" y="30" flags="0x4"/>
    </TTGlyph>
    <TTGlyph name="J" xMin="35" yMin="-20" xMax="1050" yMax="1456">
      <contour>
        <pt x="1050" y="1456" on="1"/>
        <pt x="1050" y="467" on="1"/>
        <pt x="1050" y="324" on="0"/>
        <pt x="916" y="102" on="0"/>
        <pt x="684" y="-20" on="0"/>
        <pt x="543" y="-20" on="1"/>
        <pt x="391" y="-20" on="0"/>
        <pt x="163" y="82" on="0"/>
        <pt x="35" y="293" on="0"/>
        <pt x="35" y="451" on="1"/>
        <pt x="409" y="451" on="1"/>
        <pt x="409" y="383" on="0"/>
        <pt x="438" y="309" on="0"/>
        <pt x="495" y="281" on="0"/>
        <pt x="543" y="281" on="1"/>
        <pt x="608" y="281" on="0"/>
        <pt x="678" y="380" on="0"/>
        <pt x="678" y="467" on="1"/>
        <pt x="678" y="1456" on="1"/>
      </contour>
    </TTGlyph>
    <TTGlyph name="J.smcp" xMin="27" yMin="-16" xMax="920" yMax="1165">
      <contour>
        <pt x="920" y="1165" on="1"/>
        <pt x="920" y="438" on="1"/>
        <pt x="920" y="298" on="0"/>
        <pt x="800" y="92" on="0"/>
        <pt x="599" y="-16" on="0"/>
        <pt x="479" y="-16" on="1"/>
        <pt x="264" y="-16" on="0"/>
        <pt x="27" y="192" on="0"/>
        <pt x="27" y="405" on="1"/>
        <pt x="387" y="405" on="1"/>
        <pt x="387" y="336" on="0"/>
        <pt x="427" y="273" on="0"/>
        <pt x="479" y="273" on="1"/>
        <pt x="510" y="273" on="0"/>
        <pt x="546" y="305" on="0"/>
        <pt x="561" y="376" on="0"/>
        <pt x="561" y="438" on="1"/>
        <pt x="561" y="1165" on="1"/>
      </contour>
    </TTGlyph>
    <TTGlyph name="K" xMin="102" yMin="0" xMax="1344" yMax="1456">
      <contour>
        <pt x="866" y="809" on="1"/>
        <pt x="1338" y="0" on="1"/>
        <pt x="896" y="0" on="1"/>
        <pt x="614" y="512" on="1"/>
        <pt x="475" y="359" on="1"/>
        <pt x="475" y="0" on="1"/>
        <pt x="102" y="0" on="1"/>
        <pt x="102" y="1456" on="1"/>
        <pt x="475" y="1456" on="1"/>
        <pt x="475" y="832" on="1"/>
        <pt x="593" y="1023" on="1"/>
        <pt x="882" y="1456" on="1"/>
        <pt x="1344" y="1456" on="1"/>
      </contour>
    </TTGlyph>
    <TTGlyph name="K.alt" xMin="98" yMin="0" xMax="1354" yMax="1456">
      <contour>
        <pt x="638" y="554" on="1"/>
        <pt x="471" y="554" on="1"/>
        <pt x="471" y="0" on="1"/>
        <pt x="98" y="0" on="1"/>
        <pt x="98" y="1456" on="1"/>
        <pt x="471" y="1456" on="1"/>
        <pt x="471" y="915" on="1"/>
        <pt x="606" y="915" on="1"/>
        <pt x="852" y="1456" on="1"/>
        <pt x="1303" y="1456" on="1"/>
        <pt x="928" y="789" on="1"/>
        <pt x="1354" y="0" on="1"/>
        <pt x="914" y="0" on="1"/>
      </contour>
    </TTGlyph>
    <TTGlyph name="K.alt2" xMin="98" yMin="0" xMax="1324" yMax="1456">
      <contour>
        <pt x="856" y="0" on="1"/>
        <pt x="471" y="605" on="1"/>
        <pt x="471" y="0" on="1"/>
        <pt x="98" y="0" on="1"/>
        <pt x="98" y="1456" on="1"/>
        <pt x="471" y="1456" on="1"/>
        <pt x="471" y="830" on="1"/>
        <pt x="839" y="1456" on="1"/>
        <pt x="1300" y="1456" on="1"/>
        <pt x="820" y="734" on="1"/>
        <pt x="1324" y="0" on="1"/>
      </contour>
    </TTGlyph>
    <TTGlyph name="K.smcp" xMin="73" yMin="0" xMax="1166" yMax="1165">
      <contour>
        <pt x="787" y="643" on="1"/>
        <pt x="1161" y="0" on="1"/>
        <pt x="740" y="0" on="1"/>
        <pt x="541" y="370" on="1"/>
        <pt x="446" y="276" on="1"/>
        <pt x="433" y="318" on="1"/>
        <pt x="433" y="0" on="1"/>
        <pt x="73" y="0" on="1"/>
        <pt x="73" y="1165" on="1"/>
        <pt x="433" y="1165" on="1"/>
        <pt x="433" y="728" on="1"/>
        <pt x="512" y="851" on="1"/>
        <pt x="712" y="1165" on="1"/>
        <pt x="1166" y="1165" on="1"/>
      </contour>
    </TTGlyph>
    <TTGlyph name="L" xMin="102" yMin="0" xMax="1075" yMax="1456">
      <contour>
        <pt x="1075" y="301" on="1"/>
        <pt x="1075" y="0" on="1"/>
        <pt x="102" y="0" on="1"/>
        <pt x="102" y="1456" on="1"/>
        <pt x="475" y="1456" on="1"/>
        <pt x="475" y="301" on="1"/>
      </contour>
    </TTGlyph>
    <TTGlyph name="L.smcp" xMin="73" yMin="0" xMax="928" yMax="1165">
      <contour>
        <pt x="928" y="289" on="1"/>
        <pt x="928" y="0" on="1"/>
        <pt x="73" y="0" on="1"/>
        <pt x="73" y="1165" on="1"/>
        <pt x="433" y="1165" on="1"/>
        <pt x="433" y="289" on="1"/>
      </contour>
    </TTGlyph>
    <TTGlyph name="M" xMin="102" yMin="0" xMax="1691" yMax="1456">
      <contour>
        <pt x="1691" y="0" on="1"/>
        <pt x="1317" y="0" on="1"/>
        <pt x="1317" y="275" on="1"/>
        <pt x="1353" y="1015" on="1"/>
        <pt x="1018" y="0" on="1"/>
        <pt x="774" y="0" on="1"/>
        <pt x="439" y="1014" on="1"/>
        <pt x="476" y="275" on="1"/>
        <pt x="476" y="0" on="1"/>
        <pt x="102" y="0" on="1"/>
        <pt x="102" y="1456" on="1"/>
        <pt x="593" y="1456" on="1"/>
        <pt x="896" y="490" on="1"/>
        <pt x="1199" y="1456" on="1"/>
        <pt x="1691" y="1456" on="1"/>
      </contour>
    </TTGlyph>
    <TTGlyph name="M.smcp" xMin="73" yMin="0" xMax="1472" yMax="1165">
      <contour>
        <pt x="1472" y="0" on="1"/>
        <pt x="1111" y="0" on="1"/>
        <pt x="1111" y="117" on="1"/>
        <pt x="1147" y="785" on="1"/>
        <pt x="886" y="0" on="1"/>
        <pt x="657" y="0" on="1"/>
        <pt x="397" y="777" on="1"/>
        <pt x="434" y="117" on="1"/>
        <pt x="434" y="0" on="1"/>
        <pt x="73" y="0" on="1"/>
        <pt x="73" y="1165" on="1"/>
        <pt x="549" y="1165" on="1"/>
        <pt x="771" y="468" on="1"/>
        <pt x="994" y="1165" on="1"/>
        <pt x="1472" y="1165" on="1"/>
      </contour>
    </TTGlyph>
    <TTGlyph name="N" xMin="102" yMin="0" xMax="1332" yMax="1456">
      <contour>
        <pt x="961" y="0" on="1"/>
        <pt x="475" y="847" on="1"/>
        <pt x="475" y="0" on="1"/>
        <pt x="102" y="0" on="1"/>
        <pt x="102" y="1456" on="1"/>
        <pt x="475" y="1456" on="1"/>
        <pt x="960" y="610" on="1"/>
        <pt x="960" y="1456" on="1"/>
        <pt x="1332" y="1456" on="1"/>
        <pt x="1332" y="0" on="1"/>
      </contour>
    </TTGlyph>
    <TTGlyph name="N.smcp" xMin="73" yMin="0" xMax="1155" yMax="1165">
      <contour>
        <pt x="796" y="0" on="1"/>
        <pt x="433" y="624" on="1"/>
        <pt x="433" y="0" on="1"/>
        <pt x="73" y="0" on="1"/>
        <pt x="73" y="1165" on="1"/>
        <pt x="433" y="1165" on="1"/>
        <pt x="796" y="541" on="1"/>
        <pt x="796" y="1165" on="1"/>
        <pt x="1155" y="1165" on="1"/>
        <pt x="1155" y="0" on="1"/>
      </contour>
    </TTGlyph>
    <TTGlyph name="Ntilde" xMin="102" yMin="0" xMax="1332" yMax="1854">
      <component glyphName=".ttfautohint" x="102" y="0" flags="0x0"/>
      <component glyphName="N" x="0" y="0" flags="0x0"/>
      <component glyphName="tilde" x="224" y="303" flags="0x4"/>
    </TTGlyph>
    <TTGlyph name="Ntilde.smcp" xMin="73" yMin="0" xMax="1155" yMax="1574">
      <component glyphName=".ttfautohint" x="73" y="0" flags="0x0"/>
      <component glyphName="N.smcp" x="0" y="0" flags="0x0"/>
      <component glyphName="tilde" x="122" y="23" flags="0x4"/>
    </TTGlyph>
    <TTGlyph name="O" xMin="62" yMin="-20" xMax="1351" yMax="1476">
      <contour>
        <pt x="1351" y="482" on="0"/>
        <pt x="1187" y="155" on="0"/>
        <pt x="895" y="-20" on="0"/>
        <pt x="708" y="-20" on="1"/>
        <pt x="518" y="-20" on="0"/>
        <pt x="225" y="155" on="0"/>
        <pt x="62" y="482" on="0"/>
        <pt x="62" y="701" on="1"/>
        <pt x="62" y="754" on="1"/>
        <pt x="62" y="973" on="0"/>
        <pt x="225" y="1300" on="0"/>
        <pt x="517" y="1476" on="0"/>
        <pt x="706" y="1476" on="1"/>
        <pt x="893" y="1476" on="0"/>
        <pt x="1186" y="1300" on="0"/>
        <pt x="1351" y="973" on="0"/>
        <pt x="1351" y="754" on="1"/>
        <pt x="1351" y="701" on="1"/>
      </contour>
      <contour>
        <pt x="970" y="958" on="0"/>
        <pt x="833" y="1171" on="0"/>
        <pt x="706" y="1171" on="1"/>
        <pt x="443" y="1171" on="0"/>
        <pt x="443" y="756" on="1"/>
        <pt x="443" y="701" on="1"/>
        <pt x="443" y="499" on="0"/>
        <pt x="576" y="284" on="0"/>
        <pt x="708" y="284" on="1"/>
        <pt x="834" y="284" on="0"/>
        <pt x="970" y="501" on="0"/>
        <pt x="970" y="701" on="1"/>
        <pt x="970" y="756" on="1"/>
      </contour>
    </TTGlyph>
    <TTGlyph name="O.smcp" xMin="41" yMin="-16" xMax="1174" yMax="1181">
      <contour>
        <pt x="1174" y="390" on="0"/>
        <pt x="1029" y="126" on="0"/>
        <pt x="772" y="-16" on="0"/>
        <pt x="609" y="-16" on="1"/>
        <pt x="443" y="-16" on="0"/>
        <pt x="185" y="126" on="0"/>
        <pt x="41" y="389" on="0"/>
        <pt x="41" y="565" on="1"/>
        <pt x="41" y="599" on="1"/>
        <pt x="41" y="775" on="0"/>
        <pt x="184" y="1038" on="0"/>
        <pt x="441" y="1181" on="0"/>
        <pt x="607" y="1181" on="1"/>
        <pt x="770" y="1181" on="0"/>
        <pt x="1028" y="1038" on="0"/>
        <pt x="1174" y="774" on="0"/>
        <pt x="1174" y="599" on="1"/>
        <pt x="1174" y="565" on="1"/>
      </contour>
      <contour>
        <pt x="813" y="740" on="0"/>
        <pt x="704" y="896" on="0"/>
        <pt x="607" y="896" on="1"/>
        <pt x="403" y="896" on="0"/>
        <pt x="403" y="600" on="1"/>
        <pt x="403" y="565" on="1"/>
        <pt x="403" y="425" on="0"/>
        <pt x="505" y="268" on="0"/>
        <pt x="609" y="268" on="1"/>
        <pt x="671" y="268" on="0"/>
        <pt x="764" y="341" on="0"/>
        <pt x="813" y="475" on="0"/>
        <pt x="813" y="565" on="1"/>
        <pt x="813" y="600" on="1"/>
      </contour>
    </TTGlyph>
    <TTGlyph name="O.ss06" xMin="58" yMin="-21" xMax="1420" yMax="1477">
      <contour>
        <pt x="1420" y="508" on="0"/>
        <pt x="1249" y="174" on="0"/>
        <pt x="939" y="-21" on="0"/>
        <pt x="740" y="-21" on="1"/>
        <pt x="539" y="-21" on="0"/>
        <pt x="228" y="174" on="0"/>
        <pt x="58" y="507" on="0"/>
        <pt x="58" y="707" on="1"/>
        <pt x="58" y="749" on="1"/>
        <pt x="58" y="948" on="0"/>
        <pt x="227" y="1281" on="0"/>
        <pt x="537" y="1477" on="0"/>
        <pt x="738" y="1477" on="1"/>
        <pt x="937" y="1477" on="0"/>
        <pt x="1248" y="1281" on="0"/>
        <pt x="1420" y="948" on="0"/>
        <pt x="1420" y="749" on="1"/>
        <pt x="1420" y="707" on="1"/>
      </contour>
      <contour>
        <pt x="1048" y="865" on="0"/>
        <pt x="977" y="1060" on="0"/>
        <pt x="837" y="1178" on="0"/>
        <pt x="738" y="1178" on="1"/>
        <pt x="636" y="1178" on="0"/>
        <pt x="498" y="1060" on="0"/>
        <pt x="432" y="867" on="0"/>
        <pt x="432" y="751" on="1"/>
        <pt x="432" y="707" on="1"/>
        <pt x="432" y="591" on="0"/>
        <pt x="499" y="396" on="0"/>
        <pt x="638" y="277" on="0"/>
        <pt x="740" y="277" on="1"/>
        <pt x="839" y="277" on="0"/>
        <pt x="978" y="396" on="0"/>
        <pt x="1048" y="593" on="0"/>
        <pt x="1048" y="707" on="1"/>
        <pt x="1048" y="751" on="1"/>
      </contour>
    </TTGlyph>
    <TTGlyph name="OE" xMin="91" yMin="-20" xMax="1940" yMax="1476">
      <contour>
        <pt x="1295" y="1154" on="1"/>
        <pt x="1295" y="891" on="1"/>
        <pt x="1836" y="891" on="1"/>
        <pt x="1836" y="601" on="1"/>
        <pt x="1295" y="601" on="1"/>
        <pt x="1295" y="301" on="1"/>
        <pt x="1936" y="301" on="1"/>
        <pt x="1936" y="0" on="1"/>
        <pt x="1019" y="0" on="1"/>
        <pt x="841" y="-20" on="0"/>
        <pt x="731" y="-20" on="1"/>
        <pt x="544" y="-20" on="0"/>
        <pt x="253" y="131" on="0"/>
        <pt x="91" y="401" on="0"/>
        <pt x="91" y="576" on="1"/>
        <pt x="91" y="880" on="1"/>
        <pt x="91" y="1055" on="0"/>
        <pt x="252" y="1325" on="0"/>
        <pt x="542" y="1476" on="0"/>
        <pt x="729" y="1476" on="1"/>
        <pt x="857" y="1476" on="0"/>
        <pt x="1019" y="1456" on="1"/>
        <pt x="1940" y="1456" on="1"/>
        <pt x="1940" y="1154" on="1"/>
      </contour>
      <contour>
        <pt x="450" y="426" on="0"/>
        <pt x="599" y="270" on="0"/>
        <pt x="731" y="270" on="1"/>
        <pt x="819" y="270" on="0"/>
        <pt x="922" y="282" on="1"/>
        <pt x="922" y="1173" on="1"/>
        <pt x="823" y="1186" on="0"/>
        <pt x="729" y="1186" on="1"/>
        <pt x="596" y="1186" on="0"/>
        <pt x="450" y="1033" on="0"/>
        <pt x="450" y="882" on="1"/>
        <pt x="450" y="576" on="1"/>
      </contour>
    </TTGlyph>
    <TTGlyph name="Oacute" xMin="62" yMin="-20" xMax="1351" yMax="1846">
      <component glyphName=".ttfautohint" x="62" y="0" flags="0x0"/>
      <component glyphName="O" x="0" y="0" flags="0x0"/>
      <component glyphName="acutecomb" x="1219" y="310" flags="0x4"/>
    </TTGlyph>
    <TTGlyph name="Oacute.smcp" xMin="41" yMin="-16" xMax="1174" yMax="1566">
      <component glyphName=".ttfautohint" x="41" y="0" flags="0x0"/>
      <component glyphName="O.smcp" x="0" y="0" flags="0x0"/>
      <component glyphName="acutecomb" x="1118" y="30" flags="0x4"/>
    </TTGlyph>
    <TTGlyph name="Ocircumflex" xMin="62" yMin="-20" xMax="1351" yMax="1845">
      <component glyphName=".ttfautohint" x="62" y="0" flags="0x0"/>
      <component glyphName="O" x="0" y="0" flags="0x0"/>
      <component glyphName="circumflex" x="182" y="310" flags="0x4"/>
    </TTGlyph>
    <TTGlyph name="Ocircumflex.smcp" xMin="41" yMin="-16" xMax="1174" yMax="1565">
      <component glyphName=".ttfautohint" x="41" y="0" flags="0x0"/>
      <component glyphName="O.smcp" x="0" y="0" flags="0x0"/>
      <component glyphName="circumflex" x="81" y="30" flags="0x4"/>
    </TTGlyph>
    <TTGlyph name="Odieresis" xMin="62" yMin="-20" xMax="1351" yMax="1815">
      <component glyphName=".ttfautohint" x="62" y="0" flags="0x0"/>
      <component glyphName="O" x="0" y="0" flags="0x0"/>
      <component glyphName="dieresis" x="183" y="310" flags="0x4"/>
    </TTGlyph>
    <TTGlyph name="Odieresis.smcp" xMin="41" yMin="-16" xMax="1174" yMax="1535">
      <component glyphName=".ttfautohint" x="41" y="0" flags="0x0"/>
      <component glyphName="O.smcp" x="0" y="0" flags="0x0"/>
      <component glyphName="dieresis" x="82" y="30" flags="0x4"/>
    </TTGlyph>
    <TTGlyph name="Ograve" xMin="62" yMin="-20" xMax="1351" yMax="1846">
      <component glyphName=".ttfautohint" x="62" y="0" flags="0x0"/>
      <component glyphName="O" x="0" y="0" flags="0x0"/>
      <component glyphName="gravecomb" x="1255" y="310" flags="0x4"/>
    </TTGlyph>
    <TTGlyph name="Ograve.smcp" xMin="41" yMin="-16" xMax="1174" yMax="1566">
      <component glyphName=".ttfautohint" x="41" y="0" flags="0x0"/>
      <component glyphName="O.smcp" x="0" y="0" flags="0x0"/>
      <component glyphName="gravecomb" x="1154" y="30" flags="0x4"/>
    </TTGlyph>
    <TTGlyph name="Oslash" xMin="75" yMin="-95" xMax="1364" yMax="1518">
      <contour>
        <pt x="1252" y="1218" on="0"/>
        <pt x="1364" y="933" on="0"/>
        <pt x="1364" y="754" on="1"/>
        <pt x="1364" y="701" on="1"/>
        <pt x="1364" y="482" on="0"/>
        <pt x="1200" y="155" on="0"/>
        <pt x="908" y="-20" on="0"/>
        <pt x="721" y="-20" on="1"/>
        <pt x="562" y="-20" on="0"/>
        <pt x="430" y="43" on="1"/>
        <pt x="352" y="-95" on="1"/>
        <pt x="136" y="-95" on="1"/>
        <pt x="276" y="152" on="1"/>
        <pt x="179" y="247" on="0"/>
        <pt x="75" y="527" on="0"/>
        <pt x="75" y="701" on="1"/>
        <pt x="75" y="754" on="1"/>
        <pt x="75" y="973" on="0"/>
        <pt x="238" y="1300" on="0"/>
        <pt x="530" y="1476" on="0"/>
        <pt x="719" y="1476" on="1"/>
        <pt x="868" y="1476" on="0"/>
        <pt x="994" y="1419" on="1"/>
        <pt x="1050" y="1518" on="1"/>
        <pt x="1266" y="1518" on="1"/>
        <pt x="1150" y="1314" on="1"/>
      </contour>
      <contour>
        <pt x="456" y="591" on="0"/>
        <pt x="476" y="506" on="1"/>
        <pt x="837" y="1141" on="1"/>
        <pt x="786" y="1171" on="0"/>
        <pt x="719" y="1171" on="1"/>
        <pt x="456" y="1171" on="0"/>
        <pt x="456" y="756" on="1"/>
        <pt x="456" y="701" on="1"/>
      </contour>
      <contour>
        <pt x="983" y="756" on="1"/>
        <pt x="983" y="883" on="0"/>
        <pt x="956" y="971" on="1"/>
        <pt x="588" y="322" on="1"/>
        <pt x="644" y="284" on="0"/>
        <pt x="721" y="284" on="1"/>
        <pt x="847" y="284" on="0"/>
        <pt x="983" y="501" on="0"/>
        <pt x="983" y="701" on="1"/>
      </contour>
    </TTGlyph>
    <TTGlyph name="Oslash.smcp" xMin="36" yMin="-55" xMax="1177" yMax="1223">
      <contour>
        <pt x="1021" y="1016" on="1"/>
        <pt x="1095" y="939" on="0"/>
        <pt x="1174" y="727" on="0"/>
        <pt x="1174" y="599" on="1"/>
        <pt x="1174" y="565" on="1"/>
        <pt x="1174" y="390" on="0"/>
        <pt x="1029" y="126" on="0"/>
        <pt x="772" y="-16" on="0"/>
        <pt x="609" y="-16" on="1"/>
        <pt x="433" y="-16" on="0"/>
        <pt x="301" y="62" on="1"/>
        <pt x="212" y="-55" on="1"/>
        <pt x="36" y="-55" on="1"/>
        <pt x="191" y="150" on="1"/>
        <pt x="119" y="226" on="0"/>
        <pt x="41" y="437" on="0"/>
        <pt x="41" y="565" on="1"/>
        <pt x="41" y="599" on="1"/>
        <pt x="41" y="775" on="0"/>
        <pt x="184" y="1038" on="0"/>
        <pt x="441" y="1181" on="0"/>
        <pt x="607" y="1181" on="1"/>
        <pt x="778" y="1181" on="0"/>
        <pt x="910" y="1103" on="1"/>
        <pt x="1001" y="1223" on="1"/>
        <pt x="1177" y="1223" on="1"/>
      </contour>
      <contour>
        <pt x="403" y="501" on="0"/>
        <pt x="414" y="446" on="1"/>
        <pt x="724" y="856" on="1"/>
        <pt x="675" y="896" on="0"/>
        <pt x="607" y="896" on="1"/>
        <pt x="403" y="896" on="0"/>
        <pt x="403" y="600" on="1"/>
        <pt x="403" y="565" on="1"/>
      </contour>
      <contour>
        <pt x="813" y="667" on="0"/>
        <pt x="799" y="723" on="1"/>
        <pt x="487" y="309" on="1"/>
        <pt x="534" y="268" on="0"/>
        <pt x="609" y="268" on="1"/>
        <pt x="671" y="268" on="0"/>
        <pt x="764" y="341" on="0"/>
        <pt x="813" y="475" on="0"/>
        <pt x="813" y="565" on="1"/>
        <pt x="813" y="600" on="1"/>
      </contour>
    </TTGlyph>
    <TTGlyph name="Otilde" xMin="62" yMin="-20" xMax="1351" yMax="1854">
      <component glyphName=".ttfautohint" x="62" y="0" flags="0x0"/>
      <component glyphName="O" x="0" y="0" flags="0x0"/>
      <component glyphName="tilde" x="202" y="303" flags="0x4"/>
    </TTGlyph>
    <TTGlyph name="Otilde.smcp" xMin="41" yMin="-16" xMax="1174" yMax="1574">
      <component glyphName=".ttfautohint" x="41" y="0" flags="0x0"/>
      <component glyphName="O.smcp" x="0" y="0" flags="0x0"/>
      <component glyphName="tilde" x="101" y="23" flags="0x4"/>
    </TTGlyph>
    <TTGlyph name="P" xMin="102" yMin="0" xMax="1261" yMax="1456">
      <contour>
        <pt x="861" y="1456" on="0"/>
        <pt x="1121" y="1325" on="0"/>
        <pt x="1261" y="1094" on="0"/>
        <pt x="1261" y="948" on="1"/>
        <pt x="1261" y="808" on="0"/>
        <pt x="1121" y="592" on="0"/>
        <pt x="862" y="472" on="0"/>
        <pt x="689" y="472" on="1"/>
        <pt x="475" y="472" on="1"/>
        <pt x="475" y="0" on="1"/>
        <pt x="102" y="0" on="1"/>
        <pt x="102" y="1456" on="1"/>
        <pt x="689" y="1456" on="1"/>
      </contour>
      <contour>
        <pt x="787" y="775" on="0"/>
        <pt x="883" y="868" on="0"/>
        <pt x="883" y="946" on="1"/>
        <pt x="883" y="1036" on="0"/>
        <pt x="785" y="1154" on="0"/>
        <pt x="689" y="1154" on="1"/>
        <pt x="475" y="1154" on="1"/>
        <pt x="475" y="775" on="1"/>
        <pt x="689" y="775" on="1"/>
      </contour>
    </TTGlyph>
    <TTGlyph name="P.smcp" xMin="73" yMin="0" xMax="1091" yMax="1165">
      <contour>
        <pt x="738" y="1165" on="0"/>
        <pt x="967" y="1054" on="0"/>
        <pt x="1091" y="859" on="0"/>
        <pt x="1091" y="735" on="1"/>
        <pt x="1091" y="623" on="0"/>
        <pt x="967" y="445" on="0"/>
        <pt x="738" y="344" on="0"/>
        <pt x="587" y="344" on="1"/>
        <pt x="433" y="344" on="1"/>
        <pt x="433" y="0" on="1"/>
        <pt x="73" y="0" on="1"/>
        <pt x="73" y="1165" on="1"/>
        <pt x="587" y="1165" on="1"/>
      </contour>
      <contour>
        <pt x="658" y="634" on="0"/>
        <pt x="734" y="690" on="0"/>
        <pt x="734" y="733" on="1"/>
        <pt x="734" y="795" on="0"/>
        <pt x="658" y="875" on="0"/>
        <pt x="587" y="875" on="1"/>
        <pt x="433" y="875" on="1"/>
        <pt x="433" y="634" on="1"/>
        <pt x="587" y="634" on="1"/>
      </contour>
    </TTGlyph>
    <TTGlyph name="Q" xMin="67" yMin="-272" xMax="1355" yMax="1476">
      <contour>
        <pt x="1355" y="507" on="0"/>
        <pt x="1225" y="204" on="0"/>
        <pt x="1107" y="111" on="1"/>
        <pt x="1333" y="-72" on="1"/>
        <pt x="1104" y="-272" on="1"/>
        <pt x="792" y="-16" on="1"/>
        <pt x="757" y="-20" on="0"/>
        <pt x="712" y="-20" on="1"/>
        <pt x="523" y="-20" on="0"/>
        <pt x="230" y="155" on="0"/>
        <pt x="67" y="482" on="0"/>
        <pt x="67" y="701" on="1"/>
        <pt x="67" y="754" on="1"/>
        <pt x="67" y="973" on="0"/>
        <pt x="229" y="1300" on="0"/>
        <pt x="521" y="1476" on="0"/>
        <pt x="710" y="1476" on="1"/>
        <pt x="897" y="1476" on="0"/>
        <pt x="1190" y="1300" on="0"/>
        <pt x="1355" y="973" on="0"/>
        <pt x="1355" y="754" on="1"/>
        <pt x="1355" y="701" on="1"/>
      </contour>
      <contour>
        <pt x="447" y="499" on="0"/>
        <pt x="580" y="284" on="0"/>
        <pt x="712" y="284" on="1"/>
        <pt x="839" y="284" on="0"/>
        <pt x="975" y="501" on="0"/>
        <pt x="975" y="701" on="1"/>
        <pt x="975" y="756" on="1"/>
        <pt x="975" y="958" on="0"/>
        <pt x="837" y="1171" on="0"/>
        <pt x="710" y="1171" on="1"/>
        <pt x="447" y="1171" on="0"/>
        <pt x="447" y="756" on="1"/>
        <pt x="447" y="701" on="1"/>
      </contour>
    </TTGlyph>
    <TTGlyph name="Q.smcp" xMin="49" yMin="-227" xMax="1180" yMax="1181">
      <contour>
        <pt x="1180" y="415" on="0"/>
        <pt x="1072" y="177" on="0"/>
        <pt x="974" y="100" on="1"/>
        <pt x="1155" y="-40" on="1"/>
        <pt x="938" y="-227" on="1"/>
        <pt x="666" y="-14" on="1"/>
        <pt x="632" y="-16" on="0"/>
        <pt x="615" y="-16" on="1"/>
        <pt x="449" y="-16" on="0"/>
        <pt x="192" y="126" on="0"/>
        <pt x="49" y="389" on="0"/>
        <pt x="49" y="565" on="1"/>
        <pt x="49" y="599" on="1"/>
        <pt x="49" y="775" on="0"/>
        <pt x="191" y="1038" on="0"/>
        <pt x="448" y="1181" on="0"/>
        <pt x="614" y="1181" on="1"/>
        <pt x="776" y="1181" on="0"/>
        <pt x="1034" y="1038" on="0"/>
        <pt x="1180" y="774" on="0"/>
        <pt x="1180" y="599" on="1"/>
        <pt x="1180" y="565" on="1"/>
      </contour>
      <contour>
        <pt x="408" y="425" on="0"/>
        <pt x="511" y="268" on="0"/>
        <pt x="615" y="268" on="1"/>
        <pt x="679" y="268" on="0"/>
        <pt x="772" y="341" on="0"/>
        <pt x="821" y="475" on="0"/>
        <pt x="821" y="565" on="1"/>
        <pt x="821" y="600" on="1"/>
        <pt x="821" y="740" on="0"/>
        <pt x="711" y="896" on="0"/>
        <pt x="614" y="896" on="1"/>
        <pt x="510" y="896" on="0"/>
        <pt x="408" y="743" on="0"/>
        <pt x="408" y="600" on="1"/>
        <pt x="408" y="565" on="1"/>
      </contour>
    </TTGlyph>
    <TTGlyph name="Q.ss06" xMin="58" yMin="-253" xMax="1433" yMax="1477">
      <contour>
        <pt x="1203" y="-253" on="1"/>
        <pt x="926" y="2" on="1"/>
        <pt x="837" y="-21" on="0"/>
        <pt x="740" y="-21" on="1"/>
        <pt x="537" y="-21" on="0"/>
        <pt x="227" y="168" on="0"/>
        <pt x="58" y="505" on="0"/>
        <pt x="58" y="721" on="1"/>
        <pt x="58" y="734" on="1"/>
        <pt x="58" y="950" on="0"/>
        <pt x="226" y="1288" on="0"/>
        <pt x="535" y="1477" on="0"/>
        <pt x="738" y="1477" on="1"/>
        <pt x="939" y="1477" on="0"/>
        <pt x="1249" y="1287" on="0"/>
        <pt x="1420" y="949" on="0"/>
        <pt x="1420" y="734" on="1"/>
        <pt x="1420" y="721" on="1"/>
        <pt x="1420" y="547" on="0"/>
        <pt x="1307" y="256" on="0"/>
        <pt x="1202" y="155" on="1"/>
        <pt x="1433" y="-52" on="1"/>
      </contour>
      <contour>
        <pt x="432" y="520" on="0"/>
        <pt x="586" y="277" on="0"/>
        <pt x="740" y="277" on="1"/>
        <pt x="840" y="277" on="0"/>
        <pt x="979" y="391" on="0"/>
        <pt x="1048" y="592" on="0"/>
        <pt x="1048" y="721" on="1"/>
        <pt x="1048" y="736" on="1"/>
        <pt x="1048" y="866" on="0"/>
        <pt x="978" y="1066" on="0"/>
        <pt x="838" y="1178" on="0"/>
        <pt x="738" y="1178" on="1"/>
        <pt x="584" y="1178" on="0"/>
        <pt x="432" y="939" on="0"/>
        <pt x="432" y="736" on="1"/>
        <pt x="432" y="721" on="1"/>
      </contour>
    </TTGlyph>
    <TTGlyph name="R" xMin="102" yMin="0" xMax="1293" yMax="1456">
      <contour>
        <pt x="1293" y="16" on="1"/>
        <pt x="1293" y="0" on="1"/>
        <pt x="893" y="0" on="1"/>
        <pt x="648" y="492" on="1"/>
        <pt x="475" y="492" on="1"/>
        <pt x="475" y="0" on="1"/>
        <pt x="102" y="0" on="1"/>
        <pt x="102" y="1456" on="1"/>
        <pt x="689" y="1456" on="1"/>
        <pt x="859" y="1456" on="0"/>
        <pt x="1109" y="1355" on="0"/>
        <pt x="1246" y="1157" on="0"/>
        <pt x="1246" y="1016" on="1"/>
        <pt x="1246" y="848" on="0"/>
        <pt x="1119" y="655" on="0"/>
        <pt x="996" y="595" on="1"/>
      </contour>
      <contour>
        <pt x="475" y="795" on="1"/>
        <pt x="689" y="795" on="1"/>
        <pt x="780" y="795" on="0"/>
        <pt x="873" y="886" on="0"/>
        <pt x="873" y="974" on="1"/>
        <pt x="873" y="1060" on="0"/>
        <pt x="777" y="1154" on="0"/>
        <pt x="689" y="1154" on="1"/>
        <pt x="475" y="1154" on="1"/>
      </contour>
    </TTGlyph>
    <TTGlyph name="R.alt" xMin="98" yMin="0" xMax="1291" yMax="1456">
      <contour>
        <pt x="1212" y="236" on="0"/>
        <pt x="1226" y="145" on="0"/>
        <pt x="1261" y="53" on="0"/>
        <pt x="1291" y="32" on="1"/>
        <pt x="1291" y="0" on="1"/>
        <pt x="908" y="0" on="1"/>
        <pt x="869" y="29" on="0"/>
        <pt x="840" y="200" on="0"/>
        <pt x="840" y="263" on="1"/>
        <pt x="840" y="333" on="1"/>
        <pt x="840" y="434" on="0"/>
        <pt x="753" y="528" on="0"/>
        <pt x="650" y="528" on="1"/>
        <pt x="471" y="528" on="1"/>
        <pt x="471" y="0" on="1"/>
        <pt x="98" y="0" on="1"/>
        <pt x="98" y="1456" on="1"/>
        <pt x="708" y="1456" on="1"/>
        <pt x="877" y="1456" on="0"/>
        <pt x="1111" y="1353" on="0"/>
        <pt x="1230" y="1158" on="0"/>
        <pt x="1230" y="1021" on="1"/>
        <pt x="1230" y="892" on="0"/>
        <pt x="1088" y="740" on="0"/>
        <pt x="951" y="690" on="1"/>
        <pt x="1093" y="652" on="0"/>
        <pt x="1212" y="472" on="0"/>
        <pt x="1212" y="335" on="1"/>
        <pt x="1212" y="261" on="1"/>
      </contour>
      <contour>
        <pt x="673" y="829" on="1"/>
        <pt x="759" y="829" on="0"/>
        <pt x="857" y="909" on="0"/>
        <pt x="857" y="979" on="1"/>
        <pt x="857" y="1058" on="0"/>
        <pt x="767" y="1154" on="0"/>
        <pt x="679" y="1154" on="1"/>
        <pt x="471" y="1154" on="1"/>
        <pt x="471" y="829" on="1"/>
      </contour>
    </TTGlyph>
    <TTGlyph name="R.smcp" xMin="73" yMin="0" xMax="1127" yMax="1165">
      <contour>
        <pt x="1127" y="14" on="1"/>
        <pt x="1127" y="0" on="1"/>
        <pt x="741" y="0" on="1"/>
        <pt x="550" y="368" on="1"/>
        <pt x="433" y="368" on="1"/>
        <pt x="433" y="0" on="1"/>
        <pt x="73" y="0" on="1"/>
        <pt x="73" y="1165" on="1"/>
        <pt x="602" y="1165" on="1"/>
        <pt x="748" y="1165" on="0"/>
        <pt x="968" y="1087" on="0"/>
        <pt x="1090" y="933" on="0"/>
        <pt x="1090" y="821" on="1"/>
        <pt x="1090" y="720" on="0"/>
        <pt x="1039" y="587" on="0"/>
        <pt x="949" y="504" on="0"/>
        <pt x="880" y="470" on="1"/>
      </contour>
      <contour>
        <pt x="433" y="658" on="1"/>
        <pt x="601" y="658" on="1"/>
        <pt x="667" y="658" on="0"/>
        <pt x="731" y="711" on="0"/>
        <pt x="731" y="771" on="1"/>
        <pt x="731" y="824" on="0"/>
        <pt x="661" y="875" on="0"/>
        <pt x="602" y="875" on="1"/>
        <pt x="433" y="875" on="1"/>
      </contour>
    </TTGlyph>
    <TTGlyph name="S" xMin="62" yMin="-20" xMax="1224" yMax="1476">
      <contour>
        <pt x="457" y="637" on="0"/>
        <pt x="243" y="754" on="0"/>
        <pt x="106" y="936" on="0"/>
        <pt x="106" y="1064" on="1"/>
        <pt x="106" y="1190" on="0"/>
        <pt x="253" y="1376" on="0"/>
        <pt x="513" y="1476" on="0"/>
        <pt x="676" y="1476" on="1"/>
        <pt x="835" y="1476" on="0"/>
        <pt x="1083" y="1368" on="0"/>
        <pt x="1224" y="1163" on="0"/>
        <pt x="1224" y="1021" on="1"/>
        <pt x="852" y="1021" on="1"/>
        <pt x="852" y="1095" on="0"/>
        <pt x="757" y="1182" on="0"/>
        <pt x="667" y="1182" on="1"/>
        <pt x="607" y="1182" on="0"/>
        <pt x="521" y="1148" on="0"/>
        <pt x="477" y="1093" on="0"/>
        <pt x="477" y="1060" on="1"/>
        <pt x="477" y="1005" on="0"/>
        <pt x="604" y="927" on="0"/>
        <pt x="735" y="884" on="1"/>
        <pt x="976" y="806" on="0"/>
        <pt x="1223" y="574" on="0"/>
        <pt x="1223" y="394" on="1"/>
        <pt x="1223" y="262" on="0"/>
        <pt x="1089" y="76" on="0"/>
        <pt x="845" y="-20" on="0"/>
        <pt x="680" y="-20" on="1"/>
        <pt x="519" y="-20" on="0"/>
        <pt x="238" y="87" on="0"/>
        <pt x="62" y="315" on="0"/>
        <pt x="62" y="487" on="1"/>
        <pt x="437" y="487" on="1"/>
        <pt x="437" y="406" on="0"/>
        <pt x="490" y="312" on="0"/>
        <pt x="596" y="273" on="0"/>
        <pt x="680" y="273" on="1"/>
        <pt x="767" y="273" on="0"/>
        <pt x="850" y="342" on="0"/>
        <pt x="850" y="392" on="1"/>
        <pt x="850" y="435" on="0"/>
        <pt x="814" y="494" on="0"/>
        <pt x="709" y="552" on="0"/>
        <pt x="605" y="587" on="1"/>
      </contour>
    </TTGlyph>
    <TTGlyph name="S.smcp" xMin="53" yMin="-16" xMax="1054" yMax="1181">
      <contour>
        <pt x="358" y="487" on="0"/>
        <pt x="175" y="574" on="0"/>
        <pt x="93" y="710" on="0"/>
        <pt x="93" y="822" on="1"/>
        <pt x="93" y="927" on="0"/>
        <pt x="213" y="1091" on="0"/>
        <pt x="421" y="1181" on="0"/>
        <pt x="549" y="1181" on="1"/>
        <pt x="695" y="1181" on="0"/>
        <pt x="923" y="1101" on="0"/>
        <pt x="1054" y="935" on="0"/>
        <pt x="1054" y="812" on="1"/>
        <pt x="695" y="812" on="1"/>
        <pt x="695" y="839" on="0"/>
        <pt x="658" y="891" on="0"/>
        <pt x="593" y="925" on="0"/>
        <pt x="552" y="925" on="1"/>
        <pt x="511" y="925" on="0"/>
        <pt x="454" y="896" on="0"/>
        <pt x="426" y="856" on="0"/>
        <pt x="426" y="841" on="1"/>
        <pt x="426" y="816" on="0"/>
        <pt x="456" y="780" on="0"/>
        <pt x="525" y="751" on="0"/>
        <pt x="588" y="736" on="1"/>
        <pt x="752" y="703" on="0"/>
        <pt x="951" y="607" on="0"/>
        <pt x="1048" y="454" on="0"/>
        <pt x="1048" y="337" on="1"/>
        <pt x="1048" y="225" on="0"/>
        <pt x="932" y="66" on="0"/>
        <pt x="720" y="-16" on="0"/>
        <pt x="577" y="-16" on="1"/>
        <pt x="439" y="-16" on="0"/>
        <pt x="201" y="65" on="0"/>
        <pt x="53" y="246" on="0"/>
        <pt x="53" y="387" on="1"/>
        <pt x="413" y="387" on="1"/>
        <pt x="413" y="333" on="0"/>
        <pt x="447" y="269" on="0"/>
        <pt x="529" y="240" on="0"/>
        <pt x="603" y="240" on="1"/>
        <pt x="668" y="240" on="0"/>
        <pt x="714" y="295" on="0"/>
        <pt x="714" y="323" on="1"/>
        <pt x="714" y="368" on="0"/>
        <pt x="629" y="425" on="0"/>
        <pt x="525" y="448" on="1"/>
      </contour>
    </TTGlyph>
    <TTGlyph name="T" xMin="35" yMin="0" xMax="1266" yMax="1456">
      <contour>
        <pt x="1266" y="1154" on="1"/>
        <pt x="832" y="1154" on="1"/>
        <pt x="832" y="0" on="1"/>
        <pt x="458" y="0" on="1"/>
        <pt x="458" y="1154" on="1"/>
        <pt x="35" y="1154" on="1"/>
        <pt x="35" y="1456" on="1"/>
        <pt x="1266" y="1456" on="1"/>
      </contour>
    </TTGlyph>
    <TTGlyph name="T.smcp" xMin="27" yMin="0" xMax="1110" yMax="1165">
      <contour>
        <pt x="1110" y="875" on="1"/>
        <pt x="743" y="875" on="1"/>
        <pt x="743" y="0" on="1"/>
        <pt x="382" y="0" on="1"/>
        <pt x="382" y="875" on="1"/>
        <pt x="27" y="875" on="1"/>
        <pt x="27" y="1165" on="1"/>
        <pt x="1110" y="1165" on="1"/>
      </contour>
    </TTGlyph>
    <TTGlyph name="Thorn" xMin="110" yMin="0" xMax="1229" yMax="1456">
      <contour>
        <pt x="838" y="1208" on="0"/>
        <pt x="1096" y="1089" on="0"/>
        <pt x="1229" y="877" on="0"/>
        <pt x="1229" y="738" on="1"/>
        <pt x="1229" y="599" on="0"/>
        <pt x="1096" y="387" on="0"/>
        <pt x="838" y="268" on="0"/>
        <pt x="657" y="268" on="1"/>
        <pt x="470" y="268" on="1"/>
        <pt x="470" y="0" on="1"/>
        <pt x="110" y="0" on="1"/>
        <pt x="110" y="1456" on="1"/>
        <pt x="470" y="1456" on="1"/>
        <pt x="470" y="1208" on="1"/>
        <pt x="657" y="1208" on="1"/>
      </contour>
      <contour>
        <pt x="764" y="558" on="0"/>
        <pt x="869" y="658" on="0"/>
        <pt x="869" y="736" on="1"/>
        <pt x="869" y="815" on="0"/>
        <pt x="764" y="918" on="0"/>
        <pt x="657" y="918" on="1"/>
        <pt x="470" y="918" on="1"/>
        <pt x="470" y="558" on="1"/>
        <pt x="657" y="558" on="1"/>
      </contour>
    </TTGlyph>
    <TTGlyph name="Thorn.smcp" xMin="73" yMin="0" xMax="1030" yMax="1165">
      <contour>
        <pt x="677" y="1030" on="0"/>
        <pt x="906" y="926" on="0"/>
        <pt x="1030" y="742" on="0"/>
        <pt x="1030" y="626" on="1"/>
        <pt x="1030" y="506" on="0"/>
        <pt x="906" y="317" on="0"/>
        <pt x="677" y="209" on="0"/>
        <pt x="526" y="209" on="1"/>
        <pt x="433" y="209" on="1"/>
        <pt x="433" y="0" on="1"/>
        <pt x="73" y="0" on="1"/>
        <pt x="73" y="1165" on="1"/>
        <pt x="433" y="1165" on="1"/>
        <pt x="433" y="1030" on="1"/>
        <pt x="526" y="1030" on="1"/>
      </contour>
      <contour>
        <pt x="597" y="499" on="0"/>
        <pt x="673" y="570" on="0"/>
        <pt x="673" y="624" on="1"/>
        <pt x="673" y="674" on="0"/>
        <pt x="596" y="740" on="0"/>
        <pt x="526" y="740" on="1"/>
        <pt x="433" y="740" on="1"/>
        <pt x="433" y="499" on="1"/>
        <pt x="526" y="499" on="1"/>
      </contour>
    </TTGlyph>
    <TTGlyph name="U" xMin="101" yMin="-20" xMax="1261" yMax="1456">
      <contour>
        <pt x="1261" y="515" on="1"/>
        <pt x="1261" y="345" on="0"/>
        <pt x="1121" y="104" on="0"/>
        <pt x="861" y="-20" on="0"/>
        <pt x="684" y="-20" on="1"/>
        <pt x="509" y="-20" on="0"/>
        <pt x="246" y="105" on="0"/>
        <pt x="101" y="346" on="0"/>
        <pt x="101" y="515" on="1"/>
        <pt x="101" y="1456" on="1"/>
        <pt x="476" y="1456" on="1"/>
        <pt x="476" y="515" on="1"/>
        <pt x="476" y="392" on="0"/>
        <pt x="580" y="281" on="0"/>
        <pt x="684" y="281" on="1"/>
        <pt x="788" y="281" on="0"/>
        <pt x="888" y="392" on="0"/>
        <pt x="888" y="515" on="1"/>
        <pt x="888" y="1456" on="1"/>
        <pt x="1261" y="1456" on="1"/>
      </contour>
    </TTGlyph>
    <TTGlyph name="U.smcp" xMin="80" yMin="-16" xMax="1101" yMax="1165">
      <contour>
        <pt x="1101" y="428" on="1"/>
        <pt x="1101" y="287" on="0"/>
        <pt x="981" y="88" on="0"/>
        <pt x="752" y="-16" on="0"/>
        <pt x="592" y="-16" on="1"/>
        <pt x="436" y="-16" on="0"/>
        <pt x="206" y="89" on="0"/>
        <pt x="80" y="288" on="0"/>
        <pt x="80" y="428" on="1"/>
        <pt x="80" y="1165" on="1"/>
        <pt x="440" y="1165" on="1"/>
        <pt x="440" y="428" on="1"/>
        <pt x="440" y="345" on="0"/>
        <pt x="513" y="273" on="0"/>
        <pt x="592" y="273" on="1"/>
        <pt x="671" y="273" on="0"/>
        <pt x="741" y="345" on="0"/>
        <pt x="741" y="428" on="1"/>
        <pt x="741" y="1165" on="1"/>
        <pt x="1101" y="1165" on="1"/>
      </contour>
    </TTGlyph>
    <TTGlyph name="Uacute" xMin="101" yMin="-20" xMax="1261" yMax="1846">
      <component glyphName=".ttfautohint" x="101" y="0" flags="0x0"/>
      <component glyphName="U" x="0" y="0" flags="0x0"/>
      <component glyphName="acutecomb" x="1191" y="310" flags="0x4"/>
    </TTGlyph>
    <TTGlyph name="Uacute.smcp" xMin="80" yMin="-16" xMax="1101" yMax="1566">
      <component glyphName=".ttfautohint" x="80" y="0" flags="0x0"/>
      <component glyphName="U.smcp" x="0" y="0" flags="0x0"/>
      <component glyphName="acutecomb" x="1098" y="30" flags="0x4"/>
    </TTGlyph>
    <TTGlyph name="Ucircumflex" xMin="101" yMin="-20" xMax="1261" yMax="1845">
      <component glyphName=".ttfautohint" x="101" y="0" flags="0x0"/>
      <component glyphName="U" x="0" y="0" flags="0x0"/>
      <component glyphName="circumflex" x="154" y="310" flags="0x4"/>
    </TTGlyph>
    <TTGlyph name="Ucircumflex.smcp" xMin="80" yMin="-16" xMax="1101" yMax="1565">
      <component glyphName=".ttfautohint" x="80" y="0" flags="0x0"/>
      <component glyphName="U.smcp" x="0" y="0" flags="0x0"/>
      <component glyphName="circumflex" x="61" y="30" flags="0x4"/>
    </TTGlyph>
    <TTGlyph name="Udieresis" xMin="101" yMin="-20" xMax="1261" yMax="1815">
      <component glyphName=".ttfautohint" x="101" y="0" flags="0x0"/>
      <component glyphName="U" x="0" y="0" flags="0x0"/>
      <component glyphName="dieresis" x="155" y="310" flags="0x4"/>
    </TTGlyph>
    <TTGlyph name="Udieresis.smcp" xMin="80" yMin="-16" xMax="1101" yMax="1535">
      <component glyphName=".ttfautohint" x="80" y="0" flags="0x0"/>
      <component glyphName="U.smcp" x="0" y="0" flags="0x0"/>
      <component glyphName="dieresis" x="62" y="30" flags="0x4"/>
    </TTGlyph>
    <TTGlyph name="Ugrave" xMin="101" yMin="-20" xMax="1261" yMax="1846">
      <component glyphName=".ttfautohint" x="101" y="0" flags="0x0"/>
      <component glyphName="U" x="0" y="0" flags="0x0"/>
      <component glyphName="gravecomb" x="1227" y="310" flags="0x4"/>
    </TTGlyph>
    <TTGlyph name="Ugrave.smcp" xMin="80" yMin="-16" xMax="1101" yMax="1566">
      <component glyphName=".ttfautohint" x="80" y="0" flags="0x0"/>
      <component glyphName="U.smcp" x="0" y="0" flags="0x0"/>
      <component glyphName="gravecomb" x="1134" y="30" flags="0x4"/>
    </TTGlyph>
    <TTGlyph name="V" xMin="-8" yMin="0" xMax="1369" yMax="1456">
      <contour>
        <pt x="1369" y="1456" on="1"/>
        <pt x="886" y="0" on="1"/>
        <pt x="471" y="0" on="1"/>
        <pt x="-8" y="1456" on="1"/>
        <pt x="407" y="1456" on="1"/>
        <pt x="679" y="431" on="1"/>
        <pt x="950" y="1456" on="1"/>
      </contour>
    </TTGlyph>
    <TTGlyph name="V.smcp" xMin="-17" yMin="0" xMax="1196" yMax="1165">
      <contour>
        <pt x="1196" y="1165" on="1"/>
        <pt x="794" y="0" on="1"/>
        <pt x="383" y="0" on="1"/>
        <pt x="-17" y="1165" on="1"/>
        <pt x="356" y="1165" on="1"/>
        <pt x="588" y="333" on="1"/>
        <pt x="822" y="1165" on="1"/>
      </contour>
    </TTGlyph>
    <TTGlyph name="W" xMin="16" yMin="0" xMax="1750" yMax="1456">
      <contour>
        <pt x="1750" y="1456" on="1"/>
        <pt x="1448" y="0" on="1"/>
        <pt x="1057" y="0" on="1"/>
        <pt x="881" y="791" on="1"/>
        <pt x="710" y="0" on="1"/>
        <pt x="319" y="0" on="1"/>
        <pt x="16" y="1456" on="1"/>
        <pt x="386" y="1456" on="1"/>
        <pt x="539" y="566" on="1"/>
        <pt x="722" y="1456" on="1"/>
        <pt x="1040" y="1456" on="1"/>
        <pt x="1227" y="565" on="1"/>
        <pt x="1381" y="1456" on="1"/>
      </contour>
    </TTGlyph>
    <TTGlyph name="W.smcp" xMin="18" yMin="-4" xMax="1484" yMax="1165">
      <contour>
        <pt x="1484" y="1165" on="1"/>
        <pt x="1235" y="0" on="1"/>
        <pt x="1033" y="0" on="1"/>
        <pt x="948" y="-4" on="1"/>
        <pt x="949" y="0" on="1"/>
        <pt x="867" y="0" on="1"/>
        <pt x="749" y="544" on="1"/>
        <pt x="637" y="0" on="1"/>
        <pt x="554" y="0" on="1"/>
        <pt x="555" y="-3" on="1"/>
        <pt x="473" y="0" on="1"/>
        <pt x="269" y="0" on="1"/>
        <pt x="18" y="1165" on="1"/>
        <pt x="360" y="1165" on="1"/>
        <pt x="466" y="529" on="1"/>
        <pt x="591" y="1165" on="1"/>
        <pt x="906" y="1165" on="1"/>
        <pt x="1037" y="526" on="1"/>
        <pt x="1144" y="1165" on="1"/>
      </contour>
    </TTGlyph>
    <TTGlyph name="X" xMin="-4" yMin="0" xMax="1314" yMax="1456">
      <contour>
        <pt x="877" y="1456" on="1"/>
        <pt x="1302" y="1456" on="1"/>
        <pt x="903" y="734" on="1"/>
        <pt x="1314" y="0" on="1"/>
        <pt x="884" y="0" on="1"/>
        <pt x="655" y="474" on="1"/>
        <pt x="425" y="0" on="1"/>
        <pt x="-4" y="0" on="1"/>
        <pt x="406" y="734" on="1"/>
        <pt x="7" y="1456" on="1"/>
        <pt x="432" y="1456" on="1"/>
        <pt x="655" y="991" on="1"/>
      </contour>
    </TTGlyph>
    <TTGlyph name="X.smcp" xMin="-23" yMin="0" xMax="1145" yMax="1165">
      <contour>
        <pt x="696" y="1165" on="1"/>
        <pt x="1105" y="1165" on="1"/>
        <pt x="774" y="587" on="1"/>
        <pt x="1145" y="0" on="1"/>
        <pt x="721" y="0" on="1"/>
        <pt x="548" y="342" on="1"/>
        <pt x="387" y="0" on="1"/>
        <pt x="-23" y="0" on="1"/>
        <pt x="319" y="587" on="1"/>
        <pt x="-13" y="1165" on="1"/>
        <pt x="394" y="1165" on="1"/>
        <pt x="543" y="830" on="1"/>
      </contour>
    </TTGlyph>
    <TTGlyph name="Y" xMin="-7" yMin="0" xMax="1302" yMax="1456">
      <contour>
        <pt x="901" y="1456" on="1"/>
        <pt x="1302" y="1456" on="1"/>
        <pt x="838" y="517" on="1"/>
        <pt x="838" y="0" on="1"/>
        <pt x="458" y="0" on="1"/>
        <pt x="458" y="517" on="1"/>
        <pt x="-7" y="1456" on="1"/>
        <pt x="394" y="1456" on="1"/>
        <pt x="648" y="850" on="1"/>
      </contour>
    </TTGlyph>
    <TTGlyph name="Y.smcp" xMin="-13" yMin="0" xMax="1141" yMax="1165">
      <contour>
        <pt x="741" y="408" on="1"/>
        <pt x="741" y="0" on="1"/>
        <pt x="380" y="0" on="1"/>
        <pt x="380" y="420" on="1"/>
        <pt x="-13" y="1165" on="1"/>
        <pt x="371" y="1165" on="1"/>
        <pt x="564" y="728" on="1"/>
        <pt x="757" y="1165" on="1"/>
        <pt x="1141" y="1165" on="1"/>
      </contour>
    </TTGlyph>
    <TTGlyph name="Yacute" xMin="-7" yMin="0" xMax="1302" yMax="1846">
      <component glyphName=".ttfautohint" x="0" y="0" flags="0x0"/>
      <component glyphName="Y" x="0" y="0" flags="0x0"/>
      <component glyphName="acutecomb" x="1163" y="310" flags="0x4"/>
    </TTGlyph>
    <TTGlyph name="Yacute.smcp" xMin="-13" yMin="0" xMax="1141" yMax="1566">
      <component glyphName=".ttfautohint" x="0" y="0" flags="0x0"/>
      <component glyphName="Y.smcp" x="0" y="0" flags="0x0"/>
      <component glyphName="acutecomb" x="1059" y="30" flags="0x4"/>
    </TTGlyph>
    <TTGlyph name="Z" xMin="57" yMin="0" xMax="1209" yMax="1456">
      <contour>
        <pt x="1209" y="301" on="1"/>
        <pt x="1209" y="0" on="1"/>
        <pt x="64" y="0" on="1"/>
        <pt x="64" y="195" on="1"/>
        <pt x="733" y="1154" on="1"/>
        <pt x="57" y="1154" on="1"/>
        <pt x="57" y="1456" on="1"/>
        <pt x="1206" y="1456" on="1"/>
        <pt x="1206" y="1267" on="1"/>
        <pt x="544" y="301" on="1"/>
      </contour>
    </TTGlyph>
    <TTGlyph name="Z.smcp" xMin="39" yMin="0" xMax="1058" yMax="1165">
      <contour>
        <pt x="1058" y="999" on="1"/>
        <pt x="533" y="289" on="1"/>
        <pt x="1055" y="289" on="1"/>
        <pt x="1055" y="0" on="1"/>
        <pt x="49" y="0" on="1"/>
        <pt x="49" y="170" on="1"/>
        <pt x="120" y="264" on="1"/>
        <pt x="120" y="289" on="1"/>
        <pt x="139" y="289" on="1"/>
        <pt x="583" y="875" on="1"/>
        <pt x="39" y="875" on="1"/>
        <pt x="39" y="1165" on="1"/>
        <pt x="1058" y="1165" on="1"/>
      </contour>
    </TTGlyph>
    <TTGlyph name="a" xMin="36" yMin="-20" xMax="1046" yMax="1102">
      <contour>
        <pt x="1000" y="171" on="0"/>
        <pt x="1022" y="62" on="0"/>
        <pt x="1046" y="17" on="1"/>
        <pt x="1046" y="0" on="1"/>
        <pt x="689" y="0" on="1"/>
        <pt x="671" y="41" on="0"/>
        <pt x="659" y="93" on="1"/>
        <pt x="617" y="40" on="0"/>
        <pt x="496" y="-20" on="0"/>
        <pt x="402" y="-20" on="1"/>
        <pt x="304" y="-20" on="0"/>
        <pt x="136" y="62" on="0"/>
        <pt x="36" y="211" on="0"/>
        <pt x="36" y="306" on="1"/>
        <pt x="36" y="476" on="0"/>
        <pt x="287" y="661" on="0"/>
        <pt x="547" y="661" on="1"/>
        <pt x="640" y="661" on="1"/>
        <pt x="640" y="711" on="1"/>
        <pt x="640" y="776" on="0"/>
        <pt x="585" y="844" on="0"/>
        <pt x="524" y="844" on="1"/>
        <pt x="471" y="844" on="0"/>
        <pt x="420" y="795" on="0"/>
        <pt x="420" y="739" on="1"/>
        <pt x="62" y="739" on="1"/>
        <pt x="62" y="846" on="0"/>
        <pt x="180" y="1011" on="0"/>
        <pt x="398" y="1102" on="0"/>
        <pt x="543" y="1102" on="1"/>
        <pt x="675" y="1102" on="0"/>
        <pt x="882" y="1013" on="0"/>
        <pt x="1000" y="836" on="0"/>
        <pt x="1000" y="709" on="1"/>
        <pt x="1000" y="284" on="1"/>
      </contour>
      <contour>
        <pt x="545" y="241" on="0"/>
        <pt x="623" y="281" on="0"/>
        <pt x="640" y="311" on="1"/>
        <pt x="640" y="468" on="1"/>
        <pt x="539" y="468" on="1"/>
        <pt x="461" y="468" on="0"/>
        <pt x="394" y="381" on="0"/>
        <pt x="394" y="321" on="1"/>
        <pt x="394" y="285" on="0"/>
        <pt x="450" y="241" on="0"/>
        <pt x="491" y="241" on="1"/>
      </contour>
    </TTGlyph>
    <TTGlyph name="aacute" xMin="36" yMin="-20" xMax="1046" yMax="1536">
      <component glyphName=".ttfautohint" x="36" y="0" flags="0x0"/>
      <component glyphName="a" x="0" y="0" flags="0x0"/>
      <component glyphName="acutecomb" x="1042" y="0" flags="0x0"/>
    </TTGlyph>
    <TTGlyph name="acircumflex" xMin="36" yMin="-20" xMax="1046" yMax="1535">
      <component glyphName=".ttfautohint" x="36" y="0" flags="0x0"/>
      <component glyphName="a" x="0" y="0" flags="0x0"/>
      <component glyphName="circumflex" x="5" y="0" flags="0x0"/>
    </TTGlyph>
    <TTGlyph name="acute" xMin="85" yMin="1217" xMax="657" yMax="1536">
      <contour>
        <pt x="657" y="1536" on="1"/>
        <pt x="378" y="1217" on="1"/>
        <pt x="85" y="1217" on="1"/>
        <pt x="283" y="1536" on="1"/>
      </contour>
    </TTGlyph>
    <TTGlyph name="acutecomb" xMin="-694" yMin="1217" xMax="-123" yMax="1536">
      <contour>
        <pt x="-123" y="1536" on="1"/>
        <pt x="-401" y="1217" on="1"/>
        <pt x="-694" y="1217" on="1"/>
        <pt x="-496" y="1536" on="1"/>
      </contour>
    </TTGlyph>
    <TTGlyph name="adieresis" xMin="36" yMin="-20" xMax="1046" yMax="1505">
      <component glyphName=".ttfautohint" x="36" y="0" flags="0x0"/>
      <component glyphName="a" x="0" y="0" flags="0x0"/>
      <component glyphName="dieresis" x="6" y="0" flags="0x0"/>
    </TTGlyph>
    <TTGlyph name="ae" xMin="59" yMin="-20" xMax="1690" yMax="1103">
      <contour>
        <pt x="1690" y="418" on="1"/>
        <pt x="1065" y="418" on="1"/>
        <pt x="1079" y="348" on="0"/>
        <pt x="1188" y="270" on="0"/>
        <pt x="1288" y="270" on="1"/>
        <pt x="1377" y="270" on="0"/>
        <pt x="1500" y="296" on="0"/>
        <pt x="1568" y="326" on="1"/>
        <pt x="1652" y="101" on="1"/>
        <pt x="1585" y="47" on="0"/>
        <pt x="1356" y="-20" on="0"/>
        <pt x="1235" y="-20" on="1"/>
        <pt x="1116" y="-20" on="0"/>
        <pt x="925" y="46" on="0"/>
        <pt x="857" y="108" on="1"/>
        <pt x="797" y="51" on="0"/>
        <pt x="614" y="-20" on="0"/>
        <pt x="493" y="-20" on="1"/>
        <pt x="355" y="-20" on="0"/>
        <pt x="160" y="65" on="0"/>
        <pt x="59" y="223" on="0"/>
        <pt x="59" y="329" on="1"/>
        <pt x="59" y="489" on="0"/>
        <pt x="330" y="661" on="0"/>
        <pt x="589" y="661" on="1"/>
        <pt x="713" y="661" on="1"/>
        <pt x="713" y="695" on="1"/>
        <pt x="713" y="751" on="0"/>
        <pt x="651" y="812" on="0"/>
        <pt x="592" y="812" on="1"/>
        <pt x="527" y="812" on="0"/>
        <pt x="457" y="769" on="0"/>
        <pt x="457" y="734" on="1"/>
        <pt x="99" y="753" on="1"/>
        <pt x="99" y="854" on="0"/>
        <pt x="221" y="1013" on="0"/>
        <pt x="447" y="1102" on="0"/>
        <pt x="597" y="1102" on="1"/>
        <pt x="794" y="1102" on="0"/>
        <pt x="911" y="1018" on="1"/>
        <pt x="1037" y="1103" on="0"/>
        <pt x="1229" y="1102" on="1"/>
        <pt x="1368" y="1102" on="0"/>
        <pt x="1577" y="983" on="0"/>
        <pt x="1690" y="761" on="0"/>
        <pt x="1690" y="612" on="1"/>
      </contour>
      <contour>
        <pt x="1340" y="672" on="1"/>
        <pt x="1340" y="742" on="0"/>
        <pt x="1282" y="812" on="0"/>
        <pt x="1229" y="812" on="1"/>
        <pt x="1150" y="812" on="0"/>
        <pt x="1074" y="728" on="0"/>
        <pt x="1064" y="648" on="1"/>
        <pt x="1340" y="648" on="1"/>
      </contour>
      <contour>
        <pt x="417" y="234" on="0"/>
        <pt x="560" y="234" on="1"/>
        <pt x="599" y="234" on="0"/>
        <pt x="682" y="261" on="0"/>
        <pt x="713" y="283" on="1"/>
        <pt x="713" y="412" on="1"/>
        <pt x="711" y="430" on="0"/>
        <pt x="711" y="440" on="1"/>
        <pt x="591" y="440" on="1"/>
        <pt x="536" y="440" on="0"/>
        <pt x="457" y="408" on="0"/>
        <pt x="417" y="355" on="0"/>
        <pt x="417" y="325" on="1"/>
      </contour>
    </TTGlyph>
    <TTGlyph name="agrave" xMin="36" yMin="-20" xMax="1046" yMax="1536">
      <component glyphName=".ttfautohint" x="36" y="0" flags="0x0"/>
      <component glyphName="a" x="0" y="0" flags="0x0"/>
      <component glyphName="gravecomb" x="1078" y="0" flags="0x0"/>
    </TTGlyph>
    <TTGlyph name="alpha" xMin="55" yMin="-21" xMax="1153" yMax="1102">
      <contour>
        <pt x="1153" y="-5" on="1"/>
        <pt x="1122" y="-15" on="0"/>
        <pt x="1068" y="-21" on="0"/>
        <pt x="1029" y="-21" on="1"/>
        <pt x="818" y="-21" on="0"/>
        <pt x="730" y="151" on="1"/>
        <pt x="638" y="-20" on="0"/>
        <pt x="476" y="-20" on="1"/>
        <pt x="342" y="-20" on="0"/>
        <pt x="152" y="117" on="0"/>
        <pt x="55" y="363" on="0"/>
        <pt x="55" y="524" on="1"/>
        <pt x="55" y="545" on="1"/>
        <pt x="55" y="709" on="0"/>
        <pt x="153" y="961" on="0"/>
        <pt x="343" y="1102" on="0"/>
        <pt x="478" y="1102" on="1"/>
        <pt x="620" y="1102" on="0"/>
        <pt x="707" y="958" on="1"/>
        <pt x="731" y="1082" on="1"/>
        <pt x="1046" y="1082" on="1"/>
        <pt x="1046" y="391" on="1"/>
        <pt x="1046" y="325" on="0"/>
        <pt x="1078" y="267" on="0"/>
        <pt x="1114" y="267" on="1"/>
        <pt x="1125" y="267" on="0"/>
        <pt x="1128" y="269" on="1"/>
      </contour>
      <contour>
        <pt x="648" y="270" on="0"/>
        <pt x="687" y="313" on="1"/>
        <pt x="687" y="758" on="1"/>
        <pt x="648" y="812" on="0"/>
        <pt x="568" y="812" on="1"/>
        <pt x="487" y="812" on="0"/>
        <pt x="415" y="667" on="0"/>
        <pt x="415" y="545" on="1"/>
        <pt x="415" y="524" on="1"/>
        <pt x="415" y="401" on="0"/>
        <pt x="483" y="270" on="0"/>
        <pt x="566" y="270" on="1"/>
      </contour>
    </TTGlyph>
    <TTGlyph name="alpha.alt" xMin="55" yMin="-21" xMax="1115" yMax="1102">
      <contour>
        <pt x="809" y="0" on="1"/>
        <pt x="789" y="128" on="1"/>
        <pt x="684" y="-21" on="0"/>
        <pt x="502" y="-21" on="1"/>
        <pt x="360" y="-21" on="0"/>
        <pt x="158" y="117" on="0"/>
        <pt x="55" y="363" on="0"/>
        <pt x="55" y="524" on="1"/>
        <pt x="55" y="545" on="1"/>
        <pt x="55" y="709" on="0"/>
        <pt x="159" y="961" on="0"/>
        <pt x="361" y="1102" on="0"/>
        <pt x="504" y="1102" on="1"/>
        <pt x="680" y="1102" on="0"/>
        <pt x="783" y="950" on="1"/>
        <pt x="802" y="1082" on="1"/>
        <pt x="1108" y="1082" on="1"/>
        <pt x="999" y="540" on="1"/>
        <pt x="1115" y="0" on="1"/>
      </contour>
      <contour>
        <pt x="646" y="269" on="0"/>
        <pt x="726" y="364" on="0"/>
        <pt x="726" y="438" on="1"/>
        <pt x="726" y="448" on="0"/>
        <pt x="724" y="470" on="1"/>
        <pt x="724" y="564" on="1"/>
        <pt x="725" y="576" on="0"/>
        <pt x="725" y="598" on="1"/>
        <pt x="725" y="694" on="0"/>
        <pt x="648" y="812" on="0"/>
        <pt x="568" y="812" on="1"/>
        <pt x="487" y="812" on="0"/>
        <pt x="415" y="667" on="0"/>
        <pt x="415" y="545" on="1"/>
        <pt x="415" y="524" on="1"/>
        <pt x="415" y="401" on="0"/>
        <pt x="483" y="269" on="0"/>
        <pt x="566" y="269" on="1"/>
      </contour>
    </TTGlyph>
    <TTGlyph name="ampersand" xMin="49" yMin="-21" xMax="1357" yMax="1477">
      <contour>
        <pt x="959" y="0" on="1"/>
        <pt x="895" y="72" on="1"/>
        <pt x="808" y="24" on="0"/>
        <pt x="636" y="-21" on="0"/>
        <pt x="526" y="-21" on="1"/>
        <pt x="381" y="-21" on="0"/>
        <pt x="165" y="83" on="0"/>
        <pt x="49" y="270" on="0"/>
        <pt x="49" y="390" on="1"/>
        <pt x="49" y="468" on="0"/>
        <pt x="108" y="592" on="0"/>
        <pt x="211" y="693" on="0"/>
        <pt x="292" y="751" on="1"/>
        <pt x="302" y="757" on="1"/>
        <pt x="241" y="846" on="0"/>
        <pt x="181" y="997" on="0"/>
        <pt x="181" y="1074" on="1"/>
        <pt x="181" y="1188" on="0"/>
        <pt x="285" y="1372" on="0"/>
        <pt x="475" y="1477" on="0"/>
        <pt x="599" y="1477" on="1"/>
        <pt x="712" y="1477" on="0"/>
        <pt x="888" y="1379" on="0"/>
        <pt x="984" y="1214" on="0"/>
        <pt x="984" y="1116" on="1"/>
        <pt x="984" y="1022" on="0"/>
        <pt x="878" y="853" on="0"/>
        <pt x="791" y="793" on="1"/>
        <pt x="709" y="735" on="1"/>
        <pt x="914" y="503" on="1"/>
        <pt x="972" y="614" on="0"/>
        <pt x="972" y="744" on="1"/>
        <pt x="1270" y="744" on="1"/>
        <pt x="1270" y="435" on="0"/>
        <pt x="1133" y="254" on="1"/>
        <pt x="1357" y="0" on="1"/>
      </contour>
      <contour>
        <pt x="486" y="1041" on="0"/>
        <pt x="521" y="965" on="0"/>
        <pt x="555" y="919" on="1"/>
        <pt x="615" y="957" on="1"/>
        <pt x="669" y="991" on="0"/>
        <pt x="700" y="1053" on="0"/>
        <pt x="700" y="1084" on="1"/>
        <pt x="700" y="1124" on="0"/>
        <pt x="644" y="1187" on="0"/>
        <pt x="598" y="1187" on="1"/>
        <pt x="544" y="1187" on="0"/>
        <pt x="486" y="1125" on="0"/>
        <pt x="486" y="1077" on="1"/>
      </contour>
      <contour>
        <pt x="623" y="269" on="0"/>
        <pt x="693" y="297" on="1"/>
        <pt x="458" y="559" on="1"/>
        <pt x="452" y="555" on="1"/>
        <pt x="430" y="526" on="0"/>
        <pt x="409" y="465" on="0"/>
        <pt x="409" y="420" on="1"/>
        <pt x="409" y="375" on="0"/>
        <pt x="450" y="306" on="0"/>
        <pt x="516" y="269" on="0"/>
        <pt x="552" y="269" on="1"/>
      </contour>
    </TTGlyph>
    <TTGlyph name="ampersand.smcp" xMin="75" yMin="-23" xMax="1303" yMax="1181">
      <contour>
        <pt x="921" y="0" on="1"/>
        <pt x="886" y="34" on="1"/>
        <pt x="740" y="-23" on="0"/>
        <pt x="565" y="-23" on="1"/>
        <pt x="417" y="-23" on="0"/>
        <pt x="195" y="61" on="0"/>
        <pt x="75" y="211" on="0"/>
        <pt x="75" y="308" on="1"/>
        <pt x="75" y="400" on="0"/>
        <pt x="187" y="534" on="0"/>
        <pt x="300" y="601" on="1"/>
        <pt x="236" y="670" on="0"/>
        <pt x="176" y="796" on="0"/>
        <pt x="176" y="878" on="1"/>
        <pt x="176" y="953" on="0"/>
        <pt x="265" y="1093" on="0"/>
        <pt x="437" y="1181" on="0"/>
        <pt x="556" y="1181" on="1"/>
        <pt x="679" y="1181" on="0"/>
        <pt x="859" y="1105" on="0"/>
        <pt x="957" y="956" on="0"/>
        <pt x="957" y="851" on="1"/>
        <pt x="957" y="769" on="0"/>
        <pt x="850" y="630" on="0"/>
        <pt x="758" y="574" on="1"/>
        <pt x="722" y="553" on="1"/>
        <pt x="891" y="392" on="1"/>
        <pt x="934" y="455" on="0"/>
        <pt x="934" y="536" on="1"/>
        <pt x="1232" y="536" on="1"/>
        <pt x="1232" y="419" on="0"/>
        <pt x="1167" y="248" on="0"/>
        <pt x="1108" y="185" on="1"/>
        <pt x="1303" y="0" on="1"/>
      </contour>
      <contour>
        <pt x="518" y="918" on="0"/>
        <pt x="467" y="874" on="0"/>
        <pt x="467" y="837" on="1"/>
        <pt x="467" y="815" on="0"/>
        <pt x="499" y="767" on="0"/>
        <pt x="532" y="734" on="1"/>
        <pt x="557" y="749" on="1"/>
        <pt x="605" y="777" on="0"/>
        <pt x="649" y="812" on="0"/>
        <pt x="661" y="838" on="0"/>
        <pt x="661" y="857" on="1"/>
        <pt x="661" y="870" on="0"/>
        <pt x="638" y="899" on="0"/>
        <pt x="594" y="918" on="0"/>
        <pt x="566" y="918" on="1"/>
      </contour>
      <contour>
        <pt x="600" y="263" on="0"/>
        <pt x="643" y="268" on="1"/>
        <pt x="489" y="416" on="1"/>
        <pt x="436" y="385" on="0"/>
        <pt x="436" y="342" on="1"/>
        <pt x="436" y="304" on="0"/>
        <pt x="504" y="263" on="0"/>
        <pt x="560" y="263" on="1"/>
      </contour>
    </TTGlyph>
    <TTGlyph name="aring" xMin="36" yMin="-20" xMax="1046" yMax="1619">
      <component glyphName=".ttfautohint" x="36" y="0" flags="0x0"/>
      <component glyphName="a" x="0" y="0" flags="0x0"/>
      <component glyphName="ring" x="186" y="159" flags="0x4"/>
    </TTGlyph>
    <TTGlyph name="asciicircum" xMin="32" yMin="729" xMax="898" yMax="1456">
      <contour>
        <pt x="633" y="729" on="1"/>
        <pt x="465" y="1177" on="1"/>
        <pt x="297" y="729" on="1"/>
        <pt x="32" y="729" on="1"/>
        <pt x="331" y="1456" on="1"/>
        <pt x="599" y="1456" on="1"/>
        <pt x="898" y="729" on="1"/>
      </contour>
    </TTGlyph>
    <TTGlyph name="asciitilde" xMin="89" yMin="357" xMax="1187" yMax="845">
      <contour>
        <pt x="1187" y="664" on="0"/>
        <pt x="1103" y="462" on="0"/>
        <pt x="951" y="357" on="0"/>
        <pt x="852" y="357" on="1"/>
        <pt x="776" y="357" on="0"/>
        <pt x="656" y="416" on="0"/>
        <pt x="588" y="485" on="1"/>
        <pt x="550" y="523" on="0"/>
        <pt x="484" y="559" on="0"/>
        <pt x="448" y="559" on="1"/>
        <pt x="417" y="559" on="0"/>
        <pt x="366" y="514" on="0"/>
        <pt x="337" y="439" on="0"/>
        <pt x="337" y="396" on="1"/>
        <pt x="89" y="402" on="1"/>
        <pt x="89" y="544" on="0"/>
        <pt x="172" y="743" on="0"/>
        <pt x="322" y="845" on="0"/>
        <pt x="422" y="845" on="1"/>
        <pt x="497" y="845" on="0"/>
        <pt x="627" y="784" on="0"/>
        <pt x="690" y="719" on="1"/>
        <pt x="762" y="645" on="0"/>
        <pt x="826" y="645" on="1"/>
        <pt x="873" y="645" on="0"/>
        <pt x="934" y="739" on="0"/>
        <pt x="934" y="806" on="1"/>
        <pt x="1187" y="805" on="1"/>
      </contour>
    </TTGlyph>
    <TTGlyph name="asterisk" xMin="27" yMin="548" xMax="963" yMax="1456">
      <contour>
        <pt x="27" y="1039" on="1"/>
        <pt x="94" y="1237" on="1"/>
        <pt x="416" y="1100" on="1"/>
        <pt x="389" y="1456" on="1"/>
        <pt x="611" y="1456" on="1"/>
        <pt x="582" y="1093" on="1"/>
        <pt x="895" y="1227" on="1"/>
        <pt x="963" y="1027" on="1"/>
        <pt x="628" y="936" on="1"/>
        <pt x="851" y="672" on="1"/>
        <pt x="673" y="548" on="1"/>
        <pt x="488" y="845" on="1"/>
        <pt x="303" y="558" on="1"/>
        <pt x="125" y="677" on="1"/>
        <pt x="357" y="948" on="1"/>
      </contour>
    </TTGlyph>
    <TTGlyph name="at" xMin="60" yMin="-453" xMax="1759" yMax="1403">
      <contour>
        <pt x="1215" y="1403" on="0"/>
        <pt x="1573" y="1206" on="0"/>
        <pt x="1759" y="851" on="0"/>
        <pt x="1759" y="617" on="1"/>
        <pt x="1759" y="583" on="0"/>
        <pt x="1758" y="565" on="1"/>
        <pt x="1753" y="408" on="0"/>
        <pt x="1653" y="143" on="0"/>
        <pt x="1451" y="-21" on="0"/>
        <pt x="1302" y="-21" on="1"/>
        <pt x="1222" y="-21" on="0"/>
        <pt x="1095" y="47" on="0"/>
        <pt x="1059" y="109" on="1"/>
        <pt x="963" y="-16" on="0"/>
        <pt x="796" y="-16" on="1"/>
        <pt x="708" y="-16" on="0"/>
        <pt x="571" y="79" on="0"/>
        <pt x="494" y="255" on="0"/>
        <pt x="494" y="372" on="1"/>
        <pt x="494" y="394" on="0"/>
        <pt x="498" y="442" on="1"/>
        <pt x="518" y="607" on="0"/>
        <pt x="652" y="855" on="0"/>
        <pt x="860" y="990" on="0"/>
        <pt x="988" y="990" on="1"/>
        <pt x="1063" y="990" on="0"/>
        <pt x="1173" y="960" on="0"/>
        <pt x="1249" y="918" on="0"/>
        <pt x="1307" y="879" on="1"/>
        <pt x="1256" y="281" on="1"/>
        <pt x="1254" y="263" on="0"/>
        <pt x="1254" y="256" on="1"/>
        <pt x="1254" y="210" on="0"/>
        <pt x="1308" y="169" on="0"/>
        <pt x="1349" y="169" on="1"/>
        <pt x="1402" y="169" on="0"/>
        <pt x="1491" y="269" on="0"/>
        <pt x="1544" y="444" on="0"/>
        <pt x="1547" y="552" on="1"/>
        <pt x="1549" y="592" on="0"/>
        <pt x="1549" y="610" on="1"/>
        <pt x="1549" y="794" on="0"/>
        <pt x="1419" y="1069" on="0"/>
        <pt x="1155" y="1221" on="0"/>
        <pt x="960" y="1221" on="1"/>
        <pt x="764" y="1221" on="0"/>
        <pt x="468" y="1019" on="0"/>
        <pt x="301" y="670" on="0"/>
        <pt x="290" y="452" on="1"/>
        <pt x="289" y="431" on="0"/>
        <pt x="289" y="390" on="1"/>
        <pt x="289" y="71" on="0"/>
        <pt x="602" y="-245" on="0"/>
        <pt x="895" y="-245" on="1"/>
        <pt x="978" y="-245" on="0"/>
        <pt x="1160" y="-210" on="0"/>
        <pt x="1226" y="-184" on="1"/>
        <pt x="1264" y="-364" on="1"/>
        <pt x="1198" y="-407" on="0"/>
        <pt x="990" y="-453" on="0"/>
        <pt x="891" y="-453" on="1"/>
        <pt x="490" y="-453" on="0"/>
        <pt x="60" y="-28" on="0"/>
        <pt x="60" y="392" on="1"/>
        <pt x="60" y="432" on="0"/>
        <pt x="61" y="452" on="1"/>
        <pt x="73" y="726" on="0"/>
        <pt x="301" y="1158" on="0"/>
        <pt x="702" y="1403" on="0"/>
        <pt x="964" y="1403" on="1"/>
      </contour>
      <contour>
        <pt x="917" y="186" on="0"/>
        <pt x="996" y="250" on="0"/>
        <pt x="1025" y="340" on="1"/>
        <pt x="1062" y="776" on="1"/>
        <pt x="1037" y="782" on="0"/>
        <pt x="1007" y="782" on="1"/>
        <pt x="891" y="782" on="0"/>
        <pt x="780" y="615" on="0"/>
        <pt x="760" y="442" on="1"/>
        <pt x="758" y="421" on="0"/>
        <pt x="758" y="384" on="1"/>
        <pt x="758" y="286" on="0"/>
        <pt x="818" y="186" on="0"/>
        <pt x="878" y="186" on="1"/>
      </contour>
    </TTGlyph>
    <TTGlyph name="atilde" xMin="36" yMin="-20" xMax="1046" yMax="1544">
      <component glyphName=".ttfautohint" x="36" y="0" flags="0x0"/>
      <component glyphName="a" x="0" y="0" flags="0x0"/>
      <component glyphName="tilde" x="25" y="-7" flags="0x4"/>
    </TTGlyph>
    <TTGlyph name="b" xMin="91" yMin="-20" xMax="1105" yMax="1536">
      <contour>
        <pt x="825" y="1102" on="0"/>
        <pt x="1014" y="962" on="0"/>
        <pt x="1105" y="715" on="0"/>
        <pt x="1105" y="554" on="1"/>
        <pt x="1105" y="533" on="1"/>
        <pt x="1105" y="275" on="0"/>
        <pt x="896" y="-20" on="0"/>
        <pt x="685" y="-20" on="1"/>
        <pt x="526" y="-20" on="0"/>
        <pt x="427" y="113" on="1"/>
        <pt x="412" y="0" on="1"/>
        <pt x="91" y="0" on="1"/>
        <pt x="91" y="1536" on="1"/>
        <pt x="450" y="1536" on="1"/>
        <pt x="450" y="998" on="1"/>
        <pt x="543" y="1102" on="0"/>
        <pt x="683" y="1102" on="1"/>
      </contour>
      <contour>
        <pt x="746" y="554" on="1"/>
        <pt x="746" y="678" on="0"/>
        <pt x="684" y="814" on="0"/>
        <pt x="593" y="814" on="1"/>
        <pt x="490" y="814" on="0"/>
        <pt x="450" y="744" on="1"/>
        <pt x="450" y="335" on="1"/>
        <pt x="470" y="300" on="0"/>
        <pt x="540" y="267" on="0"/>
        <pt x="595" y="267" on="1"/>
        <pt x="661" y="267" on="0"/>
        <pt x="726" y="329" on="0"/>
        <pt x="746" y="439" on="0"/>
        <pt x="746" y="533" on="1"/>
      </contour>
    </TTGlyph>
    <TTGlyph name="b.ss06" xMin="91" yMin="-20" xMax="1125" yMax="1536">
      <contour>
        <pt x="826" y="1102" on="0"/>
        <pt x="1025" y="965" on="0"/>
        <pt x="1125" y="716" on="0"/>
        <pt x="1125" y="550" on="1"/>
        <pt x="1125" y="529" on="1"/>
        <pt x="1125" y="369" on="0"/>
        <pt x="1025" y="121" on="0"/>
        <pt x="827" y="-20" on="0"/>
        <pt x="685" y="-20" on="1"/>
        <pt x="523" y="-20" on="0"/>
        <pt x="422" y="120" on="1"/>
        <pt x="402" y="0" on="1"/>
        <pt x="91" y="0" on="1"/>
        <pt x="91" y="1536" on="1"/>
        <pt x="450" y="1536" on="1"/>
        <pt x="450" y="998" on="1"/>
        <pt x="543" y="1102" on="0"/>
        <pt x="683" y="1102" on="1"/>
      </contour>
      <contour>
        <pt x="766" y="550" on="1"/>
        <pt x="766" y="676" on="0"/>
        <pt x="688" y="814" on="0"/>
        <pt x="593" y="814" on="1"/>
        <pt x="494" y="814" on="0"/>
        <pt x="450" y="755" on="1"/>
        <pt x="450" y="327" on="1"/>
        <pt x="496" y="267" on="0"/>
        <pt x="595" y="267" on="1"/>
        <pt x="691" y="267" on="0"/>
        <pt x="766" y="405" on="0"/>
        <pt x="766" y="529" on="1"/>
      </contour>
    </TTGlyph>
    <TTGlyph name="backslash" xMin="-30" yMin="-125" xMax="956" yMax="1456">
      <contour>
        <pt x="348" y="1456" on="1"/>
        <pt x="956" y="-125" on="1"/>
        <pt x="577" y="-125" on="1"/>
        <pt x="-30" y="1456" on="1"/>
      </contour>
    </TTGlyph>
    <TTGlyph name="bar" xMin="172" yMin="-270" xMax="360" yMax="1456">
      <contour>
        <pt x="172" y="-270" on="1"/>
        <pt x="172" y="1456" on="1"/>
        <pt x="360" y="1456" on="1"/>
        <pt x="360" y="-270" on="1"/>
      </contour>
    </TTGlyph>
    <TTGlyph name="braceleft" xMin="37" yMin="-360" xMax="619" yMax="1597">
      <contour>
        <pt x="498" y="0" on="0"/>
        <pt x="552" y="-139" on="0"/>
        <pt x="619" y="-166" on="1"/>
        <pt x="552" y="-360" on="1"/>
        <pt x="358" y="-306" on="0"/>
        <pt x="192" y="-65" on="0"/>
        <pt x="192" y="106" on="1"/>
        <pt x="192" y="309" on="1"/>
        <pt x="192" y="396" on="0"/>
        <pt x="116" y="494" on="0"/>
        <pt x="37" y="494" on="1"/>
        <pt x="37" y="743" on="1"/>
        <pt x="116" y="743" on="0"/>
        <pt x="192" y="841" on="0"/>
        <pt x="192" y="929" on="1"/>
        <pt x="192" y="1132" on="1"/>
        <pt x="192" y="1303" on="0"/>
        <pt x="358" y="1543" on="0"/>
        <pt x="552" y="1597" on="1"/>
        <pt x="619" y="1404" on="1"/>
        <pt x="552" y="1377" on="0"/>
        <pt x="498" y="1239" on="0"/>
        <pt x="498" y="1132" on="1"/>
        <pt x="498" y="929" on="1"/>
        <pt x="498" y="826" on="0"/>
        <pt x="405" y="665" on="0"/>
        <pt x="310" y="619" on="1"/>
        <pt x="405" y="573" on="0"/>
        <pt x="498" y="412" on="0"/>
        <pt x="498" y="309" on="1"/>
        <pt x="498" y="106" on="1"/>
      </contour>
    </TTGlyph>
    <TTGlyph name="braceright" xMin="44" yMin="-360" xMax="626" yMax="1597">
      <contour>
        <pt x="471" y="841" on="0"/>
        <pt x="547" y="743" on="0"/>
        <pt x="626" y="743" on="1"/>
        <pt x="626" y="494" on="1"/>
        <pt x="547" y="494" on="0"/>
        <pt x="471" y="396" on="0"/>
        <pt x="471" y="309" on="1"/>
        <pt x="471" y="106" on="1"/>
        <pt x="471" y="-65" on="0"/>
        <pt x="305" y="-306" on="0"/>
        <pt x="111" y="-360" on="1"/>
        <pt x="44" y="-166" on="1"/>
        <pt x="111" y="-139" on="0"/>
        <pt x="165" y="0" on="0"/>
        <pt x="165" y="106" on="1"/>
        <pt x="165" y="309" on="1"/>
        <pt x="165" y="412" on="0"/>
        <pt x="256" y="573" on="0"/>
        <pt x="350" y="619" on="1"/>
        <pt x="256" y="665" on="0"/>
        <pt x="165" y="826" on="0"/>
        <pt x="165" y="929" on="1"/>
        <pt x="165" y="1132" on="1"/>
        <pt x="165" y="1239" on="0"/>
        <pt x="111" y="1377" on="0"/>
        <pt x="44" y="1404" on="1"/>
        <pt x="111" y="1597" on="1"/>
        <pt x="305" y="1543" on="0"/>
        <pt x="471" y="1303" on="0"/>
        <pt x="471" y="1132" on="1"/>
        <pt x="471" y="929" on="1"/>
      </contour>
    </TTGlyph>
    <TTGlyph name="bracketleft" xMin="103" yMin="-360" xMax="570" yMax="1719">
      <contour>
        <pt x="463" y="1447" on="1"/>
        <pt x="463" y="-90" on="1"/>
        <pt x="570" y="-90" on="1"/>
        <pt x="570" y="-360" on="1"/>
        <pt x="103" y="-360" on="1"/>
        <pt x="103" y="1719" on="1"/>
        <pt x="570" y="1719" on="1"/>
        <pt x="570" y="1447" on="1"/>
      </contour>
    </TTGlyph>
    <TTGlyph name="bracketright" xMin="15" yMin="-360" xMax="482" yMax="1719">
      <contour>
        <pt x="482" y="1719" on="1"/>
        <pt x="482" y="-360" on="1"/>
        <pt x="15" y="-360" on="1"/>
        <pt x="15" y="-90" on="1"/>
        <pt x="123" y="-90" on="1"/>
        <pt x="123" y="1447" on="1"/>
        <pt x="15" y="1447" on="1"/>
        <pt x="15" y="1719" on="1"/>
      </contour>
    </TTGlyph>
    <TTGlyph name="brokenbar" xMin="115" yMin="-270" xMax="422" yMax="1456">
      <contour>
        <pt x="115" y="698" on="1"/>
        <pt x="115" y="1456" on="1"/>
        <pt x="422" y="1456" on="1"/>
        <pt x="422" y="698" on="1"/>
      </contour>
      <contour>
        <pt x="115" y="525" on="1"/>
        <pt x="422" y="525" on="1"/>
        <pt x="422" y="-270" on="1"/>
        <pt x="115" y="-270" on="1"/>
      </contour>
    </TTGlyph>
    <TTGlyph name="bullet" xMin="134" yMin="474" xMax="656" yMax="1012">
      <contour>
        <pt x="134" y="832" on="0"/>
        <pt x="199" y="948" on="0"/>
        <pt x="316" y="1012" on="0"/>
        <pt x="393" y="1012" on="1"/>
        <pt x="474" y="1012" on="0"/>
        <pt x="593" y="948" on="0"/>
        <pt x="656" y="833" on="0"/>
        <pt x="656" y="759" on="1"/>
        <pt x="656" y="723" on="1"/>
        <pt x="656" y="650" on="0"/>
        <pt x="593" y="537" on="0"/>
        <pt x="475" y="474" on="0"/>
        <pt x="396" y="474" on="1"/>
        <pt x="318" y="474" on="0"/>
        <pt x="199" y="537" on="0"/>
        <pt x="134" y="650" on="0"/>
        <pt x="134" y="723" on="1"/>
        <pt x="134" y="759" on="1"/>
      </contour>
    </TTGlyph>
    <TTGlyph name="c" xMin="47" yMin="-20" xMax="1018" yMax="1102">
      <contour>
        <pt x="1017" y="399" on="1"/>
        <pt x="1018" y="272" on="0"/>
        <pt x="900" y="82" on="0"/>
        <pt x="690" y="-20" on="0"/>
        <pt x="557" y="-20" on="1"/>
        <pt x="392" y="-20" on="0"/>
        <pt x="162" y="120" on="0"/>
        <pt x="47" y="369" on="0"/>
        <pt x="47" y="532" on="1"/>
        <pt x="47" y="549" on="1"/>
        <pt x="47" y="712" on="0"/>
        <pt x="162" y="962" on="0"/>
        <pt x="391" y="1102" on="0"/>
        <pt x="555" y="1102" on="1"/>
        <pt x="692" y="1102" on="0"/>
        <pt x="902" y="999" on="0"/>
        <pt x="1018" y="798" on="0"/>
        <pt x="1017" y="656" on="1"/>
        <pt x="681" y="656" on="1"/>
        <pt x="683" y="726" on="0"/>
        <pt x="615" y="812" on="0"/>
        <pt x="546" y="812" on="1"/>
        <pt x="486" y="812" on="0"/>
        <pt x="425" y="746" on="0"/>
        <pt x="405" y="635" on="0"/>
        <pt x="405" y="549" on="1"/>
        <pt x="405" y="532" on="1"/>
        <pt x="405" y="444" on="0"/>
        <pt x="425" y="334" on="0"/>
        <pt x="487" y="270" on="0"/>
        <pt x="548" y="270" on="1"/>
        <pt x="615" y="270" on="0"/>
        <pt x="683" y="336" on="0"/>
        <pt x="681" y="399" on="1"/>
      </contour>
    </TTGlyph>
    <TTGlyph name="c.ss06" xMin="50" yMin="-20" xMax="1060" yMax="1102">
      <contour>
        <pt x="1060" y="399" on="1"/>
        <pt x="1057" y="272" on="0"/>
        <pt x="933" y="82" on="0"/>
        <pt x="720" y="-20" on="0"/>
        <pt x="587" y="-20" on="1"/>
        <pt x="421" y="-20" on="0"/>
        <pt x="178" y="121" on="0"/>
        <pt x="50" y="371" on="0"/>
        <pt x="50" y="532" on="1"/>
        <pt x="50" y="549" on="1"/>
        <pt x="50" y="710" on="0"/>
        <pt x="178" y="961" on="0"/>
        <pt x="420" y="1102" on="0"/>
        <pt x="585" y="1102" on="1"/>
        <pt x="722" y="1102" on="0"/>
        <pt x="935" y="999" on="0"/>
        <pt x="1057" y="798" on="0"/>
        <pt x="1060" y="656" on="1"/>
        <pt x="724" y="656" on="1"/>
        <pt x="723" y="725" on="0"/>
        <pt x="645" y="812" on="0"/>
        <pt x="575" y="812" on="1"/>
        <pt x="487" y="812" on="0"/>
        <pt x="409" y="671" on="0"/>
        <pt x="409" y="549" on="1"/>
        <pt x="409" y="532" on="1"/>
        <pt x="409" y="408" on="0"/>
        <pt x="487" y="270" on="0"/>
        <pt x="578" y="270" on="1"/>
        <pt x="646" y="270" on="0"/>
        <pt x="723" y="336" on="0"/>
        <pt x="724" y="399" on="1"/>
      </contour>
    </TTGlyph>
    <TTGlyph name="ccedilla" xMin="47" yMin="-480" xMax="1017" yMax="1102">
      <component glyphName=".ttfautohint" x="47" y="0" flags="0x0"/>
      <component glyphName="c" x="0" y="0" flags="0x0"/>
      <component glyphName="cedilla" x="326" y="3" flags="0x4"/>
    </TTGlyph>
    <TTGlyph name="cedilla" xMin="81" yMin="-483" xMax="526" yMax="13">
      <contour>
        <pt x="376" y="-51" on="1"/>
        <pt x="440" y="-62" on="0"/>
        <pt x="526" y="-145" on="0"/>
        <pt x="526" y="-224" on="1"/>
        <pt x="526" y="-303" on="0"/>
        <pt x="438" y="-419" on="0"/>
        <pt x="265" y="-483" on="0"/>
        <pt x="141" y="-483" on="1"/>
        <pt x="134" y="-275" on="1"/>
        <pt x="170" y="-275" on="0"/>
        <pt x="212" y="-240" on="0"/>
        <pt x="212" y="-203" on="1"/>
        <pt x="212" y="-169" on="0"/>
        <pt x="152" y="-140" on="0"/>
        <pt x="81" y="-136" on="1"/>
        <pt x="112" y="13" on="1"/>
        <pt x="386" y="13" on="1"/>
      </contour>
    </TTGlyph>
    <TTGlyph name="cent" xMin="99" yMin="-245" xMax="1070" yMax="1318">
      <contour>
        <pt x="1069" y="399" on="1"/>
        <pt x="1070" y="289" on="0"/>
        <pt x="982" y="117" on="0"/>
        <pt x="822" y="8" on="0"/>
        <pt x="716" y="-11" on="1"/>
        <pt x="716" y="-245" on="1"/>
        <pt x="516" y="-245" on="1"/>
        <pt x="516" y="-14" on="1"/>
        <pt x="380" y="5" on="0"/>
        <pt x="193" y="153" on="0"/>
        <pt x="99" y="385" on="0"/>
        <pt x="99" y="532" on="1"/>
        <pt x="99" y="549" on="1"/>
        <pt x="99" y="696" on="0"/>
        <pt x="193" y="929" on="0"/>
        <pt x="380" y="1077" on="0"/>
        <pt x="516" y="1096" on="1"/>
        <pt x="516" y="1318" on="1"/>
        <pt x="716" y="1318" on="1"/>
        <pt x="716" y="1093" on="1"/>
        <pt x="824" y="1074" on="0"/>
        <pt x="984" y="962" on="0"/>
        <pt x="1070" y="778" on="0"/>
        <pt x="1069" y="656" on="1"/>
        <pt x="733" y="656" on="1"/>
        <pt x="735" y="726" on="0"/>
        <pt x="667" y="812" on="0"/>
        <pt x="598" y="812" on="1"/>
        <pt x="538" y="812" on="0"/>
        <pt x="477" y="746" on="0"/>
        <pt x="457" y="635" on="0"/>
        <pt x="457" y="549" on="1"/>
        <pt x="457" y="532" on="1"/>
        <pt x="457" y="444" on="0"/>
        <pt x="477" y="334" on="0"/>
        <pt x="539" y="270" on="0"/>
        <pt x="600" y="270" on="1"/>
        <pt x="667" y="270" on="0"/>
        <pt x="735" y="336" on="0"/>
        <pt x="733" y="399" on="1"/>
      </contour>
    </TTGlyph>
    <TTGlyph name="circumflex" xMin="86" yMin="1239" xMax="965" yMax="1535">
      <contour>
        <pt x="965" y="1239" on="1"/>
        <pt x="684" y="1239" on="1"/>
        <pt x="522" y="1366" on="1"/>
        <pt x="361" y="1239" on="1"/>
        <pt x="86" y="1239" on="1"/>
        <pt x="86" y="1258" on="1"/>
        <pt x="420" y="1535" on="1"/>
        <pt x="625" y="1535" on="1"/>
        <pt x="965" y="1253" on="1"/>
      </contour>
    </TTGlyph>
    <TTGlyph name="colon" xMin="116" yMin="-11" xMax="508" yMax="1134">
      <component glyphName=".ttfautohint" x="116" y="0" flags="0x0"/>
      <component glyphName="period" x="3" y="0" flags="0x0"/>
      <component glyphName="period" x="3" y="775" flags="0x4"/>
    </TTGlyph>
    <TTGlyph name="comma" xMin="47" yMin="-421" xMax="437" yMax="263">
      <contour>
        <pt x="435" y="-97" on="0"/>
        <pt x="316" y="-341" on="0"/>
        <pt x="226" y="-421" on="1"/>
        <pt x="47" y="-340" on="1"/>
        <pt x="54" y="-323" on="0"/>
        <pt x="78" y="-275" on="1"/>
        <pt x="103" y="-226" on="0"/>
        <pt x="133" y="-154" on="0"/>
        <pt x="155" y="-55" on="0"/>
        <pt x="155" y="6" on="1"/>
        <pt x="155" y="263" on="1"/>
        <pt x="437" y="263" on="1"/>
        <pt x="435" y="29" on="1"/>
      </contour>
    </TTGlyph>
    <TTGlyph name="copyright" xMin="85" yMin="-20" xMax="1506" yMax="1476">
      <contour>
        <pt x="988" y="1476" on="0"/>
        <pt x="1315" y="1279" on="0"/>
        <pt x="1506" y="936" on="0"/>
        <pt x="1506" y="729" on="1"/>
        <pt x="1506" y="522" on="0"/>
        <pt x="1315" y="178" on="0"/>
        <pt x="988" y="-20" on="0"/>
        <pt x="795" y="-20" on="1"/>
        <pt x="601" y="-20" on="0"/>
        <pt x="276" y="178" on="0"/>
        <pt x="85" y="521" on="0"/>
        <pt x="85" y="729" on="1"/>
        <pt x="85" y="937" on="0"/>
        <pt x="276" y="1279" on="0"/>
        <pt x="601" y="1476" on="0"/>
        <pt x="795" y="1476" on="1"/>
      </contour>
      <contour>
        <pt x="955" y="105" on="0"/>
        <pt x="1224" y="270" on="0"/>
        <pt x="1382" y="556" on="0"/>
        <pt x="1382" y="729" on="1"/>
        <pt x="1382" y="902" on="0"/>
        <pt x="1224" y="1187" on="0"/>
        <pt x="955" y="1351" on="0"/>
        <pt x="795" y="1351" on="1"/>
        <pt x="634" y="1351" on="0"/>
        <pt x="365" y="1187" on="0"/>
        <pt x="207" y="902" on="0"/>
        <pt x="207" y="729" on="1"/>
        <pt x="207" y="556" on="0"/>
        <pt x="365" y="270" on="0"/>
        <pt x="635" y="105" on="0"/>
        <pt x="795" y="105" on="1"/>
      </contour>
      <contour>
        <pt x="1116" y="442" on="0"/>
        <pt x="939" y="282" on="0"/>
        <pt x="781" y="282" on="1"/>
        <pt x="675" y="282" on="0"/>
        <pt x="517" y="379" on="0"/>
        <pt x="432" y="554" on="0"/>
        <pt x="432" y="669" on="1"/>
        <pt x="432" y="788" on="1"/>
        <pt x="432" y="902" on="0"/>
        <pt x="517" y="1078" on="0"/>
        <pt x="675" y="1175" on="0"/>
        <pt x="781" y="1175" on="1"/>
        <pt x="939" y="1175" on="0"/>
        <pt x="1117" y="1015" on="0"/>
        <pt x="1117" y="861" on="1"/>
        <pt x="961" y="861" on="1"/>
        <pt x="961" y="955" on="0"/>
        <pt x="872" y="1040" on="0"/>
        <pt x="781" y="1040" on="1"/>
        <pt x="688" y="1040" on="0"/>
        <pt x="588" y="903" on="0"/>
        <pt x="588" y="789" on="1"/>
        <pt x="588" y="669" on="1"/>
        <pt x="588" y="554" on="0"/>
        <pt x="687" y="417" on="0"/>
        <pt x="781" y="417" on="1"/>
        <pt x="872" y="417" on="0"/>
        <pt x="960" y="501" on="0"/>
        <pt x="960" y="596" on="1"/>
        <pt x="1116" y="596" on="1"/>
      </contour>
    </TTGlyph>
    <TTGlyph name="crossbar" xMin="137" yMin="653" xMax="881" yMax="853">
      <contour>
        <pt x="137" y="653" on="1"/>
        <pt x="137" y="853" on="1"/>
        <pt x="881" y="853" on="1"/>
        <pt x="881" y="653" on="1"/>
      </contour>
    </TTGlyph>
    <TTGlyph name="currency" xMin="64" yMin="-27" xMax="1330" yMax="1265">
      <contour>
        <pt x="1289" y="512" on="0"/>
        <pt x="1238" y="335" on="0"/>
        <pt x="1191" y="259" on="1"/>
        <pt x="1330" y="118" on="1"/>
        <pt x="1188" y="-27" on="1"/>
        <pt x="1057" y="108" on="1"/>
        <pt x="980" y="46" on="0"/>
        <pt x="796" y="-20" on="0"/>
        <pt x="695" y="-20" on="1"/>
        <pt x="594" y="-20" on="0"/>
        <pt x="410" y="45" on="0"/>
        <pt x="334" y="106" on="1"/>
        <pt x="205" y="-26" on="1"/>
        <pt x="64" y="118" on="1"/>
        <pt x="200" y="256" on="1"/>
        <pt x="151" y="331" on="0"/>
        <pt x="99" y="510" on="0"/>
        <pt x="99" y="608" on="1"/>
        <pt x="99" y="710" on="0"/>
        <pt x="155" y="895" on="0"/>
        <pt x="208" y="973" on="1"/>
        <pt x="64" y="1120" on="1"/>
        <pt x="205" y="1264" on="1"/>
        <pt x="347" y="1119" on="1"/>
        <pt x="422" y="1175" on="0"/>
        <pt x="599" y="1234" on="0"/>
        <pt x="695" y="1234" on="1"/>
        <pt x="791" y="1234" on="0"/>
        <pt x="969" y="1173" on="0"/>
        <pt x="1044" y="1117" on="1"/>
        <pt x="1188" y="1265" on="1"/>
        <pt x="1330" y="1120" on="1"/>
        <pt x="1183" y="970" on="1"/>
        <pt x="1234" y="893" on="0"/>
        <pt x="1289" y="709" on="0"/>
        <pt x="1289" y="608" on="1"/>
      </contour>
      <contour>
        <pt x="807" y="176" on="0"/>
        <pt x="994" y="290" on="0"/>
        <pt x="1104" y="487" on="0"/>
        <pt x="1104" y="608" on="1"/>
        <pt x="1104" y="729" on="0"/>
        <pt x="994" y="926" on="0"/>
        <pt x="807" y="1039" on="0"/>
        <pt x="695" y="1039" on="1"/>
        <pt x="582" y="1039" on="0"/>
        <pt x="394" y="926" on="0"/>
        <pt x="285" y="729" on="0"/>
        <pt x="285" y="608" on="1"/>
        <pt x="285" y="487" on="0"/>
        <pt x="394" y="289" on="0"/>
        <pt x="582" y="176" on="0"/>
        <pt x="695" y="176" on="1"/>
      </contour>
    </TTGlyph>
    <TTGlyph name="d" xMin="47" yMin="-20" xMax="1062" yMax="1536">
      <contour>
        <pt x="1062" y="1536" on="1"/>
        <pt x="1062" y="0" on="1"/>
        <pt x="740" y="0" on="1"/>
        <pt x="722" y="120" on="1"/>
        <pt x="619" y="-20" on="0"/>
        <pt x="464" y="-20" on="1"/>
        <pt x="329" y="-20" on="0"/>
        <pt x="142" y="120" on="0"/>
        <pt x="47" y="368" on="0"/>
        <pt x="47" y="528" on="1"/>
        <pt x="47" y="549" on="1"/>
        <pt x="47" y="716" on="0"/>
        <pt x="141" y="965" on="0"/>
        <pt x="329" y="1102" on="0"/>
        <pt x="466" y="1102" on="1"/>
        <pt x="606" y="1102" on="0"/>
        <pt x="702" y="988" on="1"/>
        <pt x="702" y="1536" on="1"/>
      </contour>
      <contour>
        <pt x="606" y="268" on="0"/>
        <pt x="681" y="310" on="0"/>
        <pt x="702" y="349" on="1"/>
        <pt x="702" y="731" on="1"/>
        <pt x="663" y="814" on="0"/>
        <pt x="557" y="814" on="1"/>
        <pt x="405" y="814" on="0"/>
        <pt x="405" y="549" on="1"/>
        <pt x="405" y="528" on="1"/>
        <pt x="405" y="405" on="0"/>
        <pt x="472" y="268" on="0"/>
        <pt x="555" y="268" on="1"/>
      </contour>
    </TTGlyph>
    <TTGlyph name="d.ss06" xMin="51" yMin="-20" xMax="1086" yMax="1536">
      <contour>
        <pt x="1086" y="1536" on="1"/>
        <pt x="1086" y="0" on="1"/>
        <pt x="774" y="0" on="1"/>
        <pt x="751" y="126" on="1"/>
        <pt x="646" y="-20" on="0"/>
        <pt x="489" y="-20" on="1"/>
        <pt x="353" y="-20" on="0"/>
        <pt x="155" y="122" on="0"/>
        <pt x="51" y="371" on="0"/>
        <pt x="51" y="530" on="1"/>
        <pt x="51" y="551" on="1"/>
        <pt x="51" y="716" on="0"/>
        <pt x="155" y="965" on="0"/>
        <pt x="354" y="1102" on="0"/>
        <pt x="491" y="1102" on="1"/>
        <pt x="630" y="1102" on="0"/>
        <pt x="726" y="990" on="1"/>
        <pt x="726" y="1536" on="1"/>
      </contour>
      <contour>
        <pt x="627" y="268" on="0"/>
        <pt x="702" y="304" on="0"/>
        <pt x="726" y="338" on="1"/>
        <pt x="726" y="746" on="1"/>
        <pt x="679" y="814" on="0"/>
        <pt x="582" y="814" on="1"/>
        <pt x="498" y="814" on="0"/>
        <pt x="410" y="671" on="0"/>
        <pt x="410" y="551" on="1"/>
        <pt x="410" y="530" on="1"/>
        <pt x="410" y="413" on="0"/>
        <pt x="495" y="268" on="0"/>
        <pt x="580" y="268" on="1"/>
      </contour>
    </TTGlyph>
    <TTGlyph name="degree" xMin="125" yMin="906" xMax="689" yMax="1476">
      <contour>
        <pt x="485" y="1476" on="0"/>
        <pt x="613" y="1398" on="0"/>
        <pt x="689" y="1266" on="0"/>
        <pt x="689" y="1189" on="1"/>
        <pt x="689" y="1112" on="0"/>
        <pt x="614" y="982" on="0"/>
        <pt x="485" y="906" on="0"/>
        <pt x="410" y="906" on="1"/>
        <pt x="333" y="906" on="0"/>
        <pt x="202" y="982" on="0"/>
        <pt x="125" y="1112" on="0"/>
        <pt x="125" y="1189" on="1"/>
        <pt x="125" y="1266" on="0"/>
        <pt x="202" y="1398" on="0"/>
        <pt x="333" y="1476" on="0"/>
        <pt x="410" y="1476" on="1"/>
      </contour>
      <contour>
        <pt x="461" y="1065" on="0"/>
        <pt x="530" y="1135" on="0"/>
        <pt x="530" y="1189" on="1"/>
        <pt x="530" y="1243" on="0"/>
        <pt x="461" y="1317" on="0"/>
        <pt x="410" y="1317" on="1"/>
        <pt x="376" y="1317" on="0"/>
        <pt x="318" y="1283" on="0"/>
        <pt x="283" y="1225" on="0"/>
        <pt x="283" y="1189" on="1"/>
        <pt x="283" y="1154" on="0"/>
        <pt x="318" y="1098" on="0"/>
        <pt x="376" y="1065" on="0"/>
        <pt x="410" y="1065" on="1"/>
      </contour>
    </TTGlyph>
    <TTGlyph name="dieresis" xMin="96" yMin="1224" xMax="942" yMax="1505">
      <contour>
        <pt x="827" y="1505" on="0"/>
        <pt x="899" y="1468" on="0"/>
        <pt x="942" y="1404" on="0"/>
        <pt x="942" y="1365" on="1"/>
        <pt x="942" y="1326" on="0"/>
        <pt x="899" y="1262" on="0"/>
        <pt x="827" y="1225" on="0"/>
        <pt x="785" y="1225" on="1"/>
        <pt x="743" y="1225" on="0"/>
        <pt x="672" y="1262" on="0"/>
        <pt x="629" y="1326" on="0"/>
        <pt x="629" y="1365" on="1"/>
        <pt x="629" y="1404" on="0"/>
        <pt x="672" y="1468" on="0"/>
        <pt x="743" y="1505" on="0"/>
        <pt x="785" y="1505" on="1"/>
      </contour>
      <contour>
        <pt x="294" y="1504" on="0"/>
        <pt x="366" y="1467" on="0"/>
        <pt x="409" y="1403" on="0"/>
        <pt x="409" y="1364" on="1"/>
        <pt x="409" y="1325" on="0"/>
        <pt x="366" y="1261" on="0"/>
        <pt x="294" y="1224" on="0"/>
        <pt x="252" y="1224" on="1"/>
        <pt x="210" y="1224" on="0"/>
        <pt x="139" y="1261" on="0"/>
        <pt x="96" y="1325" on="0"/>
        <pt x="96" y="1364" on="1"/>
        <pt x="96" y="1403" on="0"/>
        <pt x="139" y="1467" on="0"/>
        <pt x="210" y="1504" on="0"/>
        <pt x="252" y="1504" on="1"/>
      </contour>
    </TTGlyph>
    <TTGlyph name="divide" xMin="58" yMin="97" xMax="1109" yMax="1260">
      <contour>
        <pt x="639" y="1260" on="0"/>
        <pt x="728" y="1215" on="0"/>
        <pt x="778" y="1134" on="0"/>
        <pt x="778" y="1082" on="1"/>
        <pt x="778" y="1030" on="0"/>
        <pt x="728" y="948" on="0"/>
        <pt x="639" y="903" on="0"/>
        <pt x="582" y="903" on="1"/>
        <pt x="525" y="903" on="0"/>
        <pt x="435" y="948" on="0"/>
        <pt x="385" y="1030" on="0"/>
        <pt x="385" y="1082" on="1"/>
        <pt x="385" y="1134" on="0"/>
        <pt x="435" y="1215" on="0"/>
        <pt x="525" y="1260" on="0"/>
        <pt x="582" y="1260" on="1"/>
      </contour>
      <contour>
        <pt x="58" y="554" on="1"/>
        <pt x="58" y="813" on="1"/>
        <pt x="1109" y="813" on="1"/>
        <pt x="1109" y="554" on="1"/>
      </contour>
      <contour>
        <pt x="639" y="454" on="0"/>
        <pt x="728" y="409" on="0"/>
        <pt x="778" y="328" on="0"/>
        <pt x="778" y="276" on="1"/>
        <pt x="778" y="224" on="0"/>
        <pt x="728" y="143" on="0"/>
        <pt x="639" y="97" on="0"/>
        <pt x="582" y="97" on="1"/>
        <pt x="525" y="97" on="0"/>
        <pt x="435" y="143" on="0"/>
        <pt x="385" y="224" on="0"/>
        <pt x="385" y="276" on="1"/>
        <pt x="385" y="328" on="0"/>
        <pt x="435" y="409" on="0"/>
        <pt x="525" y="454" on="0"/>
        <pt x="582" y="454" on="1"/>
      </contour>
    </TTGlyph>
    <TTGlyph name="dollar" xMin="79" yMin="-221" xMax="1116" yMax="1682">
      <contour>
        <pt x="810" y="809" on="0"/>
        <pt x="992" y="696" on="0"/>
        <pt x="1106" y="522" on="0"/>
        <pt x="1106" y="390" on="1"/>
        <pt x="1106" y="274" on="0"/>
        <pt x="1005" y="99" on="0"/>
        <pt x="822" y="-4" on="0"/>
        <pt x="699" y="-17" on="1"/>
        <pt x="699" y="-221" on="1"/>
        <pt x="540" y="-221" on="1"/>
        <pt x="540" y="-17" on="1"/>
        <pt x="414" y="-4" on="0"/>
        <pt x="206" y="106" on="0"/>
        <pt x="79" y="319" on="0"/>
        <pt x="79" y="478" on="1"/>
        <pt x="438" y="478" on="1"/>
        <pt x="438" y="362" on="0"/>
        <pt x="540" y="259" on="0"/>
        <pt x="621" y="259" on="1"/>
        <pt x="684" y="259" on="0"/>
        <pt x="747" y="333" on="0"/>
        <pt x="747" y="388" on="1"/>
        <pt x="747" y="441" on="0"/>
        <pt x="717" y="507" on="0"/>
        <pt x="652" y="553" on="0"/>
        <pt x="590" y="580" on="1"/>
        <pt x="423" y="652" on="0"/>
        <pt x="243" y="760" on="0"/>
        <pt x="132" y="931" on="0"/>
        <pt x="132" y="1065" on="1"/>
        <pt x="132" y="1178" on="0"/>
        <pt x="239" y="1356" on="0"/>
        <pt x="433" y="1463" on="0"/>
        <pt x="560" y="1474" on="1"/>
        <pt x="560" y="1682" on="1"/>
        <pt x="719" y="1682" on="1"/>
        <pt x="719" y="1470" on="1"/>
        <pt x="838" y="1452" on="0"/>
        <pt x="1018" y="1331" on="0"/>
        <pt x="1116" y="1134" on="0"/>
        <pt x="1116" y="1006" on="1"/>
        <pt x="757" y="1006" on="1"/>
        <pt x="757" y="1197" on="0"/>
        <pt x="616" y="1197" on="1"/>
        <pt x="553" y="1197" on="0"/>
        <pt x="491" y="1119" on="0"/>
        <pt x="491" y="1062" on="1"/>
        <pt x="491" y="1021" on="0"/>
        <pt x="519" y="963" on="0"/>
        <pt x="586" y="912" on="0"/>
        <pt x="648" y="883" on="1"/>
      </contour>
    </TTGlyph>
    <TTGlyph name="dollar.smcp" xMin="53" yMin="-237" xMax="1054" yMax="1395">
      <contour>
        <pt x="752" y="703" on="0"/>
        <pt x="951" y="607" on="0"/>
        <pt x="1048" y="454" on="0"/>
        <pt x="1048" y="337" on="1"/>
        <pt x="1048" y="185" on="0"/>
        <pt x="839" y="4" on="0"/>
        <pt x="657" y="-12" on="1"/>
        <pt x="657" y="-237" on="1"/>
        <pt x="497" y="-237" on="1"/>
        <pt x="497" y="-13" on="1"/>
        <pt x="374" y="-2" on="0"/>
        <pt x="174" y="88" on="0"/>
        <pt x="53" y="260" on="0"/>
        <pt x="53" y="387" on="1"/>
        <pt x="413" y="387" on="1"/>
        <pt x="413" y="333" on="0"/>
        <pt x="447" y="269" on="0"/>
        <pt x="529" y="240" on="0"/>
        <pt x="603" y="240" on="1"/>
        <pt x="668" y="240" on="0"/>
        <pt x="714" y="295" on="0"/>
        <pt x="714" y="323" on="1"/>
        <pt x="714" y="368" on="0"/>
        <pt x="629" y="425" on="0"/>
        <pt x="525" y="448" on="1"/>
        <pt x="358" y="487" on="0"/>
        <pt x="175" y="574" on="0"/>
        <pt x="93" y="710" on="0"/>
        <pt x="93" y="822" on="1"/>
        <pt x="93" y="920" on="0"/>
        <pt x="198" y="1076" on="0"/>
        <pt x="382" y="1170" on="0"/>
        <pt x="497" y="1179" on="1"/>
        <pt x="497" y="1395" on="1"/>
        <pt x="657" y="1395" on="1"/>
        <pt x="657" y="1175" on="1"/>
        <pt x="838" y="1154" on="0"/>
        <pt x="1054" y="972" on="0"/>
        <pt x="1054" y="812" on="1"/>
        <pt x="695" y="812" on="1"/>
        <pt x="695" y="839" on="0"/>
        <pt x="658" y="891" on="0"/>
        <pt x="593" y="925" on="0"/>
        <pt x="552" y="925" on="1"/>
        <pt x="511" y="925" on="0"/>
        <pt x="454" y="896" on="0"/>
        <pt x="426" y="856" on="0"/>
        <pt x="426" y="841" on="1"/>
        <pt x="426" y="816" on="0"/>
        <pt x="456" y="780" on="0"/>
        <pt x="525" y="751" on="0"/>
        <pt x="588" y="736" on="1"/>
      </contour>
    </TTGlyph>
    <TTGlyph name="dotlessi" xMin="119" yMin="0" xMax="479" yMax="1082">
      <contour>
        <pt x="119" y="0" on="1"/>
        <pt x="119" y="1082" on="1"/>
        <pt x="479" y="1082" on="1"/>
        <pt x="479" y="0" on="1"/>
      </contour>
    </TTGlyph>
    <TTGlyph name="e" xMin="56" yMin="-20" xMax="1083" yMax="1102">
      <contour>
        <pt x="1083" y="421" on="1"/>
        <pt x="426" y="421" on="1"/>
        <pt x="448" y="349" on="0"/>
        <pt x="563" y="270" on="0"/>
        <pt x="647" y="270" on="1"/>
        <pt x="719" y="270" on="0"/>
        <pt x="848" y="318" on="0"/>
        <pt x="893" y="372" on="1"/>
        <pt x="1052" y="163" on="1"/>
        <pt x="1016" y="115" on="0"/>
        <pt x="891" y="32" on="0"/>
        <pt x="721" y="-20" on="0"/>
        <pt x="623" y="-20" on="1"/>
        <pt x="449" y="-20" on="0"/>
        <pt x="191" y="124" on="0"/>
        <pt x="56" y="365" on="0"/>
        <pt x="56" y="506" on="1"/>
        <pt x="56" y="543" on="1"/>
        <pt x="56" y="700" on="0"/>
        <pt x="172" y="953" on="0"/>
        <pt x="410" y="1102" on="0"/>
        <pt x="585" y="1102" on="1"/>
        <pt x="737" y="1102" on="0"/>
        <pt x="962" y="976" on="0"/>
        <pt x="1083" y="738" on="0"/>
        <pt x="1083" y="574" on="1"/>
      </contour>
      <contour>
        <pt x="738" y="812" on="0"/>
        <pt x="582" y="812" on="1"/>
        <pt x="508" y="812" on="0"/>
        <pt x="434" y="724" on="0"/>
        <pt x="422" y="648" on="1"/>
        <pt x="734" y="648" on="1"/>
        <pt x="734" y="677" on="1"/>
      </contour>
    </TTGlyph>
    <TTGlyph name="e.ss07" xMin="56" yMin="-20" xMax="1083" yMax="1102">
      <contour>
        <pt x="1083" y="421" on="1"/>
        <pt x="424" y="421" on="1"/>
        <pt x="443" y="347" on="0"/>
        <pt x="570" y="270" on="0"/>
        <pt x="687" y="270" on="1"/>
        <pt x="754" y="270" on="0"/>
        <pt x="922" y="303" on="0"/>
        <pt x="980" y="330" on="1"/>
        <pt x="1033" y="76" on="1"/>
        <pt x="962" y="35" on="0"/>
        <pt x="747" y="-20" on="0"/>
        <pt x="624" y="-20" on="1"/>
        <pt x="453" y="-20" on="0"/>
        <pt x="195" y="119" on="0"/>
        <pt x="56" y="356" on="0"/>
        <pt x="56" y="500" on="1"/>
        <pt x="56" y="537" on="1"/>
        <pt x="56" y="696" on="0"/>
        <pt x="172" y="952" on="0"/>
        <pt x="410" y="1102" on="0"/>
        <pt x="585" y="1102" on="1"/>
        <pt x="737" y="1102" on="0"/>
        <pt x="962" y="972" on="0"/>
        <pt x="1083" y="729" on="0"/>
        <pt x="1083" y="562" on="1"/>
      </contour>
      <contour>
        <pt x="734" y="674" on="1"/>
        <pt x="734" y="746" on="0"/>
        <pt x="661" y="812" on="0"/>
        <pt x="585" y="812" on="1"/>
        <pt x="450" y="812" on="0"/>
        <pt x="423" y="648" on="1"/>
        <pt x="734" y="648" on="1"/>
      </contour>
    </TTGlyph>
    <TTGlyph name="eacute" xMin="56" yMin="-20" xMax="1083" yMax="1537">
      <component glyphName=".ttfautohint" x="56" y="0" flags="0x0"/>
      <component glyphName="e" x="0" y="0" flags="0x0"/>
      <component glyphName="acutecomb" x="1044" y="1" flags="0x4"/>
    </TTGlyph>
    <TTGlyph name="ecircumflex" xMin="56" yMin="-20" xMax="1083" yMax="1536">
      <component glyphName=".ttfautohint" x="56" y="0" flags="0x0"/>
      <component glyphName="e" x="0" y="0" flags="0x0"/>
      <component glyphName="circumflex" x="7" y="1" flags="0x4"/>
    </TTGlyph>
    <TTGlyph name="edieresis" xMin="56" yMin="-20" xMax="1083" yMax="1506">
      <component glyphName=".ttfautohint" x="56" y="0" flags="0x0"/>
      <component glyphName="e" x="0" y="0" flags="0x0"/>
      <component glyphName="dieresis" x="8" y="1" flags="0x4"/>
    </TTGlyph>
    <TTGlyph name="egrave" xMin="56" yMin="-20" xMax="1083" yMax="1537">
      <component glyphName=".ttfautohint" x="56" y="0" flags="0x0"/>
      <component glyphName="e" x="0" y="0" flags="0x0"/>
      <component glyphName="gravecomb" x="1080" y="1" flags="0x4"/>
    </TTGlyph>
    <TTGlyph name="eight" xMin="80" yMin="-20" xMax="1110" yMax="1477">
      <contour>
        <pt x="995" y="699" on="0"/>
        <pt x="1110" y="521" on="0"/>
        <pt x="1110" y="403" on="1"/>
        <pt x="1110" y="265" on="0"/>
        <pt x="980" y="75" on="0"/>
        <pt x="749" y="-20" on="0"/>
        <pt x="598" y="-20" on="1"/>
        <pt x="447" y="-20" on="0"/>
        <pt x="213" y="75" on="0"/>
        <pt x="80" y="265" on="0"/>
        <pt x="80" y="403" on="1"/>
        <pt x="80" y="521" on="0"/>
        <pt x="199" y="699" on="0"/>
        <pt x="304" y="751" on="1"/>
        <pt x="212" y="801" on="0"/>
        <pt x="111" y="961" on="0"/>
        <pt x="111" y="1064" on="1"/>
        <pt x="111" y="1196" on="0"/>
        <pt x="234" y="1382" on="0"/>
        <pt x="453" y="1477" on="0"/>
        <pt x="595" y="1477" on="1"/>
        <pt x="739" y="1477" on="0"/>
        <pt x="958" y="1382" on="0"/>
        <pt x="1081" y="1196" on="0"/>
        <pt x="1081" y="1064" on="1"/>
        <pt x="1081" y="961" on="0"/>
        <pt x="981" y="799" on="0"/>
        <pt x="891" y="750" on="1"/>
      </contour>
      <contour>
        <pt x="534" y="1187" on="0"/>
        <pt x="471" y="1112" on="0"/>
        <pt x="471" y="1042" on="1"/>
        <pt x="471" y="971" on="0"/>
        <pt x="535" y="889" on="0"/>
        <pt x="598" y="889" on="1"/>
        <pt x="660" y="889" on="0"/>
        <pt x="723" y="971" on="0"/>
        <pt x="723" y="1042" on="1"/>
        <pt x="723" y="1112" on="0"/>
        <pt x="659" y="1187" on="0"/>
        <pt x="595" y="1187" on="1"/>
      </contour>
      <contour>
        <pt x="666" y="270" on="0"/>
        <pt x="750" y="360" on="0"/>
        <pt x="750" y="436" on="1"/>
        <pt x="750" y="515" on="0"/>
        <pt x="667" y="599" on="0"/>
        <pt x="596" y="599" on="1"/>
        <pt x="525" y="599" on="0"/>
        <pt x="440" y="515" on="0"/>
        <pt x="440" y="436" on="1"/>
        <pt x="440" y="360" on="0"/>
        <pt x="528" y="270" on="0"/>
        <pt x="598" y="270" on="1"/>
      </contour>
    </TTGlyph>
    <TTGlyph name="eight.frac" xMin="66" yMin="653" xMax="704" yMax="1465">
      <component glyphName=".ttfautohint" x="66" y="653" flags="0x0"/>
      <component glyphName="eight.sup" x="0" y="664" flags="0x4"/>
    </TTGlyph>
    <TTGlyph name="eight.smcp" xMin="64" yMin="-16" xMax="1017" yMax="1182">
      <contour>
        <pt x="921" y="558" on="0"/>
        <pt x="1017" y="419" on="0"/>
        <pt x="1017" y="325" on="1"/>
        <pt x="1017" y="156" on="0"/>
        <pt x="759" y="-16" on="0"/>
        <pt x="542" y="-16" on="1"/>
        <pt x="402" y="-16" on="0"/>
        <pt x="187" y="59" on="0"/>
        <pt x="64" y="212" on="0"/>
        <pt x="64" y="325" on="1"/>
        <pt x="64" y="420" on="0"/>
        <pt x="161" y="559" on="0"/>
        <pt x="249" y="601" on="1"/>
        <pt x="174" y="641" on="0"/>
        <pt x="91" y="766" on="0"/>
        <pt x="91" y="846" on="1"/>
        <pt x="91" y="955" on="0"/>
        <pt x="206" y="1106" on="0"/>
        <pt x="408" y="1182" on="0"/>
        <pt x="540" y="1182" on="1"/>
        <pt x="675" y="1182" on="0"/>
        <pt x="877" y="1106" on="0"/>
        <pt x="989" y="956" on="0"/>
        <pt x="989" y="846" on="1"/>
        <pt x="989" y="765" on="0"/>
        <pt x="909" y="640" on="0"/>
        <pt x="834" y="600" on="1"/>
      </contour>
      <contour>
        <pt x="450" y="892" on="0"/>
        <pt x="450" y="820" on="1"/>
        <pt x="450" y="782" on="0"/>
        <pt x="495" y="737" on="0"/>
        <pt x="542" y="737" on="1"/>
        <pt x="631" y="737" on="0"/>
        <pt x="631" y="820" on="1"/>
        <pt x="631" y="859" on="0"/>
        <pt x="590" y="892" on="0"/>
        <pt x="540" y="892" on="1"/>
      </contour>
      <contour>
        <pt x="594" y="273" on="0"/>
        <pt x="658" y="323" on="0"/>
        <pt x="658" y="365" on="1"/>
        <pt x="658" y="409" on="0"/>
        <pt x="596" y="446" on="0"/>
        <pt x="540" y="446" on="1"/>
        <pt x="424" y="446" on="0"/>
        <pt x="424" y="365" on="1"/>
        <pt x="424" y="324" on="0"/>
        <pt x="491" y="273" on="0"/>
        <pt x="542" y="273" on="1"/>
      </contour>
    </TTGlyph>
    <TTGlyph name="eight.sup" xMin="66" yMin="-11" xMax="704" yMax="801">
      <contour>
        <pt x="638" y="378" on="0"/>
        <pt x="704" y="284" on="0"/>
        <pt x="704" y="220" on="1"/>
        <pt x="704" y="106" on="0"/>
        <pt x="531" y="-11" on="0"/>
        <pt x="386" y="-11" on="1"/>
        <pt x="242" y="-11" on="0"/>
        <pt x="66" y="107" on="0"/>
        <pt x="66" y="220" on="1"/>
        <pt x="66" y="284" on="0"/>
        <pt x="132" y="378" on="0"/>
        <pt x="192" y="407" on="1"/>
        <pt x="141" y="434" on="0"/>
        <pt x="84" y="519" on="0"/>
        <pt x="84" y="574" on="1"/>
        <pt x="84" y="684" on="0"/>
        <pt x="249" y="801" on="0"/>
        <pt x="384" y="801" on="1"/>
        <pt x="522" y="801" on="0"/>
        <pt x="686" y="684" on="0"/>
        <pt x="686" y="574" on="1"/>
        <pt x="686" y="519" on="0"/>
        <pt x="630" y="434" on="0"/>
        <pt x="579" y="407" on="1"/>
      </contour>
      <contour>
        <pt x="318" y="613" on="0"/>
        <pt x="318" y="557" on="1"/>
        <pt x="318" y="529" on="0"/>
        <pt x="352" y="495" on="0"/>
        <pt x="386" y="495" on="1"/>
        <pt x="452" y="495" on="0"/>
        <pt x="452" y="557" on="1"/>
        <pt x="452" y="587" on="0"/>
        <pt x="420" y="613" on="0"/>
        <pt x="384" y="613" on="1"/>
      </contour>
      <contour>
        <pt x="425" y="177" on="0"/>
        <pt x="471" y="214" on="0"/>
        <pt x="471" y="246" on="1"/>
        <pt x="471" y="308" on="0"/>
        <pt x="384" y="308" on="1"/>
        <pt x="346" y="308" on="0"/>
        <pt x="300" y="278" on="0"/>
        <pt x="300" y="246" on="1"/>
        <pt x="300" y="214" on="0"/>
        <pt x="348" y="177" on="0"/>
        <pt x="386" y="177" on="1"/>
      </contour>
    </TTGlyph>
    <TTGlyph name="eight.tnum" xMin="80" yMin="-20" xMax="1110" yMax="1477">
      <component glyphName=".ttfautohint" x="80" y="0" flags="0x0"/>
      <component glyphName="eight" x="0" y="0" flags="0x0"/>
    </TTGlyph>
    <TTGlyph name="ellipsis" xMin="126" yMin="-11" xMax="1512" yMax="359">
      <component glyphName=".ttfautohint" x="126" y="0" flags="0x0"/>
      <component glyphName="period" x="13" y="0" flags="0x0"/>
      <component glyphName="period" x="509" y="0" flags="0x0"/>
      <component glyphName="period" x="1007" y="0" flags="0x0"/>
    </TTGlyph>
    <TTGlyph name="emdash" xMin="77" yMin="558" xMax="1495" yMax="853">
      <component glyphName=".ttfautohint" x="77" y="558" flags="0x0"/>
      <component glyphName="minus" x="-131" y="0" scalex="1.6" scaley="1.0" flags="0x0"/>
    </TTGlyph>
    <TTGlyph name="endash" xMin="143" yMin="558" xMax="1206" yMax="853">
      <component glyphName=".ttfautohint" x="143" y="558" flags="0x0"/>
      <component glyphName="minus" x="-13" y="0" scalex="1.2" scaley="1.0" flags="0x0"/>
    </TTGlyph>
    <TTGlyph name="equal" xMin="124" yMin="249" xMax="1065" yMax="982">
      <contour>
        <pt x="124" y="695" on="1"/>
        <pt x="124" y="982" on="1"/>
        <pt x="1065" y="982" on="1"/>
        <pt x="1065" y="695" on="1"/>
      </contour>
      <contour>
        <pt x="124" y="249" on="1"/>
        <pt x="124" y="536" on="1"/>
        <pt x="1065" y="536" on="1"/>
        <pt x="1065" y="249" on="1"/>
      </contour>
    </TTGlyph>
    <TTGlyph name="eth" xMin="56" yMin="-20" xMax="1132" yMax="1578">
      <contour>
        <pt x="998" y="1184" on="0"/>
        <pt x="1132" y="857" on="0"/>
        <pt x="1132" y="662" on="1"/>
        <pt x="1132" y="610" on="1"/>
        <pt x="1132" y="426" on="0"/>
        <pt x="988" y="139" on="0"/>
        <pt x="736" y="-20" on="0"/>
        <pt x="578" y="-20" on="1"/>
        <pt x="425" y="-20" on="0"/>
        <pt x="187" y="109" on="0"/>
        <pt x="56" y="332" on="0"/>
        <pt x="56" y="468" on="1"/>
        <pt x="56" y="616" on="0"/>
        <pt x="157" y="835" on="0"/>
        <pt x="361" y="955" on="0"/>
        <pt x="510" y="955" on="1"/>
        <pt x="635" y="955" on="0"/>
        <pt x="732" y="899" on="1"/>
        <pt x="685" y="1028" on="0"/>
        <pt x="577" y="1128" on="1"/>
        <pt x="408" y="1026" on="1"/>
        <pt x="330" y="1148" on="1"/>
        <pt x="450" y="1220" on="1"/>
        <pt x="350" y="1279" on="0"/>
        <pt x="224" y="1312" on="1"/>
        <pt x="338" y="1578" on="1"/>
        <pt x="576" y="1531" on="0"/>
        <pt x="756" y="1404" on="1"/>
        <pt x="913" y="1499" on="1"/>
        <pt x="989" y="1377" on="1"/>
        <pt x="873" y="1307" on="1"/>
      </contour>
      <contour>
        <pt x="677" y="270" on="0"/>
        <pt x="772" y="428" on="0"/>
        <pt x="772" y="558" on="1"/>
        <pt x="772" y="637" on="1"/>
        <pt x="744" y="661" on="0"/>
        <pt x="651" y="690" on="0"/>
        <pt x="588" y="690" on="1"/>
        <pt x="499" y="690" on="0"/>
        <pt x="415" y="575" on="0"/>
        <pt x="415" y="468" on="1"/>
        <pt x="415" y="375" on="0"/>
        <pt x="504" y="270" on="0"/>
        <pt x="582" y="270" on="1"/>
      </contour>
    </TTGlyph>
    <TTGlyph name="exclam" xMin="94" yMin="-20" xMax="490" yMax="1456">
      <contour>
        <pt x="152" y="476" on="1"/>
        <pt x="105" y="1456" on="1"/>
        <pt x="488" y="1456" on="1"/>
        <pt x="440" y="476" on="1"/>
      </contour>
      <contour>
        <pt x="350" y="354" on="0"/>
        <pt x="440" y="305" on="0"/>
        <pt x="490" y="220" on="0"/>
        <pt x="490" y="167" on="1"/>
        <pt x="490" y="114" on="0"/>
        <pt x="440" y="29" on="0"/>
        <pt x="350" y="-20" on="0"/>
        <pt x="293" y="-20" on="1"/>
        <pt x="236" y="-20" on="0"/>
        <pt x="145" y="29" on="0"/>
        <pt x="94" y="114" on="0"/>
        <pt x="94" y="167" on="1"/>
        <pt x="94" y="220" on="0"/>
        <pt x="145" y="305" on="0"/>
        <pt x="236" y="354" on="0"/>
        <pt x="293" y="354" on="1"/>
      </contour>
    </TTGlyph>
    <TTGlyph name="exclamdown" xMin="121" yMin="-375" xMax="517" yMax="1102">
      <contour>
        <pt x="262" y="729" on="0"/>
        <pt x="171" y="778" on="0"/>
        <pt x="121" y="862" on="0"/>
        <pt x="121" y="915" on="1"/>
        <pt x="121" y="968" on="0"/>
        <pt x="171" y="1053" on="0"/>
        <pt x="261" y="1102" on="0"/>
        <pt x="319" y="1102" on="1"/>
        <pt x="376" y="1102" on="0"/>
        <pt x="466" y="1053" on="0"/>
        <pt x="517" y="968" on="0"/>
        <pt x="517" y="915" on="1"/>
        <pt x="517" y="862" on="0"/>
        <pt x="466" y="778" on="0"/>
        <pt x="376" y="729" on="0"/>
        <pt x="319" y="729" on="1"/>
      </contour>
      <contour>
        <pt x="459" y="605" on="1"/>
        <pt x="507" y="-375" on="1"/>
        <pt x="124" y="-375" on="1"/>
        <pt x="171" y="605" on="1"/>
      </contour>
    </TTGlyph>
    <TTGlyph name="f" xMin="5" yMin="0" xMax="749" yMax="1557">
      <contour>
        <pt x="520" y="1082" on="1"/>
        <pt x="728" y="1082" on="1"/>
        <pt x="728" y="823" on="1"/>
        <pt x="520" y="823" on="1"/>
        <pt x="520" y="0" on="1"/>
        <pt x="160" y="0" on="1"/>
        <pt x="160" y="823" on="1"/>
        <pt x="5" y="823" on="1"/>
        <pt x="5" y="1082" on="1"/>
        <pt x="160" y="1082" on="1"/>
        <pt x="160" y="1163" on="1"/>
        <pt x="160" y="1289" on="0"/>
        <pt x="263" y="1466" on="0"/>
        <pt x="453" y="1557" on="0"/>
        <pt x="583" y="1557" on="1"/>
        <pt x="654" y="1557" on="0"/>
        <pt x="746" y="1535" on="1"/>
        <pt x="749" y="1260" on="1"/>
        <pt x="714" y="1269" on="0"/>
        <pt x="668" y="1269" on="1"/>
        <pt x="597" y="1269" on="0"/>
        <pt x="520" y="1215" on="0"/>
        <pt x="520" y="1163" on="1"/>
      </contour>
    </TTGlyph>
    <TTGlyph name="f_f" xMin="5" yMin="0" xMax="1495" yMax="1557">
      <component glyphName=".ttfautohint" x="5" y="0" flags="0x0"/>
      <component glyphName="f" x="0" y="0" flags="0x0"/>
      <component glyphName="f" x="746" y="0" flags="0x0"/>
    </TTGlyph>
    <TTGlyph name="f_f_i" xMin="5" yMin="0" xMax="1908" yMax="1557">
      <contour>
        <pt x="1214" y="1082" on="1"/>
        <pt x="1425" y="1082" on="1"/>
        <pt x="1425" y="823" on="1"/>
        <pt x="1214" y="823" on="1"/>
        <pt x="1214" y="0" on="1"/>
        <pt x="854" y="0" on="1"/>
        <pt x="854" y="823" on="1"/>
        <pt x="520" y="823" on="1"/>
        <pt x="520" y="0" on="1"/>
        <pt x="160" y="0" on="1"/>
        <pt x="160" y="823" on="1"/>
        <pt x="5" y="823" on="1"/>
        <pt x="5" y="1082" on="1"/>
        <pt x="160" y="1082" on="1"/>
        <pt x="160" y="1163" on="1"/>
        <pt x="160" y="1289" on="0"/>
        <pt x="263" y="1466" on="0"/>
        <pt x="453" y="1557" on="0"/>
        <pt x="583" y="1557" on="1"/>
        <pt x="654" y="1557" on="0"/>
        <pt x="746" y="1535" on="1"/>
        <pt x="749" y="1260" on="1"/>
        <pt x="714" y="1269" on="0"/>
        <pt x="668" y="1269" on="1"/>
        <pt x="597" y="1269" on="0"/>
        <pt x="520" y="1215" on="0"/>
        <pt x="520" y="1163" on="1"/>
        <pt x="520" y="1082" on="1"/>
        <pt x="854" y="1082" on="1"/>
        <pt x="854" y="1091" on="1"/>
        <pt x="854" y="1317" on="0"/>
        <pt x="1129" y="1557" on="0"/>
        <pt x="1382" y="1557" on="1"/>
        <pt x="1470" y="1557" on="0"/>
        <pt x="1640" y="1528" on="0"/>
        <pt x="1745" y="1500" on="1"/>
        <pt x="1696" y="1204" on="1"/>
        <pt x="1675" y="1209" on="1"/>
        <pt x="1602" y="1227" on="0"/>
        <pt x="1485" y="1246" on="0"/>
        <pt x="1403" y="1246" on="1"/>
        <pt x="1315" y="1246" on="0"/>
        <pt x="1214" y="1165" on="0"/>
        <pt x="1214" y="1091" on="1"/>
      </contour>
      <contour>
        <pt x="1908" y="1082" on="1"/>
        <pt x="1908" y="0" on="1"/>
        <pt x="1548" y="0" on="1"/>
        <pt x="1548" y="1082" on="1"/>
      </contour>
    </TTGlyph>
    <TTGlyph name="f_f_l" xMin="5" yMin="0" xMax="1908" yMax="1557">
      <contour>
        <pt x="1491" y="1557" on="0"/>
        <pt x="1908" y="1548" on="1"/>
        <pt x="1908" y="0" on="1"/>
        <pt x="1548" y="0" on="1"/>
        <pt x="1548" y="1263" on="1"/>
        <pt x="1480" y="1269" on="0"/>
        <pt x="1410" y="1269" on="1"/>
        <pt x="1316" y="1269" on="0"/>
        <pt x="1214" y="1201" on="0"/>
        <pt x="1214" y="1137" on="1"/>
        <pt x="1214" y="1082" on="1"/>
        <pt x="1422" y="1082" on="1"/>
        <pt x="1422" y="823" on="1"/>
        <pt x="1214" y="823" on="1"/>
        <pt x="1214" y="0" on="1"/>
        <pt x="854" y="0" on="1"/>
        <pt x="854" y="823" on="1"/>
        <pt x="520" y="823" on="1"/>
        <pt x="520" y="0" on="1"/>
        <pt x="160" y="0" on="1"/>
        <pt x="160" y="823" on="1"/>
        <pt x="5" y="823" on="1"/>
        <pt x="5" y="1082" on="1"/>
        <pt x="160" y="1082" on="1"/>
        <pt x="160" y="1163" on="1"/>
        <pt x="160" y="1289" on="0"/>
        <pt x="263" y="1466" on="0"/>
        <pt x="453" y="1557" on="0"/>
        <pt x="583" y="1557" on="1"/>
        <pt x="654" y="1557" on="0"/>
        <pt x="746" y="1535" on="1"/>
        <pt x="749" y="1260" on="1"/>
        <pt x="714" y="1269" on="0"/>
        <pt x="668" y="1269" on="1"/>
        <pt x="597" y="1269" on="0"/>
        <pt x="520" y="1215" on="0"/>
        <pt x="520" y="1163" on="1"/>
        <pt x="520" y="1082" on="1"/>
        <pt x="854" y="1082" on="1"/>
        <pt x="854" y="1137" on="1"/>
        <pt x="854" y="1340" on="0"/>
        <pt x="1115" y="1557" on="0"/>
        <pt x="1352" y="1557" on="1"/>
      </contour>
    </TTGlyph>
    <TTGlyph name="f_l" xMin="5" yMin="0" xMax="1214" yMax="1557">
      <contour>
        <pt x="797" y="1557" on="0"/>
        <pt x="1214" y="1548" on="1"/>
        <pt x="1214" y="0" on="1"/>
        <pt x="854" y="0" on="1"/>
        <pt x="854" y="1263" on="1"/>
        <pt x="786" y="1269" on="0"/>
        <pt x="716" y="1269" on="1"/>
        <pt x="622" y="1269" on="0"/>
        <pt x="520" y="1201" on="0"/>
        <pt x="520" y="1137" on="1"/>
        <pt x="520" y="1082" on="1"/>
        <pt x="728" y="1082" on="1"/>
        <pt x="728" y="823" on="1"/>
        <pt x="520" y="823" on="1"/>
        <pt x="520" y="0" on="1"/>
        <pt x="160" y="0" on="1"/>
        <pt x="160" y="823" on="1"/>
        <pt x="5" y="823" on="1"/>
        <pt x="5" y="1082" on="1"/>
        <pt x="160" y="1082" on="1"/>
        <pt x="160" y="1137" on="1"/>
        <pt x="160" y="1340" on="0"/>
        <pt x="421" y="1557" on="0"/>
        <pt x="658" y="1557" on="1"/>
      </contour>
    </TTGlyph>
    <TTGlyph name="fi" xMin="15" yMin="0" xMax="1224" yMax="1557">
      <contour>
        <pt x="530" y="1082" on="1"/>
        <pt x="741" y="1082" on="1"/>
        <pt x="741" y="823" on="1"/>
        <pt x="530" y="823" on="1"/>
        <pt x="530" y="0" on="1"/>
        <pt x="170" y="0" on="1"/>
        <pt x="170" y="823" on="1"/>
        <pt x="15" y="823" on="1"/>
        <pt x="15" y="1082" on="1"/>
        <pt x="170" y="1082" on="1"/>
        <pt x="170" y="1091" on="1"/>
        <pt x="170" y="1317" on="0"/>
        <pt x="444" y="1557" on="0"/>
        <pt x="697" y="1557" on="1"/>
        <pt x="785" y="1557" on="0"/>
        <pt x="956" y="1528" on="0"/>
        <pt x="1060" y="1500" on="1"/>
        <pt x="1012" y="1204" on="1"/>
        <pt x="989" y="1210" on="1"/>
        <pt x="913" y="1228" on="0"/>
        <pt x="800" y="1246" on="0"/>
        <pt x="719" y="1246" on="1"/>
        <pt x="631" y="1246" on="0"/>
        <pt x="530" y="1165" on="0"/>
        <pt x="530" y="1091" on="1"/>
      </contour>
      <contour>
        <pt x="1224" y="1082" on="1"/>
        <pt x="1224" y="0" on="1"/>
        <pt x="864" y="0" on="1"/>
        <pt x="864" y="1082" on="1"/>
      </contour>
    </TTGlyph>
    <TTGlyph name="five" xMin="67" yMin="-20" xMax="1102" yMax="1456">
      <contour>
        <pt x="186" y="1456" on="1"/>
        <pt x="1052" y="1456" on="1"/>
        <pt x="1052" y="1170" on="1"/>
        <pt x="477" y="1170" on="1"/>
        <pt x="445" y="908" on="1"/>
        <pt x="476" y="925" on="0"/>
        <pt x="590" y="959" on="0"/>
        <pt x="650" y="959" on="1"/>
        <pt x="869" y="959" on="0"/>
        <pt x="1102" y="708" on="0"/>
        <pt x="1102" y="471" on="1"/>
        <pt x="1102" y="344" on="0"/>
        <pt x="989" y="119" on="0"/>
        <pt x="758" y="-20" on="0"/>
        <pt x="591" y="-20" on="1"/>
        <pt x="458" y="-20" on="0"/>
        <pt x="215" y="93" on="0"/>
        <pt x="67" y="295" on="0"/>
        <pt x="70" y="423" on="1"/>
        <pt x="432" y="423" on="1"/>
        <pt x="435" y="355" on="0"/>
        <pt x="521" y="270" on="0"/>
        <pt x="589" y="270" on="1"/>
        <pt x="677" y="270" on="0"/>
        <pt x="744" y="397" on="0"/>
        <pt x="744" y="501" on="1"/>
        <pt x="744" y="604" on="0"/>
        <pt x="651" y="709" on="0"/>
        <pt x="548" y="709" on="1"/>
        <pt x="485" y="709" on="0"/>
        <pt x="398" y="664" on="0"/>
        <pt x="380" y="637" on="1"/>
        <pt x="95" y="707" on="1"/>
      </contour>
    </TTGlyph>
    <TTGlyph name="five.frac" xMin="56" yMin="653" xMax="695" yMax="1453">
      <component glyphName=".ttfautohint" x="56" y="653" flags="0x0"/>
      <component glyphName="five.sup" x="0" y="664" flags="0x4"/>
    </TTGlyph>
    <TTGlyph name="five.smcp" xMin="42" yMin="-16" xMax="999" yMax="1165">
      <contour>
        <pt x="152" y="1165" on="1"/>
        <pt x="927" y="1165" on="1"/>
        <pt x="927" y="889" on="1"/>
        <pt x="441" y="889" on="1"/>
        <pt x="413" y="732" on="1"/>
        <pt x="465" y="748" on="0"/>
        <pt x="550" y="768" on="0"/>
        <pt x="600" y="768" on="1"/>
        <pt x="799" y="768" on="0"/>
        <pt x="999" y="582" on="0"/>
        <pt x="999" y="403" on="1"/>
        <pt x="999" y="297" on="0"/>
        <pt x="893" y="105" on="0"/>
        <pt x="679" y="-16" on="0"/>
        <pt x="525" y="-16" on="1"/>
        <pt x="402" y="-16" on="0"/>
        <pt x="178" y="75" on="0"/>
        <pt x="42" y="237" on="0"/>
        <pt x="44" y="340" on="1"/>
        <pt x="409" y="340" on="1"/>
        <pt x="405" y="301" on="0"/>
        <pt x="463" y="273" on="0"/>
        <pt x="525" y="273" on="1"/>
        <pt x="596" y="273" on="0"/>
        <pt x="640" y="343" on="0"/>
        <pt x="640" y="401" on="1"/>
        <pt x="640" y="467" on="0"/>
        <pt x="573" y="535" on="0"/>
        <pt x="501" y="535" on="1"/>
        <pt x="441" y="535" on="0"/>
        <pt x="369" y="503" on="0"/>
        <pt x="351" y="486" on="1"/>
        <pt x="66" y="556" on="1"/>
      </contour>
    </TTGlyph>
    <TTGlyph name="five.sup" xMin="55" yMin="-11" xMax="695" yMax="789">
      <contour>
        <pt x="128" y="789" on="1"/>
        <pt x="648" y="789" on="1"/>
        <pt x="648" y="609" on="1"/>
        <pt x="316" y="609" on="1"/>
        <pt x="297" y="495" on="1"/>
        <pt x="370" y="521" on="0"/>
        <pt x="425" y="521" on="1"/>
        <pt x="559" y="521" on="0"/>
        <pt x="695" y="393" on="0"/>
        <pt x="695" y="271" on="1"/>
        <pt x="695" y="199" on="0"/>
        <pt x="624" y="70" on="0"/>
        <pt x="481" y="-11" on="0"/>
        <pt x="377" y="-11" on="1"/>
        <pt x="295" y="-11" on="0"/>
        <pt x="145" y="50" on="0"/>
        <pt x="55" y="159" on="0"/>
        <pt x="56" y="229" on="1"/>
        <pt x="292" y="229" on="1"/>
        <pt x="291" y="199" on="0"/>
        <pt x="334" y="177" on="0"/>
        <pt x="377" y="177" on="1"/>
        <pt x="428" y="177" on="0"/>
        <pt x="462" y="227" on="0"/>
        <pt x="462" y="270" on="1"/>
        <pt x="462" y="366" on="0"/>
        <pt x="361" y="366" on="1"/>
        <pt x="294" y="366" on="0"/>
        <pt x="256" y="332" on="1"/>
        <pt x="71" y="378" on="1"/>
      </contour>
    </TTGlyph>
    <TTGlyph name="four" xMin="60" yMin="0" xMax="1131" yMax="1456">
      <contour>
        <pt x="1131" y="302" on="1"/>
        <pt x="991" y="302" on="1"/>
        <pt x="991" y="0" on="1"/>
        <pt x="632" y="0" on="1"/>
        <pt x="632" y="302" on="1"/>
        <pt x="84" y="302" on="1"/>
        <pt x="60" y="535" on="1"/>
        <pt x="632" y="1450" on="1"/>
        <pt x="632" y="1456" on="1"/>
        <pt x="991" y="1456" on="1"/>
        <pt x="991" y="592" on="1"/>
        <pt x="1131" y="592" on="1"/>
      </contour>
      <contour>
        <pt x="632" y="592" on="1"/>
        <pt x="632" y="969" on="1"/>
        <pt x="610" y="931" on="1"/>
        <pt x="398" y="592" on="1"/>
      </contour>
    </TTGlyph>
    <TTGlyph name="four.frac" xMin="54" yMin="664" xMax="708" yMax="1453">
      <component glyphName=".ttfautohint" x="54" y="664" flags="0x0"/>
      <component glyphName="four.sup" x="0" y="664" flags="0x4"/>
    </TTGlyph>
    <TTGlyph name="four.smcp" xMin="56" yMin="0" xMax="1023" yMax="1165">
      <contour>
        <pt x="1023" y="224" on="1"/>
        <pt x="910" y="224" on="1"/>
        <pt x="910" y="0" on="1"/>
        <pt x="551" y="0" on="1"/>
        <pt x="551" y="224" on="1"/>
        <pt x="83" y="224" on="1"/>
        <pt x="56" y="466" on="1"/>
        <pt x="551" y="1155" on="1"/>
        <pt x="551" y="1165" on="1"/>
        <pt x="910" y="1165" on="1"/>
        <pt x="910" y="517" on="1"/>
        <pt x="1023" y="517" on="1"/>
      </contour>
      <contour>
        <pt x="551" y="517" on="1"/>
        <pt x="551" y="732" on="1"/>
        <pt x="534" y="707" on="1"/>
        <pt x="388" y="517" on="1"/>
      </contour>
    </TTGlyph>
    <TTGlyph name="four.sup" xMin="54" yMin="0" xMax="708" yMax="789">
      <contour>
        <pt x="708" y="154" on="1"/>
        <pt x="632" y="154" on="1"/>
        <pt x="632" y="0" on="1"/>
        <pt x="398" y="0" on="1"/>
        <pt x="398" y="154" on="1"/>
        <pt x="70" y="154" on="1"/>
        <pt x="54" y="310" on="1"/>
        <pt x="398" y="788" on="1"/>
        <pt x="398" y="789" on="1"/>
        <pt x="632" y="789" on="1"/>
        <pt x="632" y="344" on="1"/>
        <pt x="708" y="344" on="1"/>
      </contour>
      <contour>
        <pt x="398" y="344" on="1"/>
        <pt x="398" y="512" on="1"/>
        <pt x="382" y="488" on="1"/>
        <pt x="272" y="344" on="1"/>
      </contour>
    </TTGlyph>
    <TTGlyph name="fraction" xMin="8" yMin="109" xMax="884" yMax="1329">
      <contour>
        <pt x="8" y="191" on="1"/>
        <pt x="719" y="1329" on="1"/>
        <pt x="884" y="1247" on="1"/>
        <pt x="173" y="109" on="1"/>
      </contour>
    </TTGlyph>
    <TTGlyph name="g" xMin="50" yMin="-426" xMax="1091" yMax="1102">
      <contour>
        <pt x="1091" y="1082" on="1"/>
        <pt x="1091" y="47" on="1"/>
        <pt x="1091" y="-102" on="0"/>
        <pt x="951" y="-315" on="0"/>
        <pt x="697" y="-426" on="0"/>
        <pt x="527" y="-426" on="1"/>
        <pt x="413" y="-426" on="0"/>
        <pt x="191" y="-342" on="0"/>
        <pt x="126" y="-272" on="1"/>
        <pt x="273" y="-49" on="1"/>
        <pt x="376" y="-150" on="0"/>
        <pt x="516" y="-150" on="1"/>
        <pt x="621" y="-150" on="0"/>
        <pt x="731" y="-44" on="0"/>
        <pt x="731" y="53" on="1"/>
        <pt x="731" y="87" on="1"/>
        <pt x="637" y="-20" on="0"/>
        <pt x="494" y="-20" on="1"/>
        <pt x="359" y="-20" on="0"/>
        <pt x="158" y="121" on="0"/>
        <pt x="50" y="370" on="0"/>
        <pt x="50" y="528" on="1"/>
        <pt x="50" y="549" on="1"/>
        <pt x="50" y="713" on="0"/>
        <pt x="158" y="964" on="0"/>
        <pt x="360" y="1102" on="0"/>
        <pt x="496" y="1102" on="1"/>
        <pt x="663" y="1102" on="0"/>
        <pt x="754" y="990" on="1"/>
        <pt x="766" y="1082" on="1"/>
      </contour>
      <contour>
        <pt x="685" y="268" on="0"/>
        <pt x="731" y="328" on="1"/>
        <pt x="731" y="754" on="1"/>
        <pt x="687" y="814" on="0"/>
        <pt x="587" y="814" on="1"/>
        <pt x="503" y="814" on="0"/>
        <pt x="408" y="668" on="0"/>
        <pt x="408" y="549" on="1"/>
        <pt x="408" y="528" on="1"/>
        <pt x="408" y="412" on="0"/>
        <pt x="500" y="268" on="0"/>
        <pt x="585" y="268" on="1"/>
      </contour>
    </TTGlyph>
    <TTGlyph name="g.alt" xMin="-28" yMin="-438" xMax="1061" yMax="1102">
      <contour>
        <pt x="809" y="250" on="0"/>
        <pt x="974" y="174" on="0"/>
        <pt x="1061" y="35" on="0"/>
        <pt x="1061" y="-58" on="1"/>
        <pt x="1061" y="-149" on="0"/>
        <pt x="924" y="-325" on="0"/>
        <pt x="666" y="-438" on="0"/>
        <pt x="494" y="-438" on="1"/>
        <pt x="330" y="-438" on="0"/>
        <pt x="94" y="-363" on="0"/>
        <pt x="-28" y="-237" on="0"/>
        <pt x="-28" y="-162" on="1"/>
        <pt x="-28" y="-80" on="0"/>
        <pt x="89" y="42" on="0"/>
        <pt x="182" y="78" on="1"/>
        <pt x="142" y="129" on="0"/>
        <pt x="142" y="205" on="1"/>
        <pt x="142" y="310" on="0"/>
        <pt x="257" y="383" on="1"/>
        <pt x="146" y="431" on="0"/>
        <pt x="22" y="601" on="0"/>
        <pt x="22" y="707" on="1"/>
        <pt x="22" y="729" on="1"/>
        <pt x="22" y="841" on="0"/>
        <pt x="145" y="1010" on="0"/>
        <pt x="370" y="1102" on="0"/>
        <pt x="520" y="1102" on="1"/>
        <pt x="617" y="1102" on="0"/>
        <pt x="702" y="1082" on="1"/>
        <pt x="1059" y="1082" on="1"/>
        <pt x="1061" y="928" on="1"/>
        <pt x="956" y="928" on="1"/>
        <pt x="1019" y="842" on="0"/>
        <pt x="1019" y="729" on="1"/>
        <pt x="1019" y="707" on="1"/>
        <pt x="1019" y="601" on="0"/>
        <pt x="896" y="431" on="0"/>
        <pt x="671" y="333" on="0"/>
        <pt x="522" y="333" on="1"/>
        <pt x="448" y="333" on="0"/>
        <pt x="382" y="345" on="1"/>
        <pt x="374" y="332" on="0"/>
        <pt x="374" y="317" on="1"/>
        <pt x="374" y="276" on="0"/>
        <pt x="438" y="250" on="0"/>
        <pt x="501" y="250" on="1"/>
        <pt x="696" y="250" on="1"/>
      </contour>
      <contour>
        <pt x="378" y="707" on="1"/>
        <pt x="378" y="659" on="0"/>
        <pt x="453" y="597" on="0"/>
        <pt x="522" y="597" on="1"/>
        <pt x="589" y="597" on="0"/>
        <pt x="663" y="659" on="0"/>
        <pt x="663" y="707" on="1"/>
        <pt x="663" y="729" on="1"/>
        <pt x="663" y="779" on="0"/>
        <pt x="588" y="838" on="0"/>
        <pt x="520" y="838" on="1"/>
        <pt x="452" y="838" on="0"/>
        <pt x="378" y="779" on="0"/>
        <pt x="378" y="729" on="1"/>
      </contour>
      <contour>
        <pt x="606" y="-175" on="0"/>
        <pt x="705" y="-123" on="0"/>
        <pt x="705" y="-84" on="1"/>
        <pt x="705" y="-60" on="0"/>
        <pt x="663" y="-14" on="0"/>
        <pt x="619" y="-14" on="1"/>
        <pt x="435" y="-14" on="1"/>
        <pt x="384" y="-14" on="0"/>
        <pt x="337" y="-5" on="1"/>
        <pt x="321" y="-16" on="0"/>
        <pt x="302" y="-50" on="0"/>
        <pt x="302" y="-70" on="1"/>
        <pt x="302" y="-115" on="0"/>
        <pt x="401" y="-175" on="0"/>
        <pt x="494" y="-175" on="1"/>
      </contour>
    </TTGlyph>
    <TTGlyph name="g.ss06" xMin="51" yMin="-426" xMax="1086" yMax="1102">
      <contour>
        <pt x="1086" y="1082" on="1"/>
        <pt x="1086" y="81" on="1"/>
        <pt x="1086" y="-79" on="0"/>
        <pt x="950" y="-307" on="0"/>
        <pt x="698" y="-426" on="0"/>
        <pt x="526" y="-426" on="1"/>
        <pt x="350" y="-426" on="0"/>
        <pt x="237" y="-378" on="1"/>
        <pt x="271" y="-123" on="1"/>
        <pt x="301" y="-129" on="1"/>
        <pt x="353" y="-140" on="0"/>
        <pt x="421" y="-150" on="0"/>
        <pt x="472" y="-150" on="1"/>
        <pt x="602" y="-150" on="0"/>
        <pt x="726" y="-35" on="0"/>
        <pt x="726" y="87" on="1"/>
        <pt x="726" y="88" on="1"/>
        <pt x="631" y="-20" on="0"/>
        <pt x="489" y="-20" on="1"/>
        <pt x="354" y="-20" on="0"/>
        <pt x="156" y="123" on="0"/>
        <pt x="51" y="374" on="0"/>
        <pt x="51" y="532" on="1"/>
        <pt x="51" y="553" on="1"/>
        <pt x="51" y="717" on="0"/>
        <pt x="156" y="966" on="0"/>
        <pt x="355" y="1102" on="0"/>
        <pt x="491" y="1102" on="1"/>
        <pt x="581" y="1102" on="0"/>
        <pt x="709" y="1042" on="0"/>
        <pt x="754" y="985" on="1"/>
        <pt x="770" y="1082" on="1"/>
      </contour>
      <contour>
        <pt x="680" y="268" on="0"/>
        <pt x="726" y="330" on="1"/>
        <pt x="726" y="755" on="1"/>
        <pt x="682" y="814" on="0"/>
        <pt x="582" y="814" on="1"/>
        <pt x="498" y="814" on="0"/>
        <pt x="410" y="672" on="0"/>
        <pt x="410" y="553" on="1"/>
        <pt x="410" y="532" on="1"/>
        <pt x="410" y="414" on="0"/>
        <pt x="495" y="268" on="0"/>
        <pt x="580" y="268" on="1"/>
      </contour>
    </TTGlyph>
    <TTGlyph name="g.ss07" xMin="46" yMin="-426" xMax="1061" yMax="1102">
      <contour>
        <pt x="1061" y="1082" on="1"/>
        <pt x="1061" y="87" on="1"/>
        <pt x="1061" y="-75" on="0"/>
        <pt x="925" y="-306" on="0"/>
        <pt x="673" y="-426" on="0"/>
        <pt x="501" y="-426" on="1"/>
        <pt x="319" y="-426" on="0"/>
        <pt x="200" y="-372" on="1"/>
        <pt x="234" y="-117" on="1"/>
        <pt x="254" y="-122" on="1"/>
        <pt x="316" y="-137" on="0"/>
        <pt x="391" y="-150" on="0"/>
        <pt x="447" y="-150" on="1"/>
        <pt x="575" y="-150" on="0"/>
        <pt x="700" y="-34" on="0"/>
        <pt x="701" y="88" on="1"/>
        <pt x="606" y="-20" on="0"/>
        <pt x="464" y="-20" on="1"/>
        <pt x="330" y="-20" on="0"/>
        <pt x="141" y="122" on="0"/>
        <pt x="46" y="372" on="0"/>
        <pt x="46" y="532" on="1"/>
        <pt x="46" y="553" on="1"/>
        <pt x="46" y="719" on="0"/>
        <pt x="142" y="966" on="0"/>
        <pt x="330" y="1102" on="0"/>
        <pt x="466" y="1102" on="1"/>
        <pt x="556" y="1102" on="0"/>
        <pt x="684" y="1042" on="0"/>
        <pt x="729" y="985" on="1"/>
        <pt x="745" y="1082" on="1"/>
      </contour>
      <contour>
        <pt x="659" y="268" on="0"/>
        <pt x="701" y="339" on="1"/>
        <pt x="701" y="745" on="1"/>
        <pt x="681" y="780" on="0"/>
        <pt x="612" y="814" on="0"/>
        <pt x="557" y="814" on="1"/>
        <pt x="475" y="814" on="0"/>
        <pt x="405" y="677" on="0"/>
        <pt x="405" y="553" on="1"/>
        <pt x="405" y="532" on="1"/>
        <pt x="405" y="409" on="0"/>
        <pt x="472" y="268" on="0"/>
        <pt x="555" y="268" on="1"/>
      </contour>
    </TTGlyph>
    <TTGlyph name="germandbls" xMin="134" yMin="-20" xMax="1293" yMax="1563">
      <contour>
        <pt x="134" y="0" on="1"/>
        <pt x="134" y="1096" on="1"/>
        <pt x="134" y="1324" on="0"/>
        <pt x="412" y="1563" on="0"/>
        <pt x="666" y="1563" on="1"/>
        <pt x="789" y="1563" on="0"/>
        <pt x="995" y="1471" on="0"/>
        <pt x="1117" y="1293" on="0"/>
        <pt x="1117" y="1171" on="1"/>
        <pt x="1117" y="1109" on="0"/>
        <pt x="1094" y="1040" on="0"/>
        <pt x="1071" y="1001" on="1"/>
        <pt x="1049" y="964" on="0"/>
        <pt x="1027" y="898" on="0"/>
        <pt x="1027" y="840" on="1"/>
        <pt x="1027" y="814" on="0"/>
        <pt x="1070" y="758" on="0"/>
        <pt x="1116" y="712" on="1"/>
        <pt x="1171" y="657" on="0"/>
        <pt x="1241" y="571" on="0"/>
        <pt x="1293" y="453" on="0"/>
        <pt x="1293" y="383" on="1"/>
        <pt x="1293" y="260" on="0"/>
        <pt x="1183" y="79" on="0"/>
        <pt x="963" y="-20" on="0"/>
        <pt x="802" y="-20" on="1"/>
        <pt x="723" y="-20" on="0"/>
        <pt x="578" y="3" on="0"/>
        <pt x="538" y="25" on="1"/>
        <pt x="600" y="305" on="1"/>
        <pt x="674" y="270" on="0"/>
        <pt x="807" y="270" on="1"/>
        <pt x="862" y="270" on="0"/>
        <pt x="935" y="328" on="0"/>
        <pt x="935" y="382" on="1"/>
        <pt x="935" y="424" on="0"/>
        <pt x="883" y="491" on="0"/>
        <pt x="828" y="538" on="1"/>
        <pt x="777" y="583" on="0"/>
        <pt x="714" y="651" on="0"/>
        <pt x="669" y="751" on="0"/>
        <pt x="669" y="816" on="1"/>
        <pt x="669" y="884" on="0"/>
        <pt x="692" y="964" on="0"/>
        <pt x="715" y="1008" on="1"/>
        <pt x="735" y="1045" on="0"/>
        <pt x="755" y="1108" on="0"/>
        <pt x="755" y="1158" on="1"/>
        <pt x="755" y="1189" on="0"/>
        <pt x="720" y="1242" on="0"/>
        <pt x="659" y="1274" on="0"/>
        <pt x="621" y="1274" on="1"/>
        <pt x="559" y="1274" on="0"/>
        <pt x="493" y="1194" on="0"/>
        <pt x="493" y="1088" on="1"/>
        <pt x="493" y="0" on="1"/>
      </contour>
    </TTGlyph>
    <TTGlyph name="grave" xMin="56" yMin="1217" xMax="630" yMax="1536">
      <contour>
        <pt x="341" y="1217" on="1"/>
        <pt x="56" y="1536" on="1"/>
        <pt x="430" y="1536" on="1"/>
        <pt x="630" y="1217" on="1"/>
      </contour>
    </TTGlyph>
    <TTGlyph name="gravecomb" xMin="-917" yMin="1217" xMax="-343" yMax="1536">
      <contour>
        <pt x="-632" y="1217" on="1"/>
        <pt x="-917" y="1536" on="1"/>
        <pt x="-543" y="1536" on="1"/>
        <pt x="-343" y="1217" on="1"/>
      </contour>
    </TTGlyph>
    <TTGlyph name="greater" xMin="107" yMin="95" xMax="990" yMax="1103">
      <contour>
        <pt x="990" y="749" on="1"/>
        <pt x="990" y="449" on="1"/>
        <pt x="107" y="95" on="1"/>
        <pt x="107" y="432" on="1"/>
        <pt x="631" y="601" on="1"/>
        <pt x="107" y="766" on="1"/>
        <pt x="107" y="1103" on="1"/>
      </contour>
    </TTGlyph>
    <TTGlyph name="guillemotleft" xMin="60" yMin="106" xMax="969" yMax="905">
      <component glyphName=".ttfautohint" x="60" y="106" flags="0x0"/>
      <component glyphName="guilsinglleft" x="-48" y="0" flags="0x0"/>
      <component glyphName="guilsinglleft" x="377" y="0" flags="0x0"/>
    </TTGlyph>
    <TTGlyph name="guillemotright" xMin="74" yMin="104" xMax="980" yMax="903">
      <component glyphName=".ttfautohint" x="74" y="104" flags="0x0"/>
      <component glyphName="guilsinglright" x="-1" y="0" flags="0x0"/>
      <component glyphName="guilsinglright" x="421" y="0" flags="0x0"/>
    </TTGlyph>
    <TTGlyph name="guilsinglleft" xMin="108" yMin="106" xMax="592" yMax="905">
      <contour>
        <pt x="364" y="506" on="1"/>
        <pt x="592" y="106" on="1"/>
        <pt x="377" y="106" on="1"/>
        <pt x="108" y="496" on="1"/>
        <pt x="108" y="515" on="1"/>
        <pt x="377" y="905" on="1"/>
        <pt x="592" y="905" on="1"/>
      </contour>
    </TTGlyph>
    <TTGlyph name="guilsinglright" xMin="75" yMin="104" xMax="559" yMax="903">
      <contour>
        <pt x="559" y="513" on="1"/>
        <pt x="559" y="494" on="1"/>
        <pt x="290" y="104" on="1"/>
        <pt x="75" y="104" on="1"/>
        <pt x="303" y="504" on="1"/>
        <pt x="75" y="903" on="1"/>
        <pt x="290" y="903" on="1"/>
      </contour>
    </TTGlyph>
    <TTGlyph name="h" xMin="80" yMin="0" xMax="1074" yMax="1536">
      <contour>
        <pt x="880" y="1102" on="0"/>
        <pt x="1074" y="892" on="0"/>
        <pt x="1074" y="661" on="1"/>
        <pt x="1074" y="0" on="1"/>
        <pt x="714" y="0" on="1"/>
        <pt x="714" y="663" on="1"/>
        <pt x="714" y="750" on="0"/>
        <pt x="642" y="814" on="0"/>
        <pt x="569" y="814" on="1"/>
        <pt x="478" y="814" on="0"/>
        <pt x="438" y="765" on="1"/>
        <pt x="438" y="0" on="1"/>
        <pt x="80" y="0" on="1"/>
        <pt x="80" y="1536" on="1"/>
        <pt x="438" y="1536" on="1"/>
        <pt x="438" y="967" on="1"/>
        <pt x="489" y="1032" on="0"/>
        <pt x="627" y="1102" on="0"/>
        <pt x="709" y="1102" on="1"/>
      </contour>
    </TTGlyph>
    <TTGlyph name="hyphen" xMin="170" yMin="486" xMax="789" yMax="777">
      <contour>
        <pt x="170" y="486" on="1"/>
        <pt x="170" y="777" on="1"/>
        <pt x="789" y="777" on="1"/>
        <pt x="789" y="486" on="1"/>
      </contour>
    </TTGlyph>
    <TTGlyph name="i" xMin="85" yMin="0" xMax="482" yMax="1540">
      <contour>
        <pt x="341" y="1540" on="0"/>
        <pt x="431" y="1494" on="0"/>
        <pt x="482" y="1412" on="0"/>
        <pt x="482" y="1360" on="1"/>
        <pt x="482" y="1307" on="0"/>
        <pt x="432" y="1225" on="0"/>
        <pt x="341" y="1179" on="0"/>
        <pt x="284" y="1179" on="1"/>
        <pt x="226" y="1179" on="0"/>
        <pt x="136" y="1225" on="0"/>
        <pt x="85" y="1307" on="0"/>
        <pt x="85" y="1360" on="1"/>
        <pt x="85" y="1412" on="0"/>
        <pt x="136" y="1494" on="0"/>
        <pt x="226" y="1540" on="0"/>
        <pt x="284" y="1540" on="1"/>
      </contour>
      <contour>
        <pt x="106" y="0" on="1"/>
        <pt x="106" y="1082" on="1"/>
        <pt x="466" y="1082" on="1"/>
        <pt x="466" y="0" on="1"/>
      </contour>
    </TTGlyph>
    <TTGlyph name="iacute" xMin="119" yMin="0" xMax="691" yMax="1509">
      <component glyphName=".ttfautohint" x="119" y="0" flags="0x0"/>
      <component glyphName="dotlessi" x="0" y="0" flags="0x0"/>
      <component glyphName="acutecomb" x="814" y="-27" flags="0x4"/>
    </TTGlyph>
    <TTGlyph name="icircumflex" xMin="-137" yMin="0" xMax="742" yMax="1508">
      <component glyphName=".ttfautohint" x="0" y="0" flags="0x0"/>
      <component glyphName="dotlessi" x="0" y="0" flags="0x0"/>
      <component glyphName="circumflex" x="-223" y="-27" flags="0x4"/>
    </TTGlyph>
    <TTGlyph name="idieresis" xMin="-126" yMin="0" xMax="720" yMax="1478">
      <component glyphName=".ttfautohint" x="0" y="0" flags="0x0"/>
      <component glyphName="dotlessi" x="0" y="0" flags="0x0"/>
      <component glyphName="dieresis" x="-222" y="-27" flags="0x4"/>
    </TTGlyph>
    <TTGlyph name="igrave" xMin="-67" yMin="0" xMax="507" yMax="1509">
      <component glyphName=".ttfautohint" x="0" y="0" flags="0x0"/>
      <component glyphName="dotlessi" x="0" y="0" flags="0x0"/>
      <component glyphName="gravecomb" x="850" y="-27" flags="0x4"/>
    </TTGlyph>
    <TTGlyph name="j" xMin="-126" yMin="-437" xMax="487" yMax="1540">
      <contour>
        <pt x="346" y="1540" on="0"/>
        <pt x="436" y="1494" on="0"/>
        <pt x="487" y="1412" on="0"/>
        <pt x="487" y="1360" on="1"/>
        <pt x="487" y="1307" on="0"/>
        <pt x="437" y="1225" on="0"/>
        <pt x="346" y="1179" on="0"/>
        <pt x="289" y="1179" on="1"/>
        <pt x="231" y="1179" on="0"/>
        <pt x="141" y="1225" on="0"/>
        <pt x="91" y="1307" on="0"/>
        <pt x="91" y="1360" on="1"/>
        <pt x="91" y="1412" on="0"/>
        <pt x="141" y="1494" on="0"/>
        <pt x="231" y="1540" on="0"/>
        <pt x="289" y="1540" on="1"/>
      </contour>
      <contour>
        <pt x="476" y="-7" on="1"/>
        <pt x="476" y="-144" on="0"/>
        <pt x="370" y="-337" on="0"/>
        <pt x="174" y="-437" on="0"/>
        <pt x="41" y="-437" on="1"/>
        <pt x="-8" y="-437" on="0"/>
        <pt x="-82" y="-430" on="0"/>
        <pt x="-126" y="-420" on="1"/>
        <pt x="-126" y="-136" on="1"/>
        <pt x="-101" y="-139" on="1"/>
        <pt x="-53" y="-145" on="0"/>
        <pt x="-29" y="-145" on="1"/>
        <pt x="42" y="-145" on="0"/>
        <pt x="116" y="-74" on="0"/>
        <pt x="116" y="-7" on="1"/>
        <pt x="116" y="1082" on="1"/>
        <pt x="476" y="1082" on="1"/>
      </contour>
    </TTGlyph>
    <TTGlyph name="k" xMin="91" yMin="0" xMax="1168" yMax="1537">
      <contour>
        <pt x="541" y="385" on="1"/>
        <pt x="450" y="298" on="1"/>
        <pt x="450" y="0" on="1"/>
        <pt x="91" y="0" on="1"/>
        <pt x="91" y="1537" on="1"/>
        <pt x="450" y="1537" on="1"/>
        <pt x="450" y="743" on="1"/>
        <pt x="474" y="775" on="1"/>
        <pt x="718" y="1082" on="1"/>
        <pt x="1147" y="1082" on="1"/>
        <pt x="775" y="634" on="1"/>
        <pt x="1168" y="0" on="1"/>
        <pt x="759" y="0" on="1"/>
      </contour>
    </TTGlyph>
    <TTGlyph name="k.alt" xMin="89" yMin="0" xMax="1140" yMax="1536">
      <contour>
        <pt x="506" y="410" on="1"/>
        <pt x="448" y="410" on="1"/>
        <pt x="448" y="0" on="1"/>
        <pt x="89" y="0" on="1"/>
        <pt x="89" y="1536" on="1"/>
        <pt x="448" y="1536" on="1"/>
        <pt x="448" y="693" on="1"/>
        <pt x="493" y="693" on="1"/>
        <pt x="701" y="1082" on="1"/>
        <pt x="1113" y="1082" on="1"/>
        <pt x="792" y="589" on="1"/>
        <pt x="1140" y="0" on="1"/>
        <pt x="731" y="0" on="1"/>
      </contour>
    </TTGlyph>
    <TTGlyph name="k.alt2" xMin="89" yMin="0" xMax="1149" yMax="1560">
      <contour>
        <pt x="730" y="0" on="1"/>
        <pt x="448" y="436" on="1"/>
        <pt x="448" y="0" on="1"/>
        <pt x="89" y="0" on="1"/>
        <pt x="89" y="1560" on="1"/>
        <pt x="448" y="1560" on="1"/>
        <pt x="448" y="693" on="1"/>
        <pt x="701" y="1082" on="1"/>
        <pt x="1106" y="1082" on="1"/>
        <pt x="755" y="571" on="1"/>
        <pt x="1149" y="0" on="1"/>
      </contour>
    </TTGlyph>
    <TTGlyph name="l" xMin="106" yMin="0" xMax="466" yMax="1536">
      <contour>
        <pt x="106" y="0" on="1"/>
        <pt x="106" y="1536" on="1"/>
        <pt x="466" y="1536" on="1"/>
        <pt x="466" y="0" on="1"/>
      </contour>
    </TTGlyph>
    <TTGlyph name="less" xMin="42" yMin="96" xMax="938" yMax="1105">
      <contour>
        <pt x="938" y="770" on="1"/>
        <pt x="400" y="600" on="1"/>
        <pt x="938" y="433" on="1"/>
        <pt x="938" y="96" on="1"/>
        <pt x="42" y="451" on="1"/>
        <pt x="42" y="750" on="1"/>
        <pt x="938" y="1105" on="1"/>
      </contour>
    </TTGlyph>
    <TTGlyph name="logicalnot" xMin="125" yMin="374" xMax="960" yMax="805">
      <contour>
        <pt x="960" y="805" on="1"/>
        <pt x="960" y="374" on="1"/>
        <pt x="760" y="374" on="1"/>
        <pt x="760" y="634" on="1"/>
        <pt x="125" y="634" on="1"/>
        <pt x="125" y="805" on="1"/>
      </contour>
    </TTGlyph>
    <TTGlyph name="longs" xMin="85" yMin="0" xMax="696" yMax="1557">
      <contour>
        <pt x="85" y="1163" on="1"/>
        <pt x="85" y="1354" on="0"/>
        <pt x="315" y="1557" on="0"/>
        <pt x="525" y="1557" on="1"/>
        <pt x="595" y="1557" on="0"/>
        <pt x="696" y="1536" on="1"/>
        <pt x="672" y="1257" on="1"/>
        <pt x="641" y="1262" on="0"/>
        <pt x="600" y="1267" on="0"/>
        <pt x="569" y="1267" on="1"/>
        <pt x="508" y="1267" on="0"/>
        <pt x="444" y="1214" on="0"/>
        <pt x="444" y="1163" on="1"/>
        <pt x="444" y="0" on="1"/>
        <pt x="85" y="0" on="1"/>
      </contour>
    </TTGlyph>
    <TTGlyph name="longst" xMin="5" yMin="-20" xMax="1354" yMax="1557">
      <contour>
        <pt x="1330" y="273" on="0"/>
        <pt x="1354" y="277" on="1"/>
        <pt x="1354" y="11" on="1"/>
        <pt x="1265" y="-20" on="0"/>
        <pt x="1157" y="-20" on="1"/>
        <pt x="982" y="-20" on="0"/>
        <pt x="803" y="146" on="0"/>
        <pt x="803" y="323" on="1"/>
        <pt x="803" y="823" on="1"/>
        <pt x="675" y="823" on="1"/>
        <pt x="675" y="1082" on="1"/>
        <pt x="803" y="1082" on="1"/>
        <pt x="803" y="1245" on="1"/>
        <pt x="782" y="1253" on="0"/>
        <pt x="700" y="1267" on="0"/>
        <pt x="644" y="1267" on="1"/>
        <pt x="583" y="1267" on="0"/>
        <pt x="519" y="1214" on="0"/>
        <pt x="519" y="1163" on="1"/>
        <pt x="519" y="0" on="1"/>
        <pt x="160" y="0" on="1"/>
        <pt x="160" y="823" on="1"/>
        <pt x="5" y="823" on="1"/>
        <pt x="5" y="1082" on="1"/>
        <pt x="160" y="1082" on="1"/>
        <pt x="160" y="1163" on="1"/>
        <pt x="160" y="1354" on="0"/>
        <pt x="390" y="1557" on="0"/>
        <pt x="600" y="1557" on="1"/>
        <pt x="735" y="1557" on="0"/>
        <pt x="959" y="1509" on="0"/>
        <pt x="1098" y="1467" on="1"/>
        <pt x="1162" y="1448" on="1"/>
        <pt x="1162" y="1242" on="1"/>
        <pt x="1161" y="1242" on="1"/>
        <pt x="1161" y="1082" on="1"/>
        <pt x="1336" y="1082" on="1"/>
        <pt x="1336" y="823" on="1"/>
        <pt x="1161" y="823" on="1"/>
        <pt x="1161" y="378" on="1"/>
        <pt x="1161" y="337" on="0"/>
        <pt x="1180" y="292" on="0"/>
        <pt x="1226" y="273" on="0"/>
        <pt x="1270" y="273" on="1"/>
      </contour>
    </TTGlyph>
    <TTGlyph name="m" xMin="91" yMin="0" xMax="1668" yMax="1102">
      <contour>
        <pt x="1491" y="1102" on="0"/>
        <pt x="1668" y="903" on="0"/>
        <pt x="1668" y="672" on="1"/>
        <pt x="1668" y="0" on="1"/>
        <pt x="1308" y="0" on="1"/>
        <pt x="1308" y="671" on="1"/>
        <pt x="1308" y="730" on="0"/>
        <pt x="1282" y="792" on="0"/>
        <pt x="1234" y="814" on="0"/>
        <pt x="1194" y="814" on="1"/>
        <pt x="1105" y="814" on="0"/>
        <pt x="1059" y="739" on="1"/>
        <pt x="1059" y="722" on="1"/>
        <pt x="1059" y="0" on="1"/>
        <pt x="700" y="0" on="1"/>
        <pt x="700" y="669" on="1"/>
        <pt x="700" y="732" on="0"/>
        <pt x="674" y="794" on="0"/>
        <pt x="626" y="814" on="0"/>
        <pt x="584" y="814" on="1"/>
        <pt x="543" y="814" on="0"/>
        <pt x="474" y="773" on="0"/>
        <pt x="450" y="736" on="1"/>
        <pt x="450" y="0" on="1"/>
        <pt x="91" y="0" on="1"/>
        <pt x="91" y="1082" on="1"/>
        <pt x="427" y="1082" on="1"/>
        <pt x="440" y="952" on="1"/>
        <pt x="494" y="1024" on="0"/>
        <pt x="650" y="1102" on="0"/>
        <pt x="748" y="1102" on="1"/>
        <pt x="949" y="1102" on="0"/>
        <pt x="1020" y="939" on="1"/>
        <pt x="1072" y="1018" on="0"/>
        <pt x="1230" y="1102" on="0"/>
        <pt x="1334" y="1102" on="1"/>
      </contour>
    </TTGlyph>
    <TTGlyph name="macron" xMin="187" yMin="1282" xMax="883" yMax="1462">
      <contour>
        <pt x="187" y="1282" on="1"/>
        <pt x="187" y="1462" on="1"/>
        <pt x="883" y="1462" on="1"/>
        <pt x="883" y="1282" on="1"/>
      </contour>
    </TTGlyph>
    <TTGlyph name="minus" xMin="130" yMin="558" xMax="1016" yMax="853">
      <contour>
        <pt x="130" y="558" on="1"/>
        <pt x="130" y="853" on="1"/>
        <pt x="1016" y="853" on="1"/>
        <pt x="1016" y="558" on="1"/>
      </contour>
    </TTGlyph>
    <TTGlyph name="multiply" xMin="48" yMin="190" xMax="1030" yMax="1183">
      <contour>
        <pt x="738" y="687" on="1"/>
        <pt x="1030" y="389" on="1"/>
        <pt x="827" y="190" on="1"/>
        <pt x="539" y="484" on="1"/>
        <pt x="251" y="190" on="1"/>
        <pt x="48" y="389" on="1"/>
        <pt x="340" y="687" on="1"/>
        <pt x="48" y="984" on="1"/>
        <pt x="251" y="1183" on="1"/>
        <pt x="539" y="889" on="1"/>
        <pt x="827" y="1183" on="1"/>
        <pt x="1030" y="984" on="1"/>
      </contour>
    </TTGlyph>
    <TTGlyph name="n" xMin="81" yMin="0" xMax="1074" yMax="1102">
      <contour>
        <pt x="896" y="1102" on="0"/>
        <pt x="1074" y="902" on="0"/>
        <pt x="1074" y="672" on="1"/>
        <pt x="1074" y="0" on="1"/>
        <pt x="714" y="0" on="1"/>
        <pt x="714" y="673" on="1"/>
        <pt x="714" y="731" on="0"/>
        <pt x="681" y="793" on="0"/>
        <pt x="620" y="814" on="0"/>
        <pt x="570" y="814" on="1"/>
        <pt x="481" y="814" on="0"/>
        <pt x="440" y="754" on="1"/>
        <pt x="440" y="0" on="1"/>
        <pt x="81" y="0" on="1"/>
        <pt x="81" y="1082" on="1"/>
        <pt x="417" y="1082" on="1"/>
        <pt x="429" y="957" on="1"/>
        <pt x="484" y="1028" on="0"/>
        <pt x="640" y="1102" on="0"/>
        <pt x="736" y="1102" on="1"/>
      </contour>
    </TTGlyph>
    <TTGlyph name="nine" xMin="77" yMin="-26" xMax="1107" yMax="1477">
      <contour>
        <pt x="732" y="1477" on="0"/>
        <pt x="966" y="1345" on="0"/>
        <pt x="1107" y="1077" on="0"/>
        <pt x="1107" y="880" on="1"/>
        <pt x="1107" y="746" on="1"/>
        <pt x="1107" y="479" on="0"/>
        <pt x="894" y="133" on="0"/>
        <pt x="543" y="-26" on="0"/>
        <pt x="330" y="-26" on="1"/>
        <pt x="302" y="-26" on="1"/>
        <pt x="302" y="275" on="1"/>
        <pt x="323" y="275" on="1"/>
        <pt x="503" y="275" on="0"/>
        <pt x="719" y="392" on="0"/>
        <pt x="743" y="544" on="1"/>
        <pt x="693" y="504" on="0"/>
        <pt x="573" y="458" on="0"/>
        <pt x="509" y="458" on="1"/>
        <pt x="378" y="458" on="0"/>
        <pt x="183" y="575" on="0"/>
        <pt x="77" y="797" on="0"/>
        <pt x="77" y="952" on="1"/>
        <pt x="77" y="1094" on="0"/>
        <pt x="212" y="1335" on="0"/>
        <pt x="447" y="1477" on="0"/>
        <pt x="592" y="1477" on="1"/>
      </contour>
      <contour>
        <pt x="660" y="725" on="0"/>
        <pt x="730" y="766" on="0"/>
        <pt x="749" y="799" on="1"/>
        <pt x="749" y="952" on="1"/>
        <pt x="749" y="1074" on="0"/>
        <pt x="668" y="1188" on="0"/>
        <pt x="589" y="1188" on="1"/>
        <pt x="543" y="1188" on="0"/>
        <pt x="473" y="1115" on="0"/>
        <pt x="436" y="1004" on="0"/>
        <pt x="436" y="949" on="1"/>
        <pt x="436" y="846" on="0"/>
        <pt x="525" y="725" on="0"/>
        <pt x="609" y="725" on="1"/>
      </contour>
    </TTGlyph>
    <TTGlyph name="nine.frac" xMin="64" yMin="648" xMax="702" yMax="1465">
      <component glyphName=".ttfautohint" x="64" y="648" flags="0x0"/>
      <component glyphName="nine.sup" x="0" y="664" flags="0x4"/>
    </TTGlyph>
    <TTGlyph name="nine.smcp" xMin="63" yMin="-24" xMax="1015" yMax="1182">
      <contour>
        <pt x="743" y="1182" on="0"/>
        <pt x="1015" y="963" on="0"/>
        <pt x="1015" y="701" on="1"/>
        <pt x="1015" y="612" on="1"/>
        <pt x="1015" y="344" on="0"/>
        <pt x="815" y="64" on="0"/>
        <pt x="518" y="-24" on="0"/>
        <pt x="324" y="-24" on="1"/>
        <pt x="297" y="-24" on="1"/>
        <pt x="297" y="260" on="1"/>
        <pt x="317" y="260" on="1"/>
        <pt x="396" y="259" on="1"/>
        <pt x="468" y="259" on="0"/>
        <pt x="565" y="281" on="0"/>
        <pt x="636" y="356" on="0"/>
        <pt x="649" y="431" on="1"/>
        <pt x="605" y="400" on="0"/>
        <pt x="504" y="365" on="0"/>
        <pt x="455" y="365" on="1"/>
        <pt x="272" y="365" on="0"/>
        <pt x="63" y="547" on="0"/>
        <pt x="63" y="751" on="1"/>
        <pt x="63" y="866" on="0"/>
        <pt x="191" y="1064" on="0"/>
        <pt x="411" y="1182" on="0"/>
        <pt x="541" y="1182" on="1"/>
      </contour>
      <contour>
        <pt x="423" y="677" on="0"/>
        <pt x="490" y="626" on="0"/>
        <pt x="561" y="626" on="1"/>
        <pt x="622" y="626" on="0"/>
        <pt x="657" y="651" on="1"/>
        <pt x="657" y="779" on="1"/>
        <pt x="657" y="824" on="0"/>
        <pt x="634" y="873" on="0"/>
        <pt x="585" y="893" on="0"/>
        <pt x="541" y="893" on="1"/>
        <pt x="488" y="893" on="0"/>
        <pt x="423" y="807" on="0"/>
        <pt x="423" y="742" on="1"/>
      </contour>
    </TTGlyph>
    <TTGlyph name="nine.sup" xMin="64" yMin="-16" xMax="702" yMax="801">
      <contour>
        <pt x="521" y="801" on="0"/>
        <pt x="702" y="649" on="0"/>
        <pt x="702" y="476" on="1"/>
        <pt x="702" y="416" on="1"/>
        <pt x="702" y="241" on="0"/>
        <pt x="572" y="50" on="0"/>
        <pt x="369" y="-16" on="0"/>
        <pt x="237" y="-16" on="1"/>
        <pt x="220" y="-16" on="1"/>
        <pt x="220" y="170" on="1"/>
        <pt x="233" y="170" on="1"/>
        <pt x="312" y="170" on="0"/>
        <pt x="391" y="180" on="0"/>
        <pt x="454" y="234" on="0"/>
        <pt x="464" y="295" on="1"/>
        <pt x="434" y="273" on="0"/>
        <pt x="364" y="249" on="0"/>
        <pt x="329" y="249" on="1"/>
        <pt x="205" y="249" on="0"/>
        <pt x="64" y="375" on="0"/>
        <pt x="64" y="510" on="1"/>
        <pt x="64" y="588" on="0"/>
        <pt x="149" y="722" on="0"/>
        <pt x="296" y="801" on="0"/>
        <pt x="384" y="801" on="1"/>
      </contour>
      <contour>
        <pt x="298" y="459" on="0"/>
        <pt x="347" y="419" on="0"/>
        <pt x="397" y="419" on="1"/>
        <pt x="443" y="419" on="0"/>
        <pt x="469" y="441" on="1"/>
        <pt x="469" y="526" on="1"/>
        <pt x="469" y="575" on="0"/>
        <pt x="430" y="613" on="0"/>
        <pt x="384" y="613" on="1"/>
        <pt x="345" y="613" on="0"/>
        <pt x="298" y="551" on="0"/>
        <pt x="298" y="505" on="1"/>
      </contour>
    </TTGlyph>
    <TTGlyph name="ntilde" xMin="81" yMin="0" xMax="1074" yMax="1544">
      <component glyphName=".ttfautohint" x="81" y="0" flags="0x0"/>
      <component glyphName="n" x="0" y="0" flags="0x0"/>
      <component glyphName="tilde" x="77" y="-7" flags="0x4"/>
    </TTGlyph>
    <TTGlyph name="numbersign" xMin="15" yMin="0" xMax="1131" yMax="1456">
      <contour>
        <pt x="864" y="846" on="1"/>
        <pt x="826" y="604" on="1"/>
        <pt x="1055" y="604" on="1"/>
        <pt x="1055" y="410" on="1"/>
        <pt x="795" y="410" on="1"/>
        <pt x="729" y="0" on="1"/>
        <pt x="523" y="0" on="1"/>
        <pt x="589" y="410" on="1"/>
        <pt x="442" y="410" on="1"/>
        <pt x="377" y="0" on="1"/>
        <pt x="170" y="0" on="1"/>
        <pt x="236" y="410" on="1"/>
        <pt x="15" y="410" on="1"/>
        <pt x="15" y="604" on="1"/>
        <pt x="267" y="604" on="1"/>
        <pt x="305" y="846" on="1"/>
        <pt x="90" y="846" on="1"/>
        <pt x="90" y="1040" on="1"/>
        <pt x="336" y="1040" on="1"/>
        <pt x="403" y="1456" on="1"/>
        <pt x="608" y="1456" on="1"/>
        <pt x="542" y="1040" on="1"/>
        <pt x="689" y="1040" on="1"/>
        <pt x="756" y="1456" on="1"/>
        <pt x="962" y="1456" on="1"/>
        <pt x="895" y="1040" on="1"/>
        <pt x="1131" y="1040" on="1"/>
        <pt x="1131" y="846" on="1"/>
      </contour>
      <contour>
        <pt x="658" y="846" on="1"/>
        <pt x="511" y="846" on="1"/>
        <pt x="473" y="604" on="1"/>
        <pt x="620" y="604" on="1"/>
      </contour>
    </TTGlyph>
    <TTGlyph name="o" xMin="47" yMin="-20" xMax="1099" yMax="1102">
      <contour>
        <pt x="47" y="711" on="0"/>
        <pt x="168" y="961" on="0"/>
        <pt x="405" y="1102" on="0"/>
        <pt x="572" y="1102" on="1"/>
        <pt x="741" y="1102" on="0"/>
        <pt x="978" y="961" on="0"/>
        <pt x="1099" y="712" on="0"/>
        <pt x="1099" y="551" on="1"/>
        <pt x="1099" y="530" on="1"/>
        <pt x="1099" y="369" on="0"/>
        <pt x="978" y="121" on="0"/>
        <pt x="742" y="-20" on="0"/>
        <pt x="574" y="-20" on="1"/>
        <pt x="406" y="-20" on="0"/>
        <pt x="168" y="121" on="0"/>
        <pt x="47" y="369" on="0"/>
        <pt x="47" y="530" on="1"/>
        <pt x="47" y="551" on="1"/>
      </contour>
      <contour>
        <pt x="405" y="405" on="0"/>
        <pt x="478" y="270" on="0"/>
        <pt x="574" y="270" on="1"/>
        <pt x="667" y="270" on="0"/>
        <pt x="741" y="406" on="0"/>
        <pt x="741" y="530" on="1"/>
        <pt x="741" y="551" on="1"/>
        <pt x="741" y="673" on="0"/>
        <pt x="667" y="812" on="0"/>
        <pt x="572" y="812" on="1"/>
        <pt x="479" y="812" on="0"/>
        <pt x="405" y="672" on="0"/>
        <pt x="405" y="551" on="1"/>
        <pt x="405" y="530" on="1"/>
      </contour>
    </TTGlyph>
    <TTGlyph name="o.ss06" xMin="38" yMin="-20" xMax="1137" yMax="1102">
      <contour>
        <pt x="38" y="710" on="0"/>
        <pt x="170" y="960" on="0"/>
        <pt x="419" y="1102" on="0"/>
        <pt x="587" y="1102" on="1"/>
        <pt x="756" y="1102" on="0"/>
        <pt x="1005" y="960" on="0"/>
        <pt x="1137" y="710" on="0"/>
        <pt x="1137" y="551" on="1"/>
        <pt x="1137" y="530" on="1"/>
        <pt x="1137" y="371" on="0"/>
        <pt x="1005" y="121" on="0"/>
        <pt x="757" y="-20" on="0"/>
        <pt x="589" y="-20" on="1"/>
        <pt x="420" y="-20" on="0"/>
        <pt x="170" y="121" on="0"/>
        <pt x="38" y="371" on="0"/>
        <pt x="38" y="530" on="1"/>
        <pt x="38" y="551" on="1"/>
      </contour>
      <contour>
        <pt x="397" y="411" on="0"/>
        <pt x="491" y="270" on="0"/>
        <pt x="589" y="270" on="1"/>
        <pt x="684" y="270" on="0"/>
        <pt x="778" y="412" on="0"/>
        <pt x="778" y="530" on="1"/>
        <pt x="778" y="551" on="1"/>
        <pt x="778" y="667" on="0"/>
        <pt x="684" y="812" on="0"/>
        <pt x="587" y="812" on="1"/>
        <pt x="492" y="812" on="0"/>
        <pt x="397" y="666" on="0"/>
        <pt x="397" y="551" on="1"/>
        <pt x="397" y="530" on="1"/>
      </contour>
    </TTGlyph>
    <TTGlyph name="oacute" xMin="47" yMin="-20" xMax="1099" yMax="1536">
      <component glyphName=".ttfautohint" x="47" y="0" flags="0x0"/>
      <component glyphName="o" x="0" y="0" flags="0x0"/>
      <component glyphName="acutecomb" x="1091" y="0" flags="0x0"/>
    </TTGlyph>
    <TTGlyph name="ocircumflex" xMin="47" yMin="-20" xMax="1099" yMax="1535">
      <component glyphName=".ttfautohint" x="47" y="0" flags="0x0"/>
      <component glyphName="o" x="0" y="0" flags="0x0"/>
      <component glyphName="circumflex" x="54" y="0" flags="0x0"/>
    </TTGlyph>
    <TTGlyph name="odieresis" xMin="47" yMin="-20" xMax="1099" yMax="1505">
      <component glyphName=".ttfautohint" x="47" y="0" flags="0x0"/>
      <component glyphName="o" x="0" y="0" flags="0x0"/>
      <component glyphName="dieresis" x="55" y="0" flags="0x0"/>
    </TTGlyph>
</ttFont>
